<?xml version="1.0" encoding="utf-8"?>
<!-- Generator: Adobe Illustrator 22.1.0, SVG Export Plug-In . SVG Version: 6.00 Build 0)  -->
<svg version="1.1" id="Layer_1" xmlns="http://www.w3.org/2000/svg" xmlns:xlink="http://www.w3.org/1999/xlink" x="0px" y="0px"
	 viewBox="0 0 398.2 512" style="enable-background:new 0 0 398.2 512;" xml:space="preserve">
<style type="text/css">
	.st0{fill:#134921;}
	.st1{fill:#0D3017;}
	.st2{fill:#CDCDCD;}
	.st3{fill:#E5DFCA;}
</style>
<title>bible</title>
<path class="st0" d="M83.1,32.4H373v414.1H83.1V32.4z"/>
<path class="st1" d="M331.6,380.2H373v66.3h-41.4V380.2z"/>
<path class="st1" d="M108,413.4H25.1V65.5c0-18.3,14.8-33.1,33.1-33.1H108V413.4z"/>
<path class="st2" d="M58.3,380.2h281.6v66.3H58.3c-18.3,0.3-33.4-14.3-33.7-32.6c-0.3-18.3,14.3-33.4,32.6-33.7
	C57.6,380.2,57.9,380.2,58.3,380.2z"/>
<path class="st0" d="M190.8,479.6L165.9,463l-24.8,16.6v-66.3h49.7V479.6z"/>
<path class="st3" d="M323.3,140h-57.9V90.4h-49.7V140h-58v49.7h58V314h49.7V189.7h58L323.3,140z"/>
</svg>
