<?xml version="1.0" encoding="iso-8859-1"?>
<!-- Generator: Adobe Illustrator 18.0.0, SVG Export Plug-In . SVG Version: 6.00 Build 0)  -->
<!DOCTYPE svg PUBLIC "-//W3C//DTD SVG 1.1//EN" "http://www.w3.org/Graphics/SVG/1.1/DTD/svg11.dtd">
<svg xmlns="http://www.w3.org/2000/svg" xmlns:xlink="http://www.w3.org/1999/xlink" version="1.1" id="Capa_1" x="0px" y="0px" viewBox="0 0 444.04 444.04" style="enable-background:new 0 0 444.04 444.04;" xml:space="preserve" width="512px" height="512px">
<g>
	<g>
		<g>
			<g>
				<path d="M357.998,366.249c-13.898,0-25.206-11.309-25.206-25.208c0-13.899,11.308-25.207,25.206-25.207      c13.9,0,25.208,11.308,25.208,25.207C383.206,354.94,371.898,366.249,357.998,366.249z M357.998,325.834      c-8.385,0-15.206,6.822-15.206,15.207c0,8.386,6.821,15.208,15.206,15.208c8.386,0,15.208-6.822,15.208-15.208      C373.206,332.656,366.384,325.834,357.998,325.834z" fill="#134921"/>
			</g>
			<path d="M357.998,297.103c-24.227,0-43.938,19.71-43.938,43.937c0,7.748,2.024,15.028,5.558,21.355h-91.875V250.361     c6.761-3.498,11.401-10.545,11.401-18.667v-81.91c0-11.588-9.429-21.016-21.018-21.016h-25.045v-21.38     c13.667-1.473,27.812-9.706,27.812-37.492c0-26.88-27.558-66.127-28.731-67.785C191.225,0.787,189.704,0,188.081,0     c-1.623,0-3.144,0.787-4.081,2.111c-1.173,1.658-28.732,40.905-28.732,67.785c0,27.786,14.145,36.02,27.813,37.492v21.38h-25.046     c-11.588,0-21.016,9.428-21.016,21.016v57.529c0,8.122,4.64,15.168,11.4,18.664v136.418H47.104c-2.761,0-5,2.238-5,5v36.765     c0,1.667,0.831,3.225,2.215,4.153l52.022,34.88c0.824,0.552,1.793,0.847,2.785,0.847h177.911c0.992,0,1.961-0.295,2.785-0.847     l52.023-34.88c1.384-0.929,2.215-2.486,2.215-4.153v-26.304c6.893,4.497,15.112,7.122,23.938,7.122     c24.228,0,43.938-19.711,43.938-43.938C401.936,316.814,382.226,297.103,357.998,297.103z M165.269,69.896     c0-17.961,15.291-44.092,22.814-55.861c7.524,11.763,22.811,37.877,22.811,55.861c0,20.79-8.705,26.265-17.812,27.463V78.855     c0-2.762-2.239-5-5-5c-2.761,0-5,2.238-5,5v18.504C173.974,96.161,165.269,90.687,165.269,69.896z M147.019,207.314v-57.529     c0-6.074,4.941-11.016,11.016-11.016h60.091c6.075,0,11.018,4.942,11.018,11.016v81.91c0,6.075-4.943,11.018-11.018,11.018     c-6.074,0-11.015-4.942-11.015-11.018c0-2.762-2.239-5-5-5c-2.761,0-5,2.238-5,5c0,11.46,9.222,20.791,20.632,20.998v109.703     h-59.324V228.309c11.41-0.208,20.631-9.537,20.631-20.995c0-2.762-2.239-5-5-5c-2.761,0-5,2.238-5,5     c0,6.073-4.942,11.015-11.016,11.015C151.96,218.328,147.019,213.387,147.019,207.314z M275.516,434.04H100.647l-37.108-24.88     h249.086L275.516,434.04z M324.06,399.16H52.104v-26.765H324.06V399.16z M357.998,374.978c-18.713,0-33.938-15.225-33.938-33.938     c0-18.713,15.224-33.937,33.938-33.937c18.714,0,33.938,15.224,33.938,33.937C391.936,359.754,376.712,374.978,357.998,374.978z" fill="#134921"/>
		</g>
	</g>
</g>
<g>
</g>
<g>
</g>
<g>
</g>
<g>
</g>
<g>
</g>
<g>
</g>
<g>
</g>
<g>
</g>
<g>
</g>
<g>
</g>
<g>
</g>
<g>
</g>
<g>
</g>
<g>
</g>
<g>
</g>
</svg>
