<svg id="7752776f-6852-4158-990a-5e7eb7e68342" data-name="Capa 1" xmlns="http://www.w3.org/2000/svg" viewBox="0 0 512 390.03"><title>catequese</title><path d="M424.48,432.94l-7.88-68,10.22-59.55a16.21,16.21,0,0,0-31.95-5.48l-10.61,61.85a16.12,16.12,0,0,0-.12,4.6l8.15,70.28a16.2,16.2,0,0,0,32.19-3.73Z" transform="translate(0 -60.99)" fill="#134921"/><path d="M507.11,430c6.5-6.16,6.45-16.82.27-23.3L464.7,359.46l-2.35-38.31-.67-9.29A16.08,16.08,0,0,0,441.61,301h0a16.21,16.21,0,0,0-10.86,20.19l7.06,52.37a17,17,0,0,0,4.55,9.42l41.88,46.45A16.22,16.22,0,0,0,507.11,430Z" transform="translate(0 -60.99)" fill="#185b2b"/><path d="M391.06,321.15h71.29l-.2-3.35-7.75-98.42a21.35,21.35,0,0,0-23-19.62l-27.27,2.16a21.36,21.36,0,0,0-19.62,22.73Z" transform="translate(0 -60.99)" fill="#0e3318"/><path d="M455,273.13q1.88,0,3.78-.12l12.7-.85-.8-12.11-12.71.84a44.45,44.45,0,0,1-47.24-41.37,10.57,10.57,0,0,1,9.86-11.26L467,205.18l-.8-12.12-46.45,3.08a22.72,22.72,0,0,0-21.18,24.18A56.62,56.62,0,0,0,455,273.13Z" transform="translate(0 -60.99)" fill="#165328"/><path d="M449.93,274.49A21.09,21.09,0,1,0,492,271.7l-4.6-69.35a21.09,21.09,0,1,0-42.08,2.79Z" transform="translate(0 -60.99)" fill="#185b2b"/><path d="M492,271.7,489.72,237l6.11-.4A6.74,6.74,0,0,1,503,242.9l1.43,21.54a6.75,6.75,0,0,1-6.29,7.18L492,272C492,271.92,492,271.81,492,271.7Z" transform="translate(0 -60.99)" fill="#165328"/><circle cx="417.25" cy="84.37" r="35.02" fill="#e5dfca"/><path d="M397.34,271.5,433.87,231a13.7,13.7,0,0,0-20.36-18.35l-33.89,37.6-49.9,14.14a13.7,13.7,0,0,0,7.47,26.37l53.7-15.21A13.61,13.61,0,0,0,397.34,271.5Z" transform="translate(0 -60.99)" fill="#e5dfca"/><path d="M397.34,271.5,433.87,231a13.7,13.7,0,0,0-20.36-18.35l-33.89,37.6-49.9,14.14,7.47,26.37,53.7-15.21A13.61,13.61,0,0,0,397.34,271.5Z" transform="translate(0 -60.99)" fill="#134921"/><path d="M121.24,451H23.59a23.6,23.6,0,0,1,0-47.19H93.75L79.24,309.93S87,290.47,99.91,288.49a23.59,23.59,0,0,1,26.9,19.74l17.75,115.6A23.6,23.6,0,0,1,121.24,451Z" transform="translate(0 -60.99)" fill="#185b2b"/><path d="M191.9,450.37A23.58,23.58,0,0,1,174.38,422L191,351.69l-65.25-24.43A23.6,23.6,0,1,1,137.3,281.5l87.8,30.11a23.59,23.59,0,0,1,17.19,28.32l-22,92.92A23.58,23.58,0,0,1,191.9,450.37Z" transform="translate(0 -60.99)" fill="#134921"/><path d="M130,328.89l-50.75-19L132.6,170.18a29.15,29.15,0,0,1,37.63-16.84l48.58,18.55a29.15,29.15,0,0,1,16.83,37.64L200,303Z" transform="translate(0 -60.99)" fill="#0e3318"/><circle cx="222.47" cy="104.15" r="43.16" transform="translate(81.3 244.19) rotate(-80.01)" fill="#e5dfca"/><path d="M213.15,252.68l-48-54.19a18.92,18.92,0,1,1,28.32-25.09l40.62,45.83,65.34-14.63a18.92,18.92,0,1,1,8.27,36.92l-76.24,17.07A18.91,18.91,0,0,1,213.15,252.68Z" transform="translate(0 -60.99)" fill="#e5dfca"/><path d="M221.58,205.14,193.45,173.4a18.92,18.92,0,1,0-28.32,25.09l30.35,34.25Z" transform="translate(0 -60.99)" fill="#165328"/></svg>