<svg id="fbbdbb96-2adf-4f2c-bddf-ac4e8fe56c74" data-name="Layer 3" xmlns="http://www.w3.org/2000/svg" viewBox="0 0 512 488.16"><title>catecumeno</title><path d="M233.64,211.32a16.58,16.58,0,0,0,3.93,3.86l54.23,38A16.61,16.61,0,0,0,307.36,255l75.15-29.44a16.57,16.57,0,1,0-12.09-30.86l-66.88,26.19-47-32.89a16.58,16.58,0,0,0-22.95,23.29Z" transform="translate(0 -11.92)" fill="#e5dfca"/><path d="M391.9,204.12a16.57,16.57,0,0,0-21.48-9.39L318.72,215l10.13,31.63,53.66-21A16.56,16.56,0,0,0,391.9,204.12Z" transform="translate(0 -11.92)" fill="#0e3318"/><path d="M333.71,500.08a21.51,21.51,0,0,1-5.3-.67,21.26,21.26,0,0,1-15.31-25.88L339,372.75a21.27,21.27,0,0,1,7.36-11.36l67-53.3a21.26,21.26,0,1,1,26.46,33.28l-61.45,48.86L354.28,484.1A21.26,21.26,0,0,1,333.71,500.08Z" transform="translate(0 -11.92)" fill="#134921"/><path d="M488.51,500.08a21.24,21.24,0,0,1-17.86-9.7l-49.94-77a21.26,21.26,0,0,1-3.1-15.24l6-43.84-9-24.93,56.66-10.15-10.37,78,45.4,70a21.27,21.27,0,0,1-17.82,32.83Z" transform="translate(0 -11.92)" fill="#185b2b"/><path d="M471.36,319.1l-44-116.7a28.86,28.86,0,0,0-13.54-15.51,23.24,23.24,0,0,0-19-1.31l-40.6,15.5c-12.61,4.81-18.48,20.1-13.12,34.14l38.36,100.47Z" transform="translate(0 -11.92)" fill="#103d1d"/><circle cx="348.94" cy="126.43" r="37.72" fill="#e5dfca"/><path d="M495.72,327a16.25,16.25,0,0,1-13.18-6.7l-39.39-54.11-58.09-44.11a16.29,16.29,0,1,1,19.71-26l60,45.56a16.67,16.67,0,0,1,3.32,3.39l40.79,56A16.29,16.29,0,0,1,495.72,327Z" transform="translate(0 -11.92)" fill="#e5dfca"/><path d="M385.06,222.08l31.64,24,17.81-27.4-29.74-22.58a16.29,16.29,0,1,0-19.71,26Z" transform="translate(0 -11.92)" fill="#0e3318"/><path d="M148.22,444.59A21.62,21.62,0,0,1,126.59,423V327.43L69.76,238.17a21.62,21.62,0,1,1,36.48-23.23l60.22,94.58a21.61,21.61,0,0,1,3.38,11.61V423A21.62,21.62,0,0,1,148.22,444.59Z" transform="translate(0 -11.92)" fill="#134921"/><path d="M164.87,100.81,123.64,85.07a23.59,23.59,0,0,0-19.34,1.35A29.39,29.39,0,0,0,90.54,102.2L44,225.63a84.1,84.1,0,0,0-5.17,23.49L26.22,421.38a21.63,21.63,0,0,0,20,23.16c.54,0,1.08,0,1.61,0a21.61,21.61,0,0,0,21.54-20L83.6,259.9l13.58-16.08,35.06,12,45.93-120.3C183.62,121.24,177.67,105.7,164.87,100.81Z" transform="translate(0 -11.92)" fill="#185b2b"/><path d="M17.08,216.91a17.1,17.1,0,0,1-15.57-24.1L28,134a17.07,17.07,0,0,1,7.35-8l69.74-38.38a17.09,17.09,0,0,1,16.48,29.94L56.82,153.21,32.67,206.84A17.07,17.07,0,0,1,17.08,216.91Z" transform="translate(0 -11.92)" fill="#e5dfca"/><path d="M128.29,94.38a17.09,17.09,0,0,0-23.21-6.74L64.91,109.75l13.65,31.49,43-23.66A17.08,17.08,0,0,0,128.29,94.38Z" transform="translate(0 -11.92)" fill="#1d7238"/><path d="M44,225.63,90.54,102.21A29.41,29.41,0,0,1,104.3,86.42a23.59,23.59,0,0,1,19.34-1.35l41.22,15.74c12.81,4.89,18.76,20.43,13.31,34.71l-45.93,120.3Z" transform="translate(0 -11.92)" fill="#1c6531"/><circle cx="170" cy="37.72" r="37.72" fill="#e5dfca"/><path d="M183,500.08H17a7,7,0,0,1-7-7V451.28a7,7,0,0,1,7-7H183a7,7,0,0,1,7,7v41.77A7,7,0,0,1,183,500.08Z" transform="translate(0 -11.92)" fill="#6e7b85"/><path d="M238.21,229a16.83,16.83,0,0,1-5.66-.48l-66.12-17a17.05,17.05,0,0,1-11.89-10.93L127.19,122a17.08,17.08,0,1,1,32.27-11.23l24.35,69.94,57.25,14.72A17.09,17.09,0,0,1,238.21,229Z" transform="translate(0 -11.92)" fill="#e5dfca"/><path d="M142.32,165.53l31.91-12.31L159.46,110.8A17.09,17.09,0,0,0,127.18,122Z" transform="translate(0 -11.92)" fill="#1d7238"/></svg>