<svg id="8a75f055-ee52-4082-9681-bb1b28ec0371" data-name="Layer 1" xmlns="http://www.w3.org/2000/svg" viewBox="0 0 512 406.23"><title>cecssac</title><path d="M256.71,459.11H0V253.52a35.34,35.34,0,0,1,35.3-35.3H256.71ZM28.37,430.75h200V246.59H35.3a6.94,6.94,0,0,0-6.93,6.93Z" transform="translate(0 -52.88)" fill="#134921"/><path d="M512,459.11H228.34V190.2a35.48,35.48,0,0,1,10.89-25.5l106.53-102a35.27,35.27,0,0,1,48.82,0l106.53,102A35.48,35.48,0,0,1,512,190.2ZM256.71,430.75H483.63V190.2a7,7,0,0,0-2.13-5L375,83.18a6.93,6.93,0,0,0-9.59,0l-106.53,102a7,7,0,0,0-2.14,5Z" transform="translate(0 -52.88)" fill="#134921"/><path d="M436.12,454.11H304.22V362.63a65.95,65.95,0,1,1,131.9,0ZM332.59,434.25h75.17V362.63a37.59,37.59,0,1,0-75.17,0v71.62Z" transform="translate(0 -52.88)" fill="#134921"/><path d="M172.32,377.52H84.39a24.14,24.14,0,0,1-24.11-24.11V302.35a24.13,24.13,0,0,1,24.11-24.11h87.93a24.13,24.13,0,0,1,24.11,24.11v51.06A24.14,24.14,0,0,1,172.32,377.52ZM88.64,349.15h79.43V306.61H88.64Z" transform="translate(0 -52.88)" fill="#134921"/></svg>