<svg id="Capa_1" data-name="Capa 1" xmlns="http://www.w3.org/2000/svg" viewBox="0 0 394.25 512"><title>cross</title><path d="M453.12,199.13c-.46-16.53-14.43-29.49-31-29.49H410.75a2.61,2.61,0,0,1-2.61-2.62h0c0-16.53-13-30.51-29.49-31a30.34,30.34,0,0,0-31.19,30.33h0a3.26,3.26,0,0,1-3.25,3.25H300.26a7,7,0,0,1-5.22-2.39,52.63,52.63,0,0,0-5.77-5.6,8,8,0,0,1-2.93-6.11V108.29a2.62,2.62,0,0,1,2.62-2.62h0c16.53,0,30.5-13,31-29.49A30.34,30.34,0,0,0,289.59,45h0a3.25,3.25,0,0,1-3.25-3.25V30.34A30.34,30.34,0,0,0,256,0h0a30.35,30.35,0,0,0-30.34,30.34v12A2.62,2.62,0,0,1,223,45h0c-16.53,0-30.5,13-31,29.48a30.35,30.35,0,0,0,30.33,31.2h0a3.24,3.24,0,0,1,3.25,3.25v50.46A52.42,52.42,0,0,0,215,169.64H164.55V167c0-16.53-13-30.5-29.49-31a30.34,30.34,0,0,0-31.19,30.33v3.25h-14c-16.54,0-30.51,13-31,29.49a30.34,30.34,0,0,0,30.33,31.19h14.65v2.62c0,16.53,13,30.51,29.49,31a30.34,30.34,0,0,0,31.19-30.33v-3.25h48A52.22,52.22,0,0,0,225.67,244V468.2h-3.25a30.32,30.32,0,0,0-29.82,35.88,257.64,257.64,0,0,0,126.81,0,29.81,29.81,0,0,0,.52-5.54A30.33,30.33,0,0,0,289.6,468.2h0a3.24,3.24,0,0,1-3.25-3.25V248.49a9.15,9.15,0,0,1,3.2-7,52.26,52.26,0,0,0,7.19-7.38,10,10,0,0,1,7.84-3.78h40.26a2.62,2.62,0,0,1,2.62,2.62h0c0,16.53,13,30.5,29.49,31a30.34,30.34,0,0,0,31.19-30.33h0a3.25,3.25,0,0,1,3.25-3.25H422.8A30.34,30.34,0,0,0,453.12,199.13Z" transform="translate(-58.88 0)" fill="#0d3017"/><path d="M256,490.55V21.45a21.44,21.44,0,0,1,11.72-19.1,30.34,30.34,0,0,0-35.24,8.83C219.33,27.3,230.69,45,222.41,45h0C198,45,183.79,72.37,197.26,92.3c10.36,15.34,28.54,13.37,25.15,13.37a3.25,3.25,0,0,1,3.25,3.25v46.65c0,5.57-4.72,6.54-9.18,12.24h0a5,5,0,0,1-3.87,1.83H167.15a2.59,2.59,0,0,1-2.6-2.6h0c0-17-13.92-31.3-30.92-31a30.37,30.37,0,0,0-29.76,30.34h0a3.26,3.26,0,0,1-3.25,3.25c-11.91,0-13.13-.14-16.56.44-28.94,5-34.48,44.48-8,57.25,13.86,6.67,27.81-.9,27.81,6.24h0a30.34,30.34,0,1,0,60.68,0h0a3.24,3.24,0,0,1,3.25-3.25H208c.68.12,4-.6,6.21,2.38,7.29,9.79,11.45,9,11.45,15.69V465a3.25,3.25,0,0,1-3.25,3.25h0a30.32,30.32,0,0,0-29.81,35.88,257.23,257.23,0,0,0,80.12,7.38A21.45,21.45,0,0,1,256,490.55Z" transform="translate(-58.88 0)" fill="#134921"/><circle cx="197.12" cy="201.12" r="20.98" fill="#134921"/><path d="M256,180.16a21,21,0,1,0,18.15,31.44A21,21,0,0,1,256,180.16Z" transform="translate(-58.88 0)" fill="#0d3017"/></svg>