<svg id="a6858d1d-5c3f-4a55-89a5-79af367a2664" data-name="Layer 1" xmlns="http://www.w3.org/2000/svg" viewBox="0 0 57.06 49.02"><title>curso</title><path d="M7,12c.26.1-.73,1.87,0,4s2.51,3.11,4,4a10.91,10.91,0,0,0,7,2,9,9,0,0,0,6-3,8.94,8.94,0,0,0,2-6,7,7,0,0,0-1-4c-1.32-2-3.53-2.61-5-3a12,12,0,0,0-6,0A30.79,30.79,0,0,1,46,5a10.74,10.74,0,0,0-7,2c-.6.45-4.08,3-4,7,.08,4.13,3.94,7,7,8,2.83.92,7.25,1,10-2a8.7,8.7,0,0,0,2.12-7.55A1.8,1.8,0,0,1,54,12a27.77,27.77,0,0,1,5,13c.5,6.35-2.52,11.71-5,15a8.6,8.6,0,0,0,0-5c-1.37-4.32-6-5.72-7-6a9.72,9.72,0,0,0-8,1,9.28,9.28,0,0,0-4,7,8,8,0,0,0,11,8,28,28,0,0,1-32,0,12.09,12.09,0,0,0,9-3c.84-.8,3-2.91,3-6-.06-4.46-4.72-6.86-5-7a9.45,9.45,0,0,0-10,1c-3.27,2.83-4,9-4,9S2.25,31.89,2,25C1.73,17.59,6.52,11.82,7,12Z" transform="translate(-1.99 -1)" fill="#134921"/></svg>