<svg id="Layer_1" data-name="Layer 1" xmlns="http://www.w3.org/2000/svg" viewBox="0 0 53.67 55.1"><title>email</title><path d="M14.15,24.82C7.51,38.9,13.88,55.64,27.31,61.35c13.11,5.57,28.48-1.08,34.38-13.81,6-12.9.82-29.07-12-35.37-20.12-9.72-33.25,7.68-33.43,8.64" transform="translate(-11 -8.73)" fill="none" stroke="#134921" stroke-miterlimit="10"/><path d="M45.7,29.05c-1.07,5.28-4.53,17.28-11.94,15.37S30.57,26,38.45,27.8s3.22,15.71,5.18,16.25,6.75-3.19,7.75-8.32c1.14-5.82-3.64-12.56-10-14.18-7.23-1.85-15.33,3.12-17.56,10.62a15.45,15.45,0,0,0,6.94,17.44,15.89,15.89,0,0,0,20.25-4" transform="translate(-11 -8.73)" fill="none" stroke="#134921" stroke-miterlimit="10"/></svg>