<svg id="5dd3ab18-3820-4d3c-83df-bd0560ec4194" data-name="Layer 1" xmlns="http://www.w3.org/2000/svg" viewBox="0 0 56.38 26.9"><title>ens</title><g id="1d69eb61-b3d4-4ead-b2a5-b08b367bf324" data-name="Layer 3"><path d="M39.66,11A13.45,13.45,0,1,0,53.12,24.45,13.45,13.45,0,0,0,39.66,11Zm0,23.69A10.24,10.24,0,1,1,49.91,24.45,10.24,10.24,0,0,1,39.66,34.69Z" transform="translate(-2 -11)" fill="#134921"/><path d="M2.23,16.09,4.54,14.7A34.22,34.22,0,0,0,12,23a35.65,35.65,0,0,0,13,6.47,44.35,44.35,0,0,0,17.34,1.62C52,30.1,54.67,26.46,55,25.8a2.8,2.8,0,0,0,.23-1.15,3.24,3.24,0,0,0-.93-1.85C50,18.29,40.39,17.71,40.39,17.71A43.12,43.12,0,0,0,23.74,20a37,37,0,0,0-12,6.48,35.47,35.47,0,0,0-7.4,8.32L2,33a38.3,38.3,0,0,1,3.24-4.16,40.7,40.7,0,0,1,12.49-9.25c8.3-4,15.62-4.1,20.35-4.17a41.06,41.06,0,0,1,11.1,1.39A17.12,17.12,0,0,1,56.12,20,5.76,5.76,0,0,1,58,22.33a5.63,5.63,0,0,1,0,4.17,6,6,0,0,1-2.77,2.77A31.84,31.84,0,0,1,45.48,33a46.63,46.63,0,0,1-16.65,0,45.76,45.76,0,0,1-13.42-4.62,33.57,33.57,0,0,1-8.78-6.48A31.87,31.87,0,0,1,2.23,16.09Z" transform="translate(-2 -11)" fill="#081a0d"/><path d="M30.88,11A13.45,13.45,0,1,0,44.33,24.45,13.46,13.46,0,0,0,30.88,11Zm0,23.69A10.24,10.24,0,1,1,41.12,24.45,10.24,10.24,0,0,1,30.88,34.69Z" transform="translate(-2 -11)" fill="#134921"/></g></svg>