<svg id="Layer_1" data-name="Layer 1" xmlns="http://www.w3.org/2000/svg" viewBox="0 0 49.11 48.04"><title>fax</title><path d="M23.52,53.2H16.63a1.4,1.4,0,0,1-1.4-1.4V32.28a1.4,1.4,0,0,1,1.4-1.4h5.15a1.91,1.91,0,0,1-.29-1H16.63a2.41,2.41,0,0,0-2.41,2.41V51.8a2.41,2.41,0,0,0,2.41,2.41h7.11A1.85,1.85,0,0,1,23.52,53.2Z" transform="translate(-14.22 -14.63)" fill="#134921"/><path d="M60.92,29.86H55.81a2,2,0,0,1,0,1h5.11a1.4,1.4,0,0,1,1.4,1.4V51.8a1.41,1.41,0,0,1-1.4,1.4H53a1.76,1.76,0,0,1,.21,1h7.75a2.41,2.41,0,0,0,2.41-2.41V32.28A2.41,2.41,0,0,0,60.92,29.86Z" transform="translate(-14.22 -14.63)" fill="#134921"/><path d="M22.69,39a1.73,1.73,0,0,1-1.39-.76h0a2.9,2.9,0,0,1-.49-1.65h0V17a2.9,2.9,0,0,1,.49-1.65h0a1.73,1.73,0,0,1,1.39-.76H54.62a1.73,1.73,0,0,1,1.39.76h0A2.9,2.9,0,0,1,56.5,17h0v19h0v.5A2.82,2.82,0,0,1,56,38.21h0a1.74,1.74,0,0,1-1.38.77H22.69Zm-.56-23a1.79,1.79,0,0,0-.31,1h0V36.56a1.79,1.79,0,0,0,.31,1h0a.7.7,0,0,0,.56.35H54.62a.7.7,0,0,0,.56-.35h0a1.79,1.79,0,0,0,.31-1h0V17a1.79,1.79,0,0,0-.31-1h0a.7.7,0,0,0-.56-.35H22.68a.7.7,0,0,0-.55.35Z" transform="translate(-14.22 -14.63)" fill="#134921"/><path d="M23,60.92V48.17a1.71,1.71,0,0,1,1.68-1.75H52a1.71,1.71,0,0,1,1.68,1.75h0V60.92A1.72,1.72,0,0,1,52,62.67H24.63A1.72,1.72,0,0,1,23,60.92Zm1-12.75V60.92a.7.7,0,0,0,.67.73H52a.7.7,0,0,0,.67-.73h0V48.17a.71.71,0,0,0-.67-.74H24.63a.71.71,0,0,0-.67.74Z" transform="translate(-14.22 -14.63)" fill="#134921"/><polygon points="12.56 18.87 12.56 17.86 36.31 17.86 36.31 18.87 12.56 18.87" fill="#134921"/><polygon points="12.56 8.4 12.56 7.38 36.31 7.38 36.31 8.4 12.56 8.4" fill="#134921"/><polygon points="12.56 13.63 12.56 12.62 36.31 12.62 36.31 13.63 12.56 13.63" fill="#134921"/></svg>