<?xml version="1.0" encoding="iso-8859-1"?>
<!-- Generator: Adobe Illustrator 19.0.0, SVG Export Plug-In . SVG Version: 6.00 Build 0)  -->
<svg xmlns="http://www.w3.org/2000/svg" xmlns:xlink="http://www.w3.org/1999/xlink" version="1.1" id="Capa_1" x="0px" y="0px" viewBox="0 0 512 512" style="enable-background:new 0 0 512 512;" xml:space="preserve" width="512px" height="512px">
<g>
	<g>
		<path d="M264.394,213.333c-17.643,0-32,14.357-32,32c0,17.643,14.357,32,32,32c17.643,0,32-14.357,32-32    C296.394,227.691,282.037,213.333,264.394,213.333z M264.394,256c-5.867,0-10.667-4.779-10.667-10.667s4.8-10.667,10.667-10.667    c5.867,0,10.667,4.779,10.667,10.667S270.261,256,264.394,256z" fill="#134921"/>
	</g>
</g>
<g>
	<g>
		<g>
			<path d="M392.394,234.667h-42.667c-5.888,0-10.667,4.779-10.667,10.667S343.84,256,349.728,256h42.667     c5.888,0,10.667-4.779,10.667-10.667S398.282,234.667,392.394,234.667z" fill="#134921"/>
			<path d="M456.394,234.667h-21.333c-5.888,0-10.667,4.779-10.667,10.667S429.173,256,435.061,256h21.333     c5.888,0,10.667-4.779,10.667-10.667S462.282,234.667,456.394,234.667z" fill="#134921"/>
		</g>
	</g>
</g>
<g>
	<g>
		<path d="M126.496,234.667h-10.667c-5.888,0-10.667,4.779-10.667,10.667S109.941,256,115.829,256h10.667    c5.909,0,10.667-4.779,10.667-10.667S132.384,234.667,126.496,234.667z" fill="#134921"/>
	</g>
</g>
<g>
	<g>
		<path d="M179.061,234.667h-10.667c-5.888,0-10.667,4.779-10.667,10.667S162.506,256,168.394,256h10.667    c5.888,0,10.667-4.779,10.667-10.667S184.949,234.667,179.061,234.667z" fill="#134921"/>
	</g>
</g>
<g>
	<g>
		<g>
			<path d="M264.394,128c-5.888,0-10.667,4.779-10.667,10.667V160c0,5.888,4.779,10.667,10.667,10.667s10.667-4.779,10.667-10.667     v-21.333C275.061,132.779,270.282,128,264.394,128z" fill="#134921"/>
			<path d="M264.394,64c-5.888,0-10.667,4.779-10.667,10.667V96c0,5.888,4.779,10.667,10.667,10.667s10.667-4.779,10.667-10.667     V74.667C275.061,68.779,270.282,64,264.394,64z" fill="#134921"/>
			<path d="M264.394,0c-5.888,0-10.667,4.779-10.667,10.667V32c0,5.888,4.779,10.667,10.667,10.667S275.061,37.888,275.061,32     V10.667C275.061,4.779,270.282,0,264.394,0z" fill="#134921"/>
		</g>
	</g>
</g>
<g>
	<g>
		<g>
			<path d="M264.394,320c-5.888,0-10.667,4.779-10.667,10.667v42.667c0,5.888,4.779,10.667,10.667,10.667     s10.667-4.779,10.667-10.667v-42.667C275.061,324.779,270.282,320,264.394,320z" fill="#134921"/>
			<path d="M264.394,405.333c-5.888,0-10.667,4.779-10.667,10.667v20.011c0,5.888,4.779,10.667,10.667,10.667     s10.667-4.779,10.667-10.667V416C275.061,410.112,270.282,405.333,264.394,405.333z" fill="#134921"/>
		</g>
	</g>
</g>
<g>
	<g>
		<path d="M347.317,162.325c-4.16-4.139-10.923-4.16-15.083,0.021l-15.083,15.104c-4.139,4.181-4.139,10.923,0.043,15.083    c2.091,2.069,4.8,3.115,7.531,3.115s5.483-1.024,7.573-3.136l15.061-15.104C351.498,173.227,351.498,166.485,347.317,162.325z" fill="#134921"/>
	</g>
</g>
<g>
	<g>
		<g>
			<path d="M380.576,113.792l-24.192,24.277c-4.139,4.181-4.139,10.923,0.043,15.083c2.091,2.091,4.8,3.115,7.531,3.115     c2.731,0,5.483-1.045,7.552-3.136l24.192-24.277c4.139-4.181,4.139-10.923-0.043-15.083     C391.498,109.611,384.736,109.632,380.576,113.792z" fill="#134921"/>
			<path d="M444.021,65.195c-4.16-4.16-10.923-4.16-15.083,0.021l-24.192,24.277c-4.139,4.181-4.139,10.923,0.043,15.083     c2.091,2.091,4.8,3.115,7.531,3.115c2.731,0,5.461-1.045,7.552-3.136l24.192-24.277     C448.202,76.096,448.202,69.355,444.021,65.195z" fill="#134921"/>
		</g>
	</g>
</g>
<g>
	<g>
		<path d="M483.232,25.771c-4.16-4.139-10.923-4.139-15.083,0.043l-15.04,15.104C448.97,45.099,448.97,51.84,453.152,56    c2.091,2.091,4.8,3.115,7.531,3.115c2.731,0,5.483-1.045,7.552-3.157l15.04-15.104C487.413,36.672,487.413,29.931,483.232,25.771z    " fill="#134921"/>
	</g>
</g>
<g>
	<g>
		<path d="M212,298.539c-3.947-4.395-10.709-4.757-15.04-0.853c-3.435,3.093-84.523,76.693-113.621,201.195    c-1.344,5.76,2.219,11.499,7.957,12.843c0.832,0.192,1.643,0.277,2.432,0.277c4.864,0,9.237-3.307,10.389-8.235    C131.637,386.048,210.4,314.325,211.189,313.6C215.562,309.696,215.946,302.933,212,298.539z" fill="#134921"/>
	</g>
</g>
<g>
	<g>
		<path d="M121.077,86.933l-15.083-15.083c-4.16-4.16-10.923-4.16-15.083,0c-4.16,4.16-4.16,10.923,0,15.083l15.083,15.104    c2.091,2.069,4.821,3.115,7.552,3.115s5.461-1.045,7.531-3.136C125.237,97.856,125.237,91.093,121.077,86.933z" fill="#134921"/>
	</g>
</g>
<g>
	<g>
		<path d="M171.381,137.237l-25.152-25.152c-4.16-4.16-10.923-4.16-15.083,0c-4.16,4.16-4.16,10.923,0,15.083l25.131,25.152    c2.091,2.069,4.821,3.115,7.552,3.115s5.461-1.045,7.552-3.115C175.541,148.16,175.541,141.397,171.381,137.237z" fill="#134921"/>
	</g>
</g>
<g>
	<g>
		<path d="M211.594,177.451l-15.083-15.083c-4.16-4.16-10.923-4.16-15.083,0c-4.16,4.16-4.16,10.923,0,15.083l15.083,15.083    c2.091,2.069,4.821,3.115,7.552,3.115c2.731,0,5.461-1.024,7.531-3.115C215.754,188.373,215.754,181.611,211.594,177.451z" fill="#134921"/>
	</g>
</g>
<g>
	<g>
		<g>
			<path d="M332.256,298.133c-4.16-4.16-10.923-4.16-15.083,0c-4.16,4.16-4.16,10.923,0,15.083l30.165,30.165     c2.091,2.069,4.821,3.115,7.552,3.115c2.731,0,5.461-1.045,7.531-3.115c4.16-4.16,4.16-10.923,0-15.083L332.256,298.133z" fill="#134921"/>
			<path d="M437.856,403.733l-30.187-30.187c-4.16-4.16-10.923-4.16-15.083,0s-4.16,10.923,0,15.083l30.187,30.187     c2.091,2.069,4.821,3.115,7.552,3.115c2.731,0,5.461-1.045,7.531-3.115C442.016,414.656,442.016,407.893,437.856,403.733z" fill="#134921"/>
		</g>
	</g>
</g>
<g>
	<g>
		<path d="M372.256,199.083c-2.347-5.419-8.619-7.893-14.016-5.589l-19.605,8.405c-5.419,2.325-7.915,8.597-5.611,14.016    c1.749,4.053,5.696,6.464,9.813,6.464c1.408,0,2.837-0.256,4.203-0.875l19.605-8.405    C372.064,210.773,374.56,204.501,372.256,199.083z" fill="#134921"/>
	</g>
</g>
<g>
	<g>
		<path d="M437.621,171.115c-2.347-5.461-8.64-7.957-14.016-5.611l-32.683,14.016c-5.419,2.325-7.915,8.597-5.611,13.995    c1.749,4.053,5.696,6.464,9.813,6.464c1.408,0,2.837-0.277,4.203-0.853l32.683-14.016    C437.429,182.784,439.925,176.512,437.621,171.115z" fill="#134921"/>
	</g>
</g>
<g>
	<g>
		<path d="M489.888,148.693c-2.347-5.44-8.64-7.893-14.016-5.611l-19.605,8.405c-5.419,2.325-7.915,8.597-5.611,14.016    c1.749,4.053,5.696,6.464,9.813,6.464c1.429,0,2.837-0.277,4.203-0.853l19.605-8.405    C489.696,160.384,492.192,154.112,489.888,148.693z" fill="#134921"/>
	</g>
</g>
<g>
	<g>
		<path d="M196.106,275.691c-1.771-5.589-7.701-8.704-13.376-6.933c-3.904,1.259-96.171,31.552-162.155,141.76    c-3.029,5.077-1.387,11.605,3.669,14.635c1.707,1.045,3.605,1.515,5.483,1.515c3.627,0,7.147-1.856,9.152-5.205    c61.632-102.912,149.461-132.096,150.336-132.373C194.805,287.275,197.898,281.28,196.106,275.691z" fill="#134921"/>
	</g>
</g>
<g>
	<g>
		<path d="M177.717,16.256l-4.203-9.792c-2.304-5.44-8.619-7.872-13.995-5.589c-5.419,2.304-7.915,8.576-5.589,13.995l4.224,9.792    c1.728,4.053,5.675,6.464,9.792,6.464c1.408,0,2.816-0.277,4.203-0.853C177.568,27.947,180.064,21.675,177.717,16.256z" fill="#134921"/>
	</g>
</g>
<g>
	<g>
		<g>
			<path d="M199.733,67.499l-7.339-17.088c-2.325-5.419-8.619-7.872-13.995-5.589c-5.419,2.325-7.915,8.597-5.589,14.016     l7.339,17.067c1.728,4.053,5.675,6.464,9.792,6.464c1.408,0,2.837-0.277,4.203-0.853     C199.562,79.189,202.058,72.917,199.733,67.499z" fill="#134921"/>
			<path d="M221.706,118.72l-7.339-17.067c-2.325-5.44-8.597-7.893-13.995-5.589c-5.419,2.325-7.915,8.597-5.589,14.016     l7.339,17.067c1.728,4.053,5.675,6.464,9.792,6.464c1.408,0,2.837-0.277,4.203-0.875     C221.536,130.411,224.032,124.117,221.706,118.72z" fill="#134921"/>
		</g>
	</g>
</g>
<g>
	<g>
		<path d="M240.586,162.709l-4.181-9.792c-2.304-5.44-8.64-7.957-13.995-5.632c-5.419,2.304-7.936,8.576-5.632,13.995l4.181,9.792    c1.728,4.053,5.675,6.485,9.813,6.485c1.387,0,2.837-0.256,4.181-0.853C240.373,174.379,242.89,168.128,240.586,162.709z" fill="#134921"/>
	</g>
</g>
<g>
	<g>
		<path d="M316.234,339.179l-8.405-19.605c-2.325-5.419-8.555-7.893-14.016-5.611c-5.419,2.325-7.915,8.597-5.611,14.016    l8.405,19.605c1.749,4.053,5.696,6.464,9.813,6.464c1.387,0,2.837-0.277,4.203-0.853    C316.021,350.869,318.538,344.597,316.234,339.179z" fill="#134921"/>
	</g>
</g>
<g>
	<g>
		<path d="M344.245,404.544l-14.016-32.683c-2.325-5.44-8.661-7.893-14.016-5.611c-5.419,2.325-7.915,8.597-5.611,14.016    l14.016,32.683c1.749,4.053,5.696,6.464,9.813,6.464c1.429,0,2.837-0.277,4.203-0.853    C344.053,416.235,346.549,409.963,344.245,404.544z" fill="#134921"/>
	</g>
</g>
<g>
	<g>
		<path d="M366.645,456.811l-8.405-19.605c-2.325-5.397-8.533-7.915-14.016-5.611c-5.419,2.325-7.915,8.597-5.611,14.016    l8.405,19.605c1.749,4.053,5.696,6.464,9.813,6.464c1.387,0,2.837-0.256,4.203-0.853    C366.432,468.501,368.949,462.229,366.645,456.811z" fill="#134921"/>
	</g>
</g>
<g>
	<g>
		<g>
			<path d="M315.872,116.565c-5.44-2.197-11.648,0.491-13.845,5.952l-15.851,39.616c-2.197,5.461,0.448,11.669,5.931,13.867     c1.301,0.533,2.645,0.768,3.968,0.768c4.245,0,8.235-2.539,9.877-6.72l15.851-39.616     C324,124.971,321.354,118.763,315.872,116.565z" fill="#134921"/>
			<path d="M335.882,66.581c-5.397-2.197-11.648,0.448-13.845,5.931l-4.16,10.389c-2.197,5.461,0.448,11.669,5.931,13.867     c1.301,0.533,2.624,0.768,3.968,0.768c4.224,0,8.213-2.517,9.877-6.699l4.16-10.389C344.01,74.987,341.365,68.779,335.882,66.581     z" fill="#134921"/>
		</g>
	</g>
</g>
<g>
	<g>
		<path d="M227.146,338.475c-5.397-2.197-11.648,0.448-13.845,5.931L197.45,384c-2.197,5.44,0.448,11.648,5.931,13.845    c1.301,0.512,2.645,0.768,3.968,0.768c4.224,0,8.235-2.56,9.899-6.72l15.829-39.573    C235.274,346.88,232.629,340.672,227.146,338.475z" fill="#134921"/>
	</g>
</g>
<g>
	<g>
		<path d="M99.509,167.893l-9.899-3.968c-5.419-2.176-11.669,0.469-13.845,5.952c-2.176,5.483,0.469,11.691,5.952,13.867    l9.877,3.947c1.301,0.533,2.645,0.768,3.968,0.768c4.224,0,8.235-2.517,9.899-6.699    C107.637,176.299,104.992,170.091,99.509,167.893z" fill="#134921"/>
	</g>
</g>
<g>
	<g>
		<path d="M147.338,187.029l-15.936-6.379c-5.461-2.197-11.669,0.469-13.845,5.931c-2.197,5.461,0.448,11.669,5.931,13.867    l15.915,6.379c1.301,0.533,2.645,0.768,3.968,0.768c4.224,0,8.235-2.539,9.899-6.699    C155.466,195.413,152.821,189.205,147.338,187.029z" fill="#134921"/>
	</g>
</g>
<g>
	<g>
		<path d="M189.13,203.755l-9.899-3.968c-5.461-2.24-11.669,0.448-13.867,5.931c-2.197,5.461,0.448,11.669,5.909,13.867l9.899,3.968    c1.323,0.533,2.645,0.768,3.989,0.768c4.224,0,8.235-2.539,9.877-6.699C197.237,212.16,194.592,205.952,189.13,203.755z" fill="#134921"/>
	</g>
</g>
<g>
	<g>
		<path d="M367.392,275.051l-19.819-7.936c-5.397-2.176-11.648,0.448-13.845,5.931c-2.197,5.461,0.448,11.669,5.931,13.867    l19.819,7.936c1.301,0.512,2.624,0.768,3.968,0.768c4.224,0,8.213-2.539,9.877-6.699    C375.52,283.456,372.874,277.248,367.392,275.051z" fill="#134921"/>
	</g>
</g>
<g>
	<g>
		<path d="M433.397,301.483l-33.024-13.205c-5.461-2.219-11.669,0.469-13.845,5.931c-2.197,5.44,0.448,11.648,5.931,13.845    l33.024,13.205c1.301,0.512,2.645,0.768,3.968,0.768c4.245,0,8.235-2.539,9.877-6.699    C441.525,309.888,438.88,303.68,433.397,301.483z" fill="#134921"/>
	</g>
</g>
<g>
	<g>
		<path d="M486.24,322.603l-19.797-7.915c-5.44-2.197-11.648,0.491-13.845,5.931c-2.197,5.44,0.448,11.648,5.931,13.845    l19.776,7.915c1.301,0.512,2.645,0.768,3.968,0.768c4.224,0,8.235-2.539,9.899-6.699    C494.368,331.008,491.722,324.8,486.24,322.603z" fill="#134921"/>
	</g>
</g>
<g>
</g>
<g>
</g>
<g>
</g>
<g>
</g>
<g>
</g>
<g>
</g>
<g>
</g>
<g>
</g>
<g>
</g>
<g>
</g>
<g>
</g>
<g>
</g>
<g>
</g>
<g>
</g>
<g>
</g>
</svg>
