<svg id="Capa_1" data-name="Capa 1" xmlns="http://www.w3.org/2000/svg" viewBox="0 0 469.46 469.97"><title>guitar</title><path d="M251.33,181.57l-9.6-9.6c-18.4-18.4-48.8-18.4-68,0l-22.4,22.4c-14.4,14.4-33.6,24.8-53.6,29.6l-11.2,2.4C26.53,240-11.07,300,3.33,360c4.8,20,15.2,39.2,29.6,53.6L55.33,436c43.2,43.2,114.4,43.2,157.6,0,14.4-14.4,24.8-33.6,29.6-53.6l2.4-11.2c4.8-20,15.2-39.2,29.6-53.6l22.4-22.4c18.4-18.4,18.4-48.8,0-68l-8.8-8.8" transform="translate(-0.26)" fill="#134921"/><path d="M297.73,228l-9.6-9.6-11.2-11.2a483.12,483.12,0,0,1-24,44.8c10.4,28.79-4.8,60.79-34.4,71.19a67.39,67.39,0,0,1-21.6,3.21,362.84,362.84,0,0,1-154.4,98.39l12.8,12.8c43.2,43.2,114.4,43.2,157.6,0,14.4-14.4,24.8-33.6,29.6-53.6l2.4-11.2c4.8-20,15.2-39.2,29.6-53.6l22.4-22.4c20-20,20-50.39.8-68.79Z" transform="translate(-0.26)" fill="#0d3017"/><path d="M384.13,53.58l-185.6,185.6,32,32,185.6-185.6Z" transform="translate(-0.26)" fill="#aca798"/><circle cx="199.87" cy="269.58" r="40" fill="#e5dfca"/><path d="M64.23,341.56,76.1,329.68,140,393.6l-11.88,11.88Z" transform="translate(-0.26)" fill="#e5dfca"/><path d="M356.15,81.32,384.43,53l32.24,32.25-28.28,28.28Z" transform="translate(-0.26)" fill="#e5dfca"/><path d="M424.13,5.57a20.87,20.87,0,0,1,13.6,5.6L458.53,32a20.87,20.87,0,0,1,5.6,13.6,20.87,20.87,0,0,1-5.6,13.6L421.73,96a19.31,19.31,0,0,1-27.2,0l-20.8-20.8a20.87,20.87,0,0,1-5.6-13.6,20.87,20.87,0,0,1,5.6-13.6l36.8-36.8A20.87,20.87,0,0,1,424.13,5.57Z" transform="translate(-0.26)" fill="#aca798"/><path d="M378.55,11.31,389.87,0,405.7,15.84,394.39,27.15Z" transform="translate(-0.26)" fill="#0d3017"/><path d="M354.55,35.31,365.87,24,381.7,39.84,370.39,51.15Z" transform="translate(-0.26)" fill="#0d3017"/><path d="M442.57,75.31,453.88,64l15.84,15.84L458.4,91.15Z" transform="translate(-0.26)" fill="#0d3017"/><path d="M418.56,99.31,429.87,88l15.84,15.83L434.4,115.15Z" transform="translate(-0.26)" fill="#0d3017"/></svg>