<svg id="Capa_1" data-name="Capa 1" xmlns="http://www.w3.org/2000/svg" viewBox="0 0 512 512"><title>hands</title><circle cx="256" cy="256" r="256" fill="#134921"/><path d="M512,256a258,258,0,0,0-3.89-44.68L300.68,3.89Q298,3.41,295.21,3l-1.91-.28c-1.37-.2-2.75-.39-4.13-.57l-2.28-.28c-1.26-.15-2.53-.3-3.8-.43l-2.38-.24c-1.26-.12-2.51-.23-3.77-.33l-2.4-.19C273.26.58,272,.5,270.69.43L268.38.3c-1.4-.07-2.8-.11-4.21-.16-.66,0-1.31-.05-2-.06Q259.11,0,256,0c-2,0-3.91,0-5.85.07l-1.62,0c-1.65,0-3.29.1-4.94.18l-1,0c-1.87.09-3.73.21-5.59.35l-1.77.14q-2.19.18-4.38.39l-1.44.14q-2.77.28-5.53.63l-1.4.18-2.28.32V92.33a13.5,13.5,0,0,1-3.53,9.35c-8.27,8.56-21.81,21.82-28.48,28.85-5.91,6.23-8.19,13-7.08,19.09a17.73,17.73,0,0,0,3.48,7.7,10.48,10.48,0,0,0,1.62,1.7l27.06,26.57c-.64,5.87-1.13,11-1.35,14.44-.72,11.32,2,17,5.41,19.7l66,65.9a8.64,8.64,0,0,0-1.72.86,11.18,11.18,0,0,0-3.13,3.24l-15.75-15.57a10,10,0,0,0-8.1-4.36h0a10.42,10.42,0,0,0-8.13,4,14.16,14.16,0,0,0-2.15,3.84l-59.24-59.11c-2.36-3.9-7.93-7.33-20.48-6.52-3.21.2-7.87.64-13.24,1.21l-27.87-27a10.48,10.48,0,0,0-1.6-1.51,18,18,0,0,0-7.71-3.48c-6.11-1.1-12.85,1.17-19.08,7.09-7,6.67-20.29,20.21-28.85,28.48a13.52,13.52,0,0,1-9.35,3.53H2.5c-.14,1-.29,1.94-.41,2.91,0,.12,0,.24,0,.36q-.39,3.1-.71,6.23a2.45,2.45,0,0,0,0,.27Q1,232.86.8,235.7c0,.34-.05.69-.08,1q-.23,3-.38,6c0,.14,0,.28,0,.42-.09,1.81-.15,3.63-.2,5.45,0,.49,0,1,0,1.49C0,252.06,0,254,0,256s0,4.14.08,6.2c0,.66,0,1.31.06,2,0,1.41.1,2.82.16,4.23,0,.76.09,1.52.13,2.28.07,1.3.15,2.6.25,3.89,0,.79.11,1.58.18,2.38.1,1.25.21,2.51.33,3.76l.24,2.41q.2,1.84.42,3.66c.1.83.19,1.65.29,2.47.15,1.14.32,2.27.48,3.4.39,2.7.81,5.4,1.28,8.07L211.29,508.1A257.34,257.34,0,0,0,256,512C397.39,512,512,397.39,512,256Z" fill="#0d3017"/><path d="M316,337.06c-12.23,38.46-15.12,66.09-15.29,67.82V508.11a258.9,258.9,0,0,1-80.46,1.41V419.67a13.5,13.5,0,0,0-3.53-9.35c-8.27-8.56-21.81-21.82-28.48-28.85-5.91-6.23-8.19-13-7.08-19.09a17.73,17.73,0,0,1,3.48-7.7,9.76,9.76,0,0,1,7.62-4c4.92-.16,10.45,3,15.52,8.83,2.55,2.93,7.44,8,11,11.6-1.75-13.5-6-46.89-6.77-59.15-1-15.75,4.65-20.52,9.56-21.74a8.14,8.14,0,0,1,6.47,1.24c2.52,1.68,5.81,5.56,7.19,14.5.58,3.73,1.42,8.79,2.33,14.06,1.67,9.72,3.55,20.14,4.29,24.22a1.09,1.09,0,0,0,.29.6.29.29,0,0,0,.19.11c.14,0,.49-.35.49-1V287.52c0-6.93,1.61-11.17,3.7-13.76a10.42,10.42,0,0,1,8.13-4h0c6.86,0,11.84,7.28,11.85,17.34v57.12a.92.92,0,0,0,.41.88c.06,0,.3-.19.38-.61.11-.59.24-1.29.38-2.08.44-2.5,1-5.89,1.64-9.64.13-.77.26-1.56.39-2.36.78-4.75,1.6-9.86,2.31-14.34s1.33-8.49,1.66-10.66a64.52,64.52,0,0,1,2-9.32c.26-.87.55-1.68.84-2.45,1.36-3.47,3.06-5.82,5.14-7.19a8.12,8.12,0,0,1,6.78-1c9.2,2.44,7.8,13.2,6.32,24.58-.76,5.88-1.84,13.14-2.87,19.86-.74,4.76-1.45,9.25-2,12.76-.32,2-.59,3.67-.79,5,0,.17-.06.33-.08.49a2.46,2.46,0,0,0,0,.26,1,1,0,0,0,.4.85s.25-.1.36-.45c1.12-3.5,3.05-9.49,5.14-15.7,2.15-6.37,4.44-13,6.17-17.29,2.35-5.91,5.29-9.49,8.74-10.66a7.75,7.75,0,0,1,6.59.81C323.59,310.33,321.79,318.78,316,337.06Z" fill="#ff9a00"/><path d="M316,337.06c-12.23,38.46-15.12,66.09-15.29,67.82V508.11A256.61,256.61,0,0,1,257.9,512V270.39c5.11,1.93,8.56,8.38,8.57,16.75v57.12c0,.59.33.89.41.89s.29-.19.38-.62c1.42-7.52,5.35-32.15,6.37-39.08,1.54-10.37,4.07-16.39,8-19a8.08,8.08,0,0,1,6.78-1c9.2,2.44,7.8,13.2,6.32,24.58-.94,7.3-2.38,16.76-3.61,24.62-.47,3-.9,5.69-1.26,8-.32,2-.59,3.67-.79,5,0,.17-.06.33-.08.49a2.46,2.46,0,0,0,0,.26,1,1,0,0,0,.4.85s.24-.1.36-.45C291,345,293.2,338,295.53,331.13c1.94-5.71,4-11.4,5.49-15.27,2.35-5.91,5.29-9.49,8.74-10.66a7.72,7.72,0,0,1,6.59.81,8.9,8.9,0,0,1,4.16,5C322.19,316.13,320.09,324.14,316,337.06Z" fill="#e67500"/><path d="M316.35,206a7.75,7.75,0,0,1-6.59.81c-3.45-1.17-6.39-4.75-8.74-10.66-1.73-4.33-4-10.92-6.17-17.29-2.09-6.21-4-12.2-5.14-15.7-.11-.35-.32-.46-.36-.45a1,1,0,0,0-.4.85,2.46,2.46,0,0,0,0,.26c0,.16,0,.32.08.49.2,1.33.47,3,.79,5,.55,3.51,1.26,8,2,12.76,1,6.72,2.11,14,2.87,19.86,1.48,11.38,2.88,22.14-6.32,24.58a8.12,8.12,0,0,1-6.78-1c-2.08-1.37-3.78-3.72-5.14-7.19-.29-.77-.58-1.58-.84-2.45a64.52,64.52,0,0,1-2-9.32c-.33-2.17-.93-6.08-1.66-10.66s-1.53-9.59-2.31-14.34c-.13-.8-.26-1.59-.39-2.36-.62-3.75-1.2-7.14-1.64-9.64-.14-.79-.27-1.49-.38-2.08-.08-.42-.32-.61-.38-.61a.92.92,0,0,0-.41.88v57.12c0,10.06-5,17.35-11.85,17.34h0a10.42,10.42,0,0,1-8.13-4c-2.09-2.59-3.7-6.83-3.7-13.76V168c0-.64-.35-1-.49-1a.29.29,0,0,0-.19.11,1.09,1.09,0,0,0-.29.6c-.74,4.08-2.62,14.5-4.29,24.22-.91,5.27-1.75,10.33-2.33,14.06-1.38,8.94-4.67,12.82-7.19,14.5a8.14,8.14,0,0,1-6.47,1.24c-4.91-1.22-10.56-6-9.56-21.74.78-12.26,5-45.65,6.77-59.15-3.52,3.6-8.41,8.67-11,11.6-5.07,5.84-10.6,9-15.52,8.83a9.76,9.76,0,0,1-7.62-4,17.73,17.73,0,0,1-3.48-7.7c-1.11-6.11,1.17-12.86,7.08-19.09,6.67-7,20.21-20.29,28.48-28.85a13.5,13.5,0,0,0,3.53-9.35V2.48a258.9,258.9,0,0,1,80.46,1.41V107.12c.17,1.73,3.06,29.36,15.29,67.82C321.79,193.22,323.59,201.67,316.35,206Z" fill="#ffdca8"/><path d="M320.51,201a8.9,8.9,0,0,1-4.16,5,7.72,7.72,0,0,1-6.59.81c-3.45-1.17-6.39-4.75-8.74-10.66-1.54-3.87-3.55-9.56-5.49-15.27C293.2,174,291,167,289.71,163.15c-.12-.35-.32-.46-.36-.45a1,1,0,0,0-.4.85,2.46,2.46,0,0,0,0,.26c0,.16,0,.32.08.49.2,1.33.47,3,.79,5,.36,2.31.79,5,1.26,8,1.23,7.86,2.67,17.32,3.61,24.62,1.48,11.38,2.88,22.14-6.32,24.58a8.08,8.08,0,0,1-6.78-1c-3.91-2.57-6.44-8.59-8-19-1-6.93-4.95-31.56-6.37-39.08-.09-.43-.32-.62-.38-.62s-.41.3-.41.89v57.12c0,8.37-3.46,14.82-8.57,16.75V0a256.61,256.61,0,0,1,42.78,3.88V107.12c.17,1.73,3.06,29.36,15.29,67.82C320.09,187.86,322.19,195.87,320.51,201Z" fill="#ffc56e"/><path d="M131.4,266.9c0,.07.2.31.62.39l2.08.38c2.5.44,5.89,1,9.64,1.64l2.36.38c4.75.79,9.86,1.61,14.34,2.32s8.49,1.33,10.66,1.66a63,63,0,0,1,9.31,2c.88.26,1.69.54,2.46.84,3.47,1.36,5.82,3.05,7.19,5.14a8.08,8.08,0,0,1,1,6.78c-2.43,9.19-13.19,7.8-24.57,6.32-5.88-.76-13.14-1.84-19.86-2.87l-12.76-2c-2-.32-3.67-.59-5-.79l-.49-.08a1.18,1.18,0,0,0-.26,0,.94.94,0,0,0-.85.4s.1.25.45.36c3.49,1.12,9.49,3.05,15.7,5.14,6.37,2.14,13,4.44,17.29,6.16,5.91,2.36,9.49,5.3,10.66,8.75a7.75,7.75,0,0,1-.81,6.59c-4.32,7.23-12.77,5.44-31-.38C101,303.77,73.4,300.88,71.67,300.71H3.9a259,259,0,0,1-1.43-80.46H56.88a13.52,13.52,0,0,0,9.35-3.53c8.56-8.27,21.82-21.81,28.85-28.48,6.23-5.92,13-8.19,19.08-7.09a18,18,0,0,1,7.71,3.48,9.79,9.79,0,0,1,4,7.62c.15,4.93-3,10.46-8.83,15.53-2.93,2.55-8,7.44-11.6,11,13.5-1.76,46.89-6,59.15-6.77,15.75-1,20.51,4.64,21.73,9.55a8.11,8.11,0,0,1-1.23,6.48c-1.68,2.51-5.56,5.81-14.5,7.18-3.73.58-8.79,1.43-14.06,2.34-9.72,1.67-20.14,3.55-24.22,4.28a1.19,1.19,0,0,0-.6.29.35.35,0,0,0-.11.19c0,.15.35.5,1,.5H189c6.94,0,11.18,1.61,13.76,3.69h0a10.4,10.4,0,0,1,4,8.17c0,6.86-7.29,11.85-17.34,11.85H132.29A1,1,0,0,0,131.4,266.9Z" fill="#ffc473"/><path d="M131.4,266.91c0,.06.19.29.62.38,7.52,1.42,32.15,5.34,39.07,6.37,10.38,1.54,16.4,4.07,19,8a8,8,0,0,1,1,6.78c-2.43,9.19-13.19,7.8-24.57,6.32-7.3-.94-16.76-2.39-24.63-3.62l-8-1.25c-2-.32-3.67-.59-5-.79l-.49-.08a1.18,1.18,0,0,0-.26,0,.94.94,0,0,0-.85.4s.1.24.45.36c3.87,1.23,10.82,3.48,17.72,5.82,5.71,1.94,11.4,3.94,15.27,5.48,5.91,2.36,9.49,5.3,10.66,8.75a7.72,7.72,0,0,1-.81,6.59,8.92,8.92,0,0,1-5,4.15c-5.11,1.68-13.12-.42-26-4.53C101,303.77,73.4,300.87,71.67,300.71H3.9A255.56,255.56,0,0,1,0,257.93H206.16c-1.93,5.11-8.38,8.56-16.75,8.56H132.29C131.7,266.5,131.4,266.83,131.4,266.91Z" fill="#ffaa20"/><path d="M512,256a256.37,256.37,0,0,1-3.9,44.71H440.33c-1.73.17-29.36,3.06-67.82,15.29-18.28,5.82-26.73,7.61-31.05.38a7.75,7.75,0,0,1-.81-6.59c1.17-3.45,4.75-6.39,10.66-8.75,4.33-1.72,10.92-4,17.29-6.16,6.21-2.09,12.21-4,15.7-5.14.35-.11.47-.32.45-.36a.94.94,0,0,0-.85-.4,1.18,1.18,0,0,0-.26,0l-.49.08c-1.33.2-3,.47-5,.79l-12.76,2c-6.72,1-14,2.11-19.86,2.87-11.38,1.48-22.14,2.87-24.57-6.32a8.08,8.08,0,0,1,1-6.78c1.37-2.09,3.72-3.78,7.19-5.14.77-.3,1.58-.58,2.46-.84a63,63,0,0,1,9.31-2c2.17-.33,6.08-.93,10.66-1.66s9.59-1.53,14.34-2.32l2.36-.38c3.75-.63,7.14-1.2,9.64-1.64l2.08-.38c.42-.08.62-.32.62-.39a1,1,0,0,0-.89-.4H322.59c-10,0-17.35-5-17.34-11.85a10.4,10.4,0,0,1,4-8.17h0c2.58-2.08,6.82-3.69,13.76-3.69h56.44c.64,0,1-.35,1-.5a.35.35,0,0,0-.11-.19,1.19,1.19,0,0,0-.6-.29c-4.08-.73-14.5-2.61-24.22-4.28-5.27-.91-10.33-1.76-14.06-2.34-8.94-1.37-12.82-4.67-14.5-7.18a8.11,8.11,0,0,1-1.23-6.48c1.22-4.91,6-10.56,21.73-9.55,12.26.78,45.65,5,59.15,6.77-3.6-3.52-8.67-8.41-11.6-11-5.84-5.07-9-10.6-8.83-15.53a9.79,9.79,0,0,1,4-7.62,18,18,0,0,1,7.71-3.48c6.11-1.1,12.85,1.17,19.08,7.09,7,6.67,20.29,20.21,28.85,28.48a13.52,13.52,0,0,0,9.35,3.53h54.41A258.61,258.61,0,0,1,512,256Z" fill="#9a4c00"/><path d="M512,257.93a255.56,255.56,0,0,1-3.89,42.78H440.33c-1.73.16-29.36,3.06-67.82,15.29-12.92,4.11-20.93,6.21-26,4.53a8.92,8.92,0,0,1-5-4.15,7.72,7.72,0,0,1-.81-6.59c1.17-3.45,4.75-6.39,10.66-8.75,3.87-1.54,9.56-3.54,15.27-5.48,6.9-2.34,13.85-4.59,17.72-5.82.35-.12.47-.32.45-.36a.94.94,0,0,0-.85-.4,1.18,1.18,0,0,0-.26,0l-.49.08c-1.33.2-3,.47-5,.79l-8,1.25c-7.87,1.23-17.33,2.68-24.63,3.62-11.38,1.48-22.14,2.87-24.57-6.32a8,8,0,0,1,1-6.78c2.57-3.91,8.59-6.44,19-8,6.92-1,31.55-5,39.07-6.37.43-.09.62-.32.62-.38s-.3-.41-.89-.41H322.59c-8.37,0-14.82-3.45-16.75-8.56H512Z" fill="#703700"/></svg>