<?xml version="1.0" encoding="utf-8"?>
<!-- Generator: Adobe Illustrator 22.1.0, SVG Export Plug-In . SVG Version: 6.00 Build 0)  -->
<svg version="1.1" id="Layer_1" xmlns="http://www.w3.org/2000/svg" xmlns:xlink="http://www.w3.org/1999/xlink" x="0px" y="0px"
	 viewBox="0 0 512 458.7" style="enable-background:new 0 0 512 458.7;" xml:space="preserve">
<style type="text/css">
	.st0{fill:#134921;}
	.st1{fill:#415E72;}
	.st2{fill:#72CDED;}
	.st3{fill:#67C2DB;}
	.st4{fill:#FEC95B;}
	.st5{fill:#E2AD50;}
	.st6{fill:#E5DFCA;}
	.st7{fill:#ACA798;}
	.st8{fill:#375160;}
	.st9{fill:#B7B1A2;}
	.st10{fill:#9E5A39;}
	.st11{fill:#AD653D;}
	.st12{fill:#4D4D4D;}
	.st13{fill:#0D3017;}
	.st14{fill:#FFFFFF;}
</style>
<title>heart</title>
<path class="st0" d="M436.2,186.4c0,43.8-27.9,87-66.7,124.3c-19.9,19.1-42.6,36.6-65.9,51.9c-7.7,5-15.5,9.8-23.2,14.3
	c-8.2,4.7-16.3,9.2-24.3,13.3c-8-4.1-16.2-8.5-24.3-13.3c-5.6-3.2-11.1-6.6-16.7-10.1c-10.8-6.8-21.5-14.2-31.9-21.9
	c-5.8-4.3-11.5-8.8-17.1-13.4c-8.1-6.7-16-13.6-23.5-20.8c-38.8-37.3-66.7-80.5-66.7-124.3c0-65.1,44.8-117.8,100.1-117.8
	c44.2,0,80.1,42.2,80.1,94.3c0-52.1,35.9-94.3,80.1-94.3c32.3,0,61,18,79.3,46C428.5,134.4,436.2,159.4,436.2,186.4z"/>
<path class="st1" d="M231.7,284.8v92c-16.8-9.8-33-20.5-48.6-32.1c-5.8-4.3-11.5-8.8-17.1-13.4c-8.1-6.7-16-13.6-23.5-20.8v-25.8
	c0-14.5,8.8-27.5,22.2-33h44.8C222.9,257.3,231.7,270.3,231.7,284.8z"/>
<path class="st2" d="M369.5,263.5v47.2c-19.9,19.1-42.6,36.6-65.9,51.9c-7.7,5-15.5,9.8-23.2,14.3V263.5c0-12.2,6.2-23.6,16.6-30.1
	c1.8-1.1,3.6-2.1,5.6-2.9h44.8c1.9,0.8,3.8,1.8,5.6,2.9C363.2,239.9,369.5,251.3,369.5,263.5z"/>
<rect x="321.7" y="238.7" class="st3" width="5.7" height="112.2"/>
<path class="st4" d="M303.6,331.4v31.1c-15.4,10-31.2,19.2-47.6,27.6c-8-4.1-16.2-8.5-24.3-13.3c-5.6-3.3-11.1-6.6-16.7-10.1v-35.3
	c1.6-12.8,10-23.7,21.9-28.6h44.8C293.6,307.8,301.9,318.7,303.6,331.4L303.6,331.4z"/>
<path class="st5" d="M243.7,376.9c-5.6-3.2-11.1-6.6-16.7-10.1v-35.3c1.6-12.8,10-23.7,21.9-28.6h-12c-11.9,4.9-20.3,15.8-21.9,28.6
	v35.3c5.6,3.5,11.1,6.9,16.7,10.1c8.2,4.7,16.3,9.2,24.3,13.3c2-1,4-2.1,6-3.1C255.9,383.8,249.8,380.4,243.7,376.9z"/>
<path class="st3" d="M352.9,233.4l-15,10.9c-7.8,5.7-18.3,5.7-26.1,0l-15-10.9c1.8-1.1,3.6-2.1,5.6-2.9h44.8
	C349.3,231.3,351.1,232.2,352.9,233.4z"/>
<path class="st6" d="M311.8,237.3l-15.2-11c-8.8-6.4-13.5-17-12.2-27.8l2-17.7c2.2-19.7,18.8-34.6,38.6-34.6l0,0
	c19.8,0,36.4,14.9,38.6,34.6l2,17.7c1.2,10.8-3.5,21.4-12.3,27.8l-15.2,11C330.2,242.9,319.6,242.9,311.8,237.3z"/>
<path class="st6" d="M231.7,284.8h-89.2c0-11.8,5.9-22.9,15.7-29.5c2-1.4,4.2-2.5,6.5-3.5h44.8c2.3,0.9,4.4,2.1,6.5,3.5
	C225.8,261.9,231.7,273,231.7,284.8z"/>
<path class="st5" d="M289,306.9c-0.5,0.4-1,0.7-1.5,1.1l-15.2,11c-7.8,5.7-18.3,5.7-26.1,0l-15.2-11c-0.5-0.4-1-0.7-1.5-1.1
	c2.3-1.6,4.7-3,7.3-4.1h44.8C284.2,303.9,286.7,305.3,289,306.9z"/>
<path class="st6" d="M287.5,298.6l-15.2,11c-7.8,5.7-18.3,5.7-26.1,0l-15.2-11c-8.8-6.4-13.5-17-12.3-27.8l2-17.7
	c0.1-1.1,0.3-2.1,0.5-3.1c0.2-1.2,0.5-2.4,0.9-3.6c4.8-16.1,19.3-27.3,36.1-27.8h0.1c0.1,0,0.2,0,0.4,0h0.8c0.4,0,0.7,0,1,0
	c0.3,0,0.5,0,0.8,0c16.5,0.8,30.7,11.9,35.4,27.8c0.4,1.2,0.7,2.4,0.9,3.6c0.2,1,0.4,2.1,0.5,3.1l2,17.7
	C301,281.6,296.3,292.2,287.5,298.6z"/>
<path class="st7" d="M324.9,241.5c-4.7,0-9.2-1.5-13-4.2l-15.2-11.1c-8.8-6.4-13.5-17-12.2-27.8l2-17.7c2.1-19.4,18.4-34.2,38-34.6
	c-13.4,0.5-24.6,15.2-26.1,34.6l-1.4,17.7c-0.8,10.8,2.4,21.4,8.5,27.8l10.5,11.1C318.5,240.1,321.7,241.5,324.9,241.5z"/>
<path class="st7" d="M259.2,313.9c-4.7,0-9.2-1.5-13-4.2L231,298.6c-8.8-6.4-13.5-17-12.3-27.8l2-17.7c2.1-19.4,18.4-34.2,38-34.6
	c-13.5,0.5-24.7,15.2-26.1,34.6l-1.4,17.7c-0.8,10.8,2.4,21.4,8.5,27.8l10.5,11.1C252.9,312.5,256.1,313.9,259.2,313.9z"/>
<path class="st1" d="M363.1,178.1c-26.7,3.3-59.4-9.8-70.5-14.7c11.9-17.8,36-22.6,53.9-10.7C355.2,158.6,361.2,167.7,363.1,178.1z"
	/>
<path class="st8" d="M312.1,170.8c0,0-11.2,17.3-26.6,17.3l0.8-7.4c0.7-6.2,2.8-12.1,6.3-17.3C296.7,165.2,303.6,168.1,312.1,170.8z
	"/>
<path class="st9" d="M216,255.3l-0.6,0.5l-15.2,11.1c-7.8,5.6-18.3,5.6-26.1,0l-15.2-11.1l-0.6-0.5c2-1.4,4.2-2.5,6.5-3.5h44.8
	C211.8,252.8,213.9,253.9,216,255.3z"/>
<path class="st6" d="M174,258.6l-15.2-11c-8.8-6.4-13.5-17-12.3-27.8l2-17.7c2.2-19.7,18.8-34.6,38.6-34.6l0,0
	c19.8,0,36.4,14.9,38.6,34.6l2,17.7c1.2,10.8-3.5,21.4-12.3,27.8l-15.2,11C192.3,264.3,181.8,264.3,174,258.6z"/>
<path class="st7" d="M187.1,262.9c-4.7,0-9.2-1.5-13-4.2l-15.2-11.1c-8.8-6.4-13.5-17-12.3-27.8l2-17.7c2.1-19.4,18.4-34.2,38-34.6
	c-13.5,0.5-24.7,15.2-26.1,34.6l-1.4,17.7c-0.8,10.8,2.4,21.4,8.5,27.8l10.5,11.1C180.7,261.5,183.9,262.9,187.1,262.9z"/>
<path class="st10" d="M187.1,167.5c0,0-4.3,34.6-38.6,34.6C150.7,182.4,167.3,167.5,187.1,167.5z"/>
<path class="st11" d="M225.7,202.1c-34.3,0-38.6-34.6-38.6-34.6C206.9,167.5,223.5,182.4,225.7,202.1z"/>
<path class="st12" d="M169.3,225.9c-2.5,0-4.5-2-4.5-4.5l0,0v-4.1c0-2.5,2-4.5,4.5-4.5c2.5,0,4.5,2,4.5,4.5v4.1
	C173.8,223.9,171.7,225.9,169.3,225.9L169.3,225.9z"/>
<path class="st12" d="M204.9,225.9c-2.5,0-4.5-2-4.5-4.5l0,0v-4.1c0-2.5,2-4.5,4.5-4.5c2.5,0,4.5,2,4.5,4.5v4.1
	C209.4,223.9,207.4,225.9,204.9,225.9L204.9,225.9z"/>
<path class="st12" d="M241.4,277.9c-2.5,0-4.5-2-4.5-4.5l0,0v-4.1c-0.1-2.5,1.8-4.6,4.3-4.7c2.5-0.1,4.6,1.8,4.7,4.3
	c0,0.1,0,0.2,0,0.4v4.1C245.9,275.9,243.9,277.9,241.4,277.9z"/>
<path class="st12" d="M277.1,277.9c-2.5,0-4.5-2-4.5-4.5l0,0v-4.1c0-2.5,2-4.5,4.5-4.5s4.5,2,4.5,4.5v4.1
	C281.6,275.9,279.6,277.9,277.1,277.9z"/>
<path class="st7" d="M297.4,250c-4.6-0.3-9-1.3-13.2-3.2c-14.2,12.6-35.6,12.6-49.8,0c-1.3,0.6-2.6,1.1-3.9,1.5
	c-3,1-6.1,1.5-9.3,1.7c0.2-1.2,0.5-2.4,0.9-3.6c4.8-16.1,19.3-27.3,36.1-27.8h1.2h1c0.3,0,0.5,0,0.8,0c16.5,0.8,30.7,11.9,35.4,27.8
	C296.9,247.6,297.2,248.8,297.4,250z"/>
<path class="st1" d="M296.5,246.4c-0.6,0-1.1,0.1-1.7,0.1c-4.7,0-9.3-1-13.5-2.9c-12.6,11.1-31.5,11.1-44.1,0
	c-1.1,0.5-2.3,0.9-3.5,1.3c-3.3,1-6.7,1.6-10.1,1.6c-0.6,0-1.1,0-1.7-0.1c4.8-16.1,19.3-27.3,36.1-27.8c0.2,0,0.3,0,0.5,0h0.7
	C276.5,218.6,291.6,229.9,296.5,246.4L296.5,246.4z"/>
<path class="st8" d="M258.6,218.6c-11.4,0.4-21.3,11.2-24.8,26.3c-3.3,1-6.7,1.6-10.1,1.6c-0.6,0-1.1,0-1.7-0.1
	c4.8-16.1,19.3-27.3,36.1-27.8C258.3,218.6,258.4,218.6,258.6,218.6z"/>
<path class="st13" d="M256,396.3c-1,0-1.9-0.2-2.8-0.7c-8.2-4.2-16.5-8.7-24.6-13.4c-5.9-3.4-11.6-6.9-16.9-10.3
	c-11.1-7-22-14.5-32.3-22.2c-6-4.5-11.8-9-17.3-13.5c-8.4-6.9-16.4-14-23.8-21.1C93.4,272,69.7,227.5,69.7,186.4
	c0-68.4,47.7-124,106.3-124c36.3,0,67.4,26.2,80.1,63.2c12.7-37,43.8-63.2,80.1-63.2c33.4,0,64.2,17.8,84.5,48.8
	c14.3,21.7,21.8,47.7,21.8,75.2c0,41.1-23.7,85.6-68.6,128.7c-19.2,18.5-41.7,36.2-66.8,52.6c-7.7,5-15.6,9.9-23.5,14.5
	c-8.1,4.7-16.4,9.2-24.6,13.4C258,396,257,396.3,256,396.3z M175.9,74.7c-51.8,0-94,50.1-94,111.7c0,26.3,11.2,68.4,64.8,119.8
	c7.1,6.9,14.9,13.8,23.1,20.5c5.3,4.4,11,8.8,16.9,13.2c10.1,7.5,20.7,14.8,31.5,21.7c5.2,3.3,10.7,6.7,16.5,10
	c7,4.1,14.1,8,21.2,11.7c7.1-3.7,14.3-7.6,21.2-11.7c7.7-4.5,15.5-9.3,23-14.2c24.5-16,46.4-33.2,65-51.1
	c53.6-51.4,64.8-93.5,64.8-119.8c0-25.1-6.8-48.8-19.8-68.5c-18-27.4-45-43.2-74.2-43.2c-40.8,0-73.9,39.5-73.9,88.2
	c0.1,3.4-2.5,6.2-5.9,6.4c-3.4,0.1-6.2-2.5-6.4-5.9c0-0.1,0-0.3,0-0.4C249.8,114.2,216.7,74.7,175.9,74.7z"/>
<path class="st14" d="M176.9,234.9c0,5.7,4.6,10.2,10.2,10.2c5.6,0,10.2-4.6,10.2-10.2"/>
<path class="st14" d="M249,288.9c0.2,5.7,4.9,10.1,10.5,10c5.4-0.1,9.8-4.5,10-10"/>
<path class="st12" d="M307.1,203.4c-2.5,0-4.5-2-4.5-4.5v-4.1c-0.1-2.5,1.8-4.6,4.3-4.7c2.5-0.1,4.6,1.8,4.7,4.3c0,0.1,0,0.2,0,0.4
	v4.1C311.6,201.3,309.6,203.4,307.1,203.4L307.1,203.4z"/>
<path class="st12" d="M342.7,203.4c-2.5,0-4.5-2-4.5-4.5l0,0v-4.1c0-2.5,2-4.5,4.5-4.5c2.5,0,4.5,2,4.5,4.5v4.1
	C347.2,201.3,345.2,203.4,342.7,203.4L342.7,203.4z"/>
<path class="st14" d="M314.7,214.4c0.2,5.7,4.9,10.1,10.5,10c5.4-0.1,9.8-4.5,10-10"/>
</svg>
