<?xml version="1.0"?>
<svg xmlns="http://www.w3.org/2000/svg" height="512px" viewBox="-2 0 512 512.00025" width="512px"><g fill-rule="evenodd"><path d="m270.96875 295.714844c5.523438 0 10-4.476563 10-10v-88.480469c0-5.519531-4.476562-10-10-10h-89.371094c-5.523437 0-10 4.480469-10 10v88.480469c0 5.523437 4.476563 10 10 10zm-79.371094-88.480469h69.371094v68.480469h-69.371094zm0 0" fill="#134921"/><path d="m505.046875 494.925781-56.101563-56.101562c14.402344-17.597657 22.230469-39.433594 22.230469-62.476563 0-44.632812-29.742187-82.445312-70.445312-94.679687v-74.433594h41.835937c5.523438 0 10-4.480469 10-10v-27.707031c0-3.175782-1.507812-6.160156-4.0625-8.046875l-216.285156-159.527344c-3.527344-2.605469-8.34375-2.605469-11.871094 0l-75.949218 56.019531c-4.445313 3.277344-5.390626 9.539063-2.113282 13.984375 3.277344 4.445313 9.539063 5.390625 13.984375 2.109375l70.015625-51.640625 206.28125 152.152344v12.65625h-41.835937c-5.523438 0-10 4.476563-10 10v80.628906c-2.769531-.234375-5.570313-.359375-8.402344-.359375-11.003906 0-21.824219 1.800782-32.15625 5.355469-5.222656 1.796875-8 7.484375-6.207031 12.710937 1.796875 5.222657 7.488281 7.996094 12.710937 6.203126 8.234375-2.835938 16.867188-4.273438 25.652344-4.273438 43.476563 0 78.847656 35.371094 78.847656 78.847656 0 21.0625-8.203125 40.859375-23.09375 55.753906-14.890625 14.894532-34.691406 23.09375-55.753906 23.09375-43.472656 0-78.84375-35.371093-78.84375-78.847656 0-8.789062 1.433594-17.417968 4.269531-25.652344 1.792969-5.222656-.980468-10.914062-6.207031-12.710937-5.21875-1.796875-10.910156.984375-12.707031 6.203125-3.554688 10.335938-5.355469 21.152344-5.355469 32.160156 0 2.832032.125 5.628906.359375 8.402344h-202.007812v-187.515625c0-5.519531-4.476563-10-10-10h-41.835938v-12.652344l71.886719-53.023437c4.445312-3.277344 5.390625-9.539063 2.109375-13.984375-3.277344-4.441407-9.535156-5.390625-13.980469-2.109375l-75.953125 56.019531c-2.554688 1.882813-4.0625 4.871094-4.0625 8.046875v27.703125c0 5.523437 4.476562 10 10 10h41.835938v187.515625c0 5.523438 4.476562 10 10 10h215.8125c12.234374 40.707031 50.046874 70.449219 94.683593 70.449219 23.039063 0 44.875-7.832031 62.472657-22.234375l56.101562 56.105468c1.953125 1.953126 4.511719 2.929688 7.070312 2.929688 2.5625 0 5.121094-.976562 7.074219-2.929688 3.902344-3.90625 3.902344-10.238281-.003906-14.144531zm0 0" fill="#134921"/><path d="m118.144531 99.765625c5.507813 0 10-4.492187 10-10s-4.492187-10-10-10c-5.507812 0-10 4.492187-10 10s4.492188 10 10 10zm0 0" fill="#134921"/><path d="m319.507812 313.527344c0-5.507813-4.492187-10-10-10-5.511718 0-10 4.492187-10 10 0 5.507812 4.488282 10 10 10 5.507813 0 10-4.492188 10-10zm0 0" fill="#134921"/></g></svg>
