<svg id="5dc8bf6d-efb7-4f91-b8b4-e871266b1bef" data-name="Layer 2" xmlns="http://www.w3.org/2000/svg" viewBox="0 0 512 456.89"><title>infa</title><path d="M129.31,307.59H75.84c15,15.93,59.7,63.13,59.7,63.13l-13.37,91.46a19.46,19.46,0,0,0,38.51,5.63L175.42,367a19.45,19.45,0,0,0-5.14-16.2Z" transform="translate(0 -27.55)" fill="#134921"/><path d="M16.72,307.08A16.69,16.69,0,0,1,.45,286.56l14.43-61.4a16.69,16.69,0,0,1,5.56-9L80.2,166.32A16.7,16.7,0,0,1,101.6,192L46.12,238.24,33,294.2A16.71,16.71,0,0,1,16.72,307.08Z" transform="translate(0 -27.55)" fill="#e5dfca"/><path d="M103.72,168.45a16.69,16.69,0,0,0-23.52-2.13L43.81,196.66l19.54,27.21L101.6,192A16.7,16.7,0,0,0,103.72,168.45Z" transform="translate(0 -27.55)" fill="#0e3318"/><path d="M274.19,122a8.49,8.49,0,0,1,5.48-10.68l23.8-7.85-13.09-5.1a8.5,8.5,0,0,1-4.35-12l13.54-24.46-14.9,7.91a8.48,8.48,0,0,1-10.83-2.49l-8.48-11.6-6.75,18.41a8.5,8.5,0,0,1-12.69,4.13l-29.3-19.58,8.69,20.88a8.48,8.48,0,0,1-4.87,11.21l-13.56,5.06,27.46,10.24A8.49,8.49,0,1,1,228.4,122l-48.79-18.2a8.49,8.49,0,0,1,0-15.91L206.24,78,190.16,39.3A8.49,8.49,0,0,1,202.72,29l43.66,29.19L254.88,35a8.49,8.49,0,0,1,14.82-2.09l13.51,18.47,33.64-17.86a8.5,8.5,0,0,1,11.42,11.61l-22.68,41,26.29,10.25a8.49,8.49,0,0,1-.48,16l-46.53,15.17A8.49,8.49,0,0,1,274.19,122Z" transform="translate(0 -27.55)" fill="#c8e6eb"/><path d="M50.82,302.39,50,307,30,462.49a19.46,19.46,0,1,0,38.59,5L90.67,311.39a15.61,15.61,0,0,0-1.51-9Z" transform="translate(0 -27.55)" fill="#185b2b"/><path d="M137.71,316.52,50,307,72,181.07c2.36-13.55,14.79-22.7,27.76-20.44l41.53,7.24a23.38,23.38,0,0,1,15.46,10.24,25.49,25.49,0,0,1,3.68,18.78Z" transform="translate(0 -27.55)" fill="#103d1d"/><circle cx="137.58" cy="88.74" r="36.87" fill="#e5dfca"/><path d="M135.15,212.57a16.71,16.71,0,0,1-7-31.9l73.36-33.53L237.1,96.37a16.7,16.7,0,0,1,27.36,19.16L226.31,170a16.69,16.69,0,0,1-6.74,5.61l-77.49,35.42A16.62,16.62,0,0,1,135.15,212.57Z" transform="translate(0 -27.55)" fill="#e5dfca"/><path d="M171.75,160.76l-43.56,19.91a16.7,16.7,0,1,0,13.89,30.38L185,191.46Z" transform="translate(0 -27.55)" fill="#0e3318"/><path d="M495.28,306.89A16.71,16.71,0,0,1,479,294l-13.15-56-55.47-46.26a16.7,16.7,0,0,1,21.39-25.66L491.56,216a16.65,16.65,0,0,1,5.56,9l14.44,61.39a16.7,16.7,0,0,1-12.44,20.08A16.36,16.36,0,0,1,495.28,306.89Z" transform="translate(0 -27.55)" fill="#e5dfca"/><path d="M468.08,196.38,431.8,166.12a16.71,16.71,0,0,0-21.4,25.66l37.22,31Z" transform="translate(0 -27.55)" fill="#1d7238"/><path d="M462.63,307.59H424.05a19.75,19.75,0,0,0,0,5l20,154.91a19.46,19.46,0,1,0,38.59-5Z" transform="translate(0 -27.55)" fill="#134921"/><path d="M380.36,307.59l-12.5,56.56c-.11.5-.2,1-.28,1.51l-13.5,96.63a19.45,19.45,0,0,0,16.58,22,19.2,19.2,0,0,0,2.71.19,19.46,19.46,0,0,0,19.25-16.76L406,371.8l14.2-64.21H380.36Z" transform="translate(0 -27.55)" fill="#185b2b"/><path d="M377.11,322.26l85.51-14.91L440.67,181.47c-2.36-13.55-14.4-22.77-26.88-20.6l-40.31,7c-12.48,2.18-20.68,14.93-18.32,28.48Z" transform="translate(0 -27.55)" fill="#1c6531"/><circle cx="375.06" cy="89.14" r="36.87" fill="#e5dfca"/><path d="M377.5,213a16.62,16.62,0,0,1-6.93-1.52L293.08,176a16.77,16.77,0,0,1-6.74-5.61l-38.16-54.49a16.71,16.71,0,0,1,27.37-19.17l35.55,50.78,73.36,33.53a16.71,16.71,0,0,1-7,31.9Z" transform="translate(0 -27.55)" fill="#e5dfca"/><path d="M384.46,181.07l-37-16.91-13.56,30.53,36.66,16.76a16.7,16.7,0,0,0,13.89-30.38Z" transform="translate(0 -27.55)" fill="#1d7238"/></svg>