<svg id="efe88583-5d97-41c7-b461-6977e8cb8ddf" data-name="Layer 1" xmlns="http://www.w3.org/2000/svg" viewBox="0 0 51.46 50.5"><title>mev</title><g id="a906fbae-72a1-4c6b-9760-b6e71b38da10" data-name="Layer 2"><path d="M41,1.89A15.23,15.23,0,1,0,56.19,17.12,15.22,15.22,0,0,0,41,1.89Zm0,26.82a11.59,11.59,0,1,1,11.6-11.59A11.59,11.59,0,0,1,41,28.71Z" transform="translate(-4.73 -1)" fill="#134921"/><path d="M27.4,1l5.42.7-.38,17,11.11-.89L42.66,23l-10.09-.26L33,50.1l-5.11,1.4.45-28.67L18.08,23l-.51-5.23,10.72,1.15Z" transform="translate(-4.73 -1)" fill="#081a0d"/><path d="M21.59,9.43A16.86,16.86,0,1,0,38.44,26.28,16.85,16.85,0,0,0,21.59,9.43Zm0,29.68A12.83,12.83,0,1,1,34.42,26.28,12.82,12.82,0,0,1,21.59,39.11Z" transform="translate(-4.73 -1)" fill="#134921"/><path d="M18.08,23l-.51-5.23,10.72,1.15L27.4,1l5.42.7-.38,17" transform="translate(-4.73 -1)" fill="#081a0d"/></g></svg>