<?xml version="1.0" encoding="utf-8"?>
<!-- Generator: Adobe Illustrator 22.1.0, SVG Export Plug-In . SVG Version: 6.00 Build 0)  -->
<svg version="1.1" id="Capa_1" xmlns="http://www.w3.org/2000/svg" xmlns:xlink="http://www.w3.org/1999/xlink" x="0px" y="0px"
	 viewBox="0 0 32 57" style="enable-background:new 0 0 32 57;" xml:space="preserve">
<style type="text/css">
	.st0{fill:none;stroke:#134921;stroke-width:2;stroke-linecap:round;stroke-miterlimit:10;}
	.st1{fill:#E5DFCA;}
	.st2{fill:#ACA798;}
</style>
<title>micro</title>
<path class="st0" d="M27.3,28v4.5c0,6.2-5,11.3-11.3,11.3s-11.3-5-11.3-11.3V28"/>
<path class="st1" d="M16,40L16,40c-4.1,0-7.5-3.4-7.5-7.5v-18C8.5,10.4,11.9,7,16,7l0,0c4.1,0,7.5,3.4,7.5,7.5v18
	C23.5,36.6,20.1,40,16,40z"/>
<line class="st0" x1="16" y1="43.8" x2="16" y2="49"/>
<polyline class="st0" points="20.5,49 16,49 11.5,49 "/>
<path class="st2" d="M23.5,32.5v-18c0-4.1-3.4-7.5-7.5-7.5v33C20.1,40,23.5,36.6,23.5,32.5z"/>
</svg>
