<svg id="Layer_1" data-name="Layer 1" xmlns="http://www.w3.org/2000/svg" viewBox="0 0 289.6 502.54"><title>mobile</title><path d="M117.2,91V56c0-23,13.4-40.2,34.6-44.5a57.16,57.16,0,0,1,10.9-.8q93.45,0,187,0c26.8,0,45,18,45,44.8V317" transform="translate(-111.2 -4.66)" fill="none" stroke="#134921" stroke-linecap="round" stroke-linejoin="round" stroke-width="12"/><path d="M394.8,337v.3" transform="translate(-111.2 -4.66)" fill="none" stroke="#134921" stroke-linecap="round" stroke-linejoin="round" stroke-width="12"/><path d="M394.8,356.3V456.4c0,26.7-18.2,44.7-45,44.8H162.3c-27.1,0-45-18.1-45-45.2V117" transform="translate(-111.2 -4.66)" fill="none" stroke="#134921" stroke-linecap="round" stroke-linejoin="round" stroke-width="12"/><path d="M256.1,426.8a21.25,21.25,0,1,1-21.4,21.1A21,21,0,0,1,256.1,426.8Z" transform="translate(-111.2 -4.66)" fill="none" stroke="#134921" stroke-miterlimit="10" stroke-width="10"/><path d="M286.7,58.1H225.2a5.12,5.12,0,0,1-5.1-5.1h0a5.12,5.12,0,0,1,5.1-5.1h61.5a5.12,5.12,0,0,1,5.1,5.1h0A5.12,5.12,0,0,1,286.7,58.1Z" transform="translate(-111.2 -4.66)" fill="#134921"/></svg>