<svg id="Layer_1" data-name="Layer 1" xmlns="http://www.w3.org/2000/svg" viewBox="0 0 56.67 56.68"><title>net</title><path d="M38.54,8.32A27.84,27.84,0,1,0,66.38,36.16,27.83,27.83,0,0,0,38.54,8.32Z" transform="translate(-10.2 -7.82)" fill="none" stroke="#134921" stroke-miterlimit="10"/><path d="M53,36.68H63.24v-1H53a45.15,45.15,0,0,0-1.77-12A44.69,44.69,0,0,0,58.07,21l-.68-.83A48.78,48.78,0,0,1,51,22.64a43.12,43.12,0,0,0-4.6-9.93c-.52-.15-1-.31-1.51-.47A43.86,43.86,0,0,1,50,22.9a43.53,43.53,0,0,1-10.82,1.51V11.46h-1v13A45.47,45.47,0,0,1,27.36,23a45.24,45.24,0,0,1,5.12-10.76,13.5,13.5,0,0,0-1.52.47,43.44,43.44,0,0,0-4.59,10,47.11,47.11,0,0,1-6.53-2.51l-.68.83a40.36,40.36,0,0,0,6.9,2.67,45.09,45.09,0,0,0-1.78,12H13.83v1H24.17a44,44,0,0,0,2,12.8,47.13,47.13,0,0,0-6.63,2.51,10.85,10.85,0,0,0,.73.83,46,46,0,0,1,6.27-2.35,44.66,44.66,0,0,0,4.33,9.19c.52.16,1,.32,1.52.47a43.49,43.49,0,0,1-4.86-9.92A42.83,42.83,0,0,1,38,48.75V60.81h1v-12a43.65,43.65,0,0,1,10.55,1.41,42.15,42.15,0,0,1-4.86,9.87c.52-.15,1-.31,1.52-.47a44.26,44.26,0,0,0,4.33-9.14,48.88,48.88,0,0,1,6.17,2.3c.26-.26.47-.52.73-.83a44.72,44.72,0,0,0-6.58-2.51A42.72,42.72,0,0,0,53,36.68ZM38,47.76A43.51,43.51,0,0,0,27.2,49.22a43.1,43.1,0,0,1-2-12.48H38Zm0-12.12H25.22a45.36,45.36,0,0,1,1.72-11.7,45.63,45.63,0,0,0,11,1.52V35.64Zm1-10.18a46.11,46.11,0,0,0,11.12-1.52,41.34,41.34,0,0,1,1.73,11.7H39.06ZM50,49.22a44.31,44.31,0,0,0-10.92-1.46V36.68H52.12A45.7,45.7,0,0,1,50,49.22Z" transform="translate(-10.2 -7.82)" fill="#134921"/></svg>