<svg id="bfadab00-5418-4c24-a4d2-521d8f36252d" data-name="Layer 1" xmlns="http://www.w3.org/2000/svg" viewBox="0 0 994 994"><title>partilharcom</title><circle cx="497" cy="497" r="497" fill="#134921"/><g id="7b08a083-efbe-46c6-8e51-40f567ccc4fb" data-name="Layer 2"><path d="M328.53,930q8.93-3.74,17.93-7.28t18.11-6.83c6.06-2.21,12.14-4.38,18.27-6.41s12.29-4,18.46-5.86q37.05-11.21,74.31-21.66l37.26-10.49c6.21-1.76,12.46-3.36,18.71-5,3.13-.8,6.26-1.6,9.41-2.36s6.33-1.51,9.59-2,6.44-1,9.62-1.41a74.08,74.08,0,0,0,9.27-1.7,75.69,75.69,0,0,0,8.9-3.19,44.46,44.46,0,0,1,9.71-2.68,35.67,35.67,0,0,1,5.09-.46c1.71,0,3.38.1,5,.2a63.77,63.77,0,0,0,9.37,0c3-.24,6.11-1,9.36-1.55s6.48-1,9.72-1.35a87.45,87.45,0,0,1,9.87-.51c1.64,0,3.18,0,4.74,0s3.13-.19,4.71-.36a139.33,139.33,0,0,0,18.78-3.22,85,85,0,0,0,17.81-6.23c1.41-.7,2.79-1.47,4.28-2.23a29.78,29.78,0,0,1,4.74-2,35.71,35.71,0,0,1,5-1.16,46.19,46.19,0,0,1,5-.58c3.37-.25,6.67,0,9.69-.12a35.24,35.24,0,0,0,4.56-.55c1.52-.3,3-.66,4.56-1.09a39.62,39.62,0,0,0,8.66-3.22,23.69,23.69,0,0,0,6.95-5.59c1.85-2.23,3.14-5.18,4.79-8a70.6,70.6,0,0,1,5.44-8.27,74.4,74.4,0,0,1,6.53-7.41c2.33-2.32,4.68-4.49,7.12-6.69a59.66,59.66,0,0,1,7.87-6c2.77-1.75,5.45-3.39,8.05-5.24s5.11-3.8,7.64-5.81,5-4,7.48-6.06a63.58,63.58,0,0,0,6.85-6.56,47.3,47.3,0,0,0,5.45-7.69c1.6-2.72,2.86-5.66,4.36-8.58a43.35,43.35,0,0,1,5.45-8.23,60.13,60.13,0,0,1,14.74-12.84,34.26,34.26,0,0,1,4.4-2.23,42.5,42.5,0,0,0,4.35-1.91,16.54,16.54,0,0,0,3.64-2.89,19.5,19.5,0,0,0,2.85-3.73,45.36,45.36,0,0,0,3.65-8.82c1-3.07,2-6.14,2.72-9.25a26.3,26.3,0,0,0,.74-4.73,7.52,7.52,0,0,0-.93-4.56c-1.58-2.8-4.54-4.57-7.57-5.55,3.06.89,6.11,2.56,7.83,5.4a7.93,7.93,0,0,1,1.13,4.73,27,27,0,0,1-.61,4.84c-.66,3.18-1.63,6.26-2.52,9.37a45.56,45.56,0,0,1-3.53,9.1,20.72,20.72,0,0,1-2.91,4,18,18,0,0,1-3.84,3.19,40.13,40.13,0,0,1-4.44,2.08,32.77,32.77,0,0,0-4.17,2.24,58.4,58.4,0,0,0-14,12.79,46.48,46.48,0,0,0-2.77,3.83q-1.26,2-2.32,4.12c-1.4,2.83-2.65,5.86-4.28,8.73a49.45,49.45,0,0,1-5.6,8.14,66.22,66.22,0,0,1-7,6.91c-2.46,2.14-5,4.19-7.46,6.23s-5,4.09-7.68,6-5.42,3.69-8.08,5.42a57,57,0,0,0-7.41,5.82c-4.69,4.37-9.32,8.78-13,13.84a70.87,70.87,0,0,0-5.12,7.92c-.77,1.38-1.48,2.8-2.27,4.25a24.7,24.7,0,0,1-10.75,10.85,43.09,43.09,0,0,1-9.41,3.6c-1.54.44-3.19.85-4.83,1.19a40.6,40.6,0,0,1-5,.64c-3.42.2-6.58-.07-9.64.18a44.66,44.66,0,0,0-4.61.58,31.92,31.92,0,0,0-4.44,1,25.41,25.41,0,0,0-4.16,1.76c-1.38.71-2.82,1.51-4.3,2.25a70.87,70.87,0,0,1-9.16,3.82c-3.11,1.05-6.28,2-9.45,2.75A143.37,143.37,0,0,1,646.32,853c-1.63.17-3.27.31-4.94.39s-3.35.07-4.93.05A81.06,81.06,0,0,0,627,854c-3.17.32-6.32.73-9.44,1.28s-6.31,1.31-9.72,1.58a67.34,67.34,0,0,1-10-.06c-1.63-.11-3.18-.22-4.68-.2a31.74,31.74,0,0,0-4.54.39,40.57,40.57,0,0,0-8.9,2.45,78,78,0,0,1-9.32,3.29,75.43,75.43,0,0,1-9.74,1.78c-3.21.43-6.37.83-9.53,1.34s-6.21,1.18-9.35,1.91-6.24,1.5-9.36,2.28c-6.24,1.58-12.5,3.13-18.71,4.85l-37.34,10.06c-24.93,6.58-49.79,13.5-74.58,20.58C377,912.32,352.66,920.87,328.53,930Z" transform="translate(-17.53 -15)" fill="#fff"/><path d="M657.53,796a115.78,115.78,0,0,0,12.69-2.53,112.07,112.07,0,0,0,12.31-3.9,118.21,118.21,0,0,0,11.78-5.24,93.56,93.56,0,0,0,11-6.66q2.61-1.84,5.1-3.87c1.67-1.35,3.33-2.76,5.09-4.08a66.5,66.5,0,0,1,11.3-6.81c4-1.89,8.05-3.38,12.1-4.94s8.16-3,12.3-4.31q3.11-1,6.24-1.92c2.06-.64,4.24-1.16,6.18-1.81A52.14,52.14,0,0,0,775,744.68c7.2-4.39,13.68-10,20.09-15.78l9.58-8.71q4.74-4.35,9.28-8.92,9.06-9.15,17.26-19.09a293.66,293.66,0,0,0,29.25-42.32c8.52-14.91,16-30.51,21.25-46.8,1.31-4.08,2.4-8.23,3.62-12.42a72.77,72.77,0,0,1,4.75-12.29A129.81,129.81,0,0,1,896.59,567a89.32,89.32,0,0,0,6-11.32,70.83,70.83,0,0,0,4.06-12.13,60.43,60.43,0,0,0,1.69-12.7,50.4,50.4,0,0,0-1.38-12.75A53.35,53.35,0,0,0,902.53,506a53.54,53.54,0,0,1,5,12,51.08,51.08,0,0,1,1.85,12.91,62.53,62.53,0,0,1-1.28,13,71.68,71.68,0,0,1-3.72,12.57,89,89,0,0,1-5.82,11.74c-2.22,3.75-4.34,7.42-6.14,11.28a74.53,74.53,0,0,0-4.34,12c-1.12,4.12-2.15,8.36-3.4,12.54-5,16.74-12.52,32.55-20.94,47.74a292.78,292.78,0,0,1-29.47,43q-8.34,10-17.58,19.3-4.62,4.61-9.44,9c-3.21,2.91-6.41,5.82-9.67,8.68-6.53,5.7-13.18,11.42-20.81,16a54.77,54.77,0,0,1-12.18,5.43c-2.17.68-4.21,1.12-6.29,1.72s-4.13,1.16-6.19,1.79q-6.17,1.86-12.24,4c-4,1.47-8.13,2.91-12,4.61a64.29,64.29,0,0,0-11,6.28c-3.42,2.47-6.76,5.36-10.45,7.72a95.19,95.19,0,0,1-11.4,6.4,121.18,121.18,0,0,1-12.09,4.88,109.27,109.27,0,0,1-12.53,3.49A113.86,113.86,0,0,1,657.53,796Z" transform="translate(-17.53 -15)" fill="#fff"/><path d="M665.53,748a51.89,51.89,0,0,1,12.59-8.57,46.24,46.24,0,0,1,7.18-2.7,51.54,51.54,0,0,1,7.54-1.4,42.2,42.2,0,0,0,14.39-4c4.47-2.27,8.77-5,13.17-7.56s8.91-4.9,13.39-7.3l13.49-7.13,6.74-3.56,6.79-3.47,13.6-6.95,6.79-3.47c2.28-1.14,4.6-2.2,6.91-3.27s4.62-2.07,6.83-3.21,4.48-2.35,6.7-3.54a93.86,93.86,0,0,0,12.73-7.79,39.1,39.1,0,0,0,5.35-4.93,19.18,19.18,0,0,0,2.11-2.75,27.56,27.56,0,0,0,1.59-3.17c1-2.27,2-4.68,3-7s2.15-4.66,3.29-7c2.29-4.59,4.61-9.07,7-13.59a105.52,105.52,0,0,1,8.15-13.19c1.56-2.09,3.17-4.1,4.91-6.06a57.29,57.29,0,0,1,5.64-5.49,35.86,35.86,0,0,0,5.23-5,37.5,37.5,0,0,0,4-6,45.61,45.61,0,0,0,2.7-6.78l2.3-7.23,4.65-14.53c1.57-4.83,3.12-9.67,4.79-14.49.85-2.42,1.69-4.83,2.69-7.25.49-1.2,1.06-2.44,1.64-3.57s1.16-2.31,1.77-3.45c1.24-2.27,2.57-4.51,4-6.66s2.88-4.22,4.07-6.32a33.52,33.52,0,0,0,2.91-6.63c.72-2.32,1.37-4.79,1.86-7.18a39.65,39.65,0,0,0,.41-14.56,26.52,26.52,0,0,0-2-6.89,32.1,32.1,0,0,0-1.79-3.18,29.15,29.15,0,0,1-1.91-3.5,24.1,24.1,0,0,1-1.32-3.8,16.74,16.74,0,0,1-.68-4,51.3,51.3,0,0,1,.42-7.81c.58-5.1,1.36-10.12,2.14-15.14s1.69-10,2.33-15a44.37,44.37,0,0,0,.4-7.45,44.94,44.94,0,0,0-.92-7.41,20.47,20.47,0,0,0-2.62-6.85,14.94,14.94,0,0,0-5.31-4.95,18.64,18.64,0,0,0-7-2.21,19.77,19.77,0,0,0-7.4.72,35.84,35.84,0,0,0-3.57,1.23,29.7,29.7,0,0,0-3.44,1.59,30.35,30.35,0,0,0-6.15,4.42,30.31,30.31,0,0,1,6-4.69,29.63,29.63,0,0,1,3.42-1.73,34.32,34.32,0,0,1,3.57-1.4,20.19,20.19,0,0,1,7.65-1,19.64,19.64,0,0,1,7.47,2.11,16.11,16.11,0,0,1,5.87,5.17,21.7,21.7,0,0,1,3,7.22,44.08,44.08,0,0,1,1,15.41c-.53,5.11-1.37,10.11-2,15.14s-1.38,10.05-1.85,15.06a50.06,50.06,0,0,0-.29,7.39,15,15,0,0,0,.66,3.46,21,21,0,0,0,1.24,3.36,26.32,26.32,0,0,0,1.79,3.15,35,35,0,0,1,2,3.42,29.54,29.54,0,0,1,2.41,7.63,42.44,42.44,0,0,1-.14,15.73,73.76,73.76,0,0,1-1.88,7.59,36.84,36.84,0,0,1-3.13,7.32c-1.3,2.32-2.78,4.41-4.11,6.53s-2.61,4.24-3.78,6.44c-.57,1.11-1.14,2.21-1.68,3.34s-1,2.21-1.5,3.37c-.92,2.29-1.73,4.67-2.54,7.06-3.18,9.59-6.28,19.3-9.3,29l-2.3,7.29a49.05,49.05,0,0,1-2.92,7.37,41.12,41.12,0,0,1-4.42,6.68A39.69,39.69,0,0,1,858,614a52,52,0,0,0-5.28,5.11c-1.64,1.83-3.21,3.77-4.7,5.75a101.72,101.72,0,0,0-7.88,12.69c-2.38,4.43-4.75,9-7,13.46-1.13,2.25-2.2,4.52-3.25,6.81s-2,4.58-3,7a29,29,0,0,1-1.87,3.62,22.35,22.35,0,0,1-2.54,3.26,42.46,42.46,0,0,1-5.89,5.33,96.73,96.73,0,0,1-13.29,8c-2.27,1.19-4.49,2.35-6.8,3.51s-4.69,2.19-7,3.19-4.63,2-6.92,3.12l-6.83,3.34-13.67,6.68-6.83,3.34-6.79,3.43-13.58,6.88c-4.52,2.3-9.09,4.52-13.5,7s-8.81,5-13.48,7.21A43.37,43.37,0,0,1,693,736.38a50.13,50.13,0,0,0-7.46,1.15,47.37,47.37,0,0,0-7.14,2.45A51.43,51.43,0,0,0,665.53,748Z" transform="translate(-17.53 -15)" fill="#fff"/><path d="M477.53,794a96.32,96.32,0,0,1,16.24-15.33,103.62,103.62,0,0,1,9.32-6.31c3.22-1.92,6.55-3.63,9.86-5.32l10-4.85c3.36-1.56,6.68-3.18,10.07-4.66,6.74-3,13.55-6,20.54-8.53-6.24,4-12.66,7.75-19.15,11.32-3.22,1.82-6.51,3.5-9.77,5.26l-9.88,5a181.3,181.3,0,0,0-19.18,10.6C489.37,785.15,483.42,789.46,477.53,794Z" transform="translate(-17.53 -15)" fill="#fff"/><path d="M313.53,848a87.65,87.65,0,0,0,14.79,5.77,61.88,61.88,0,0,0,15.55,2.29,54.72,54.72,0,0,0,7.8-.39,34,34,0,0,0,7.48-1.86c4.94-1.79,10-3.67,15.05-5.32,10.12-3.37,20.45-6.26,30.82-8.69a153,153,0,0,0,15.13-4.4c2.49-.85,5-1.74,7.41-2.69s4.8-2,7.28-3.1c5-2.12,10.08-3.83,15.15-5.49s10.3-3.11,15.33-4.54a52,52,0,0,0,7.24-2.64c2.35-1.07,4.65-2.29,6.93-3.6s4.58-2.74,7.13-3.89a42.59,42.59,0,0,1,7.86-2.6,54.41,54.41,0,0,1,16.25-1.16c5.29.29,10.6.47,15.91.61,10.62.38,21.25.44,31.89.7l-8,.43-8,.33c-5.32.2-10.64.38-16,.5s-10.65.12-16,.06a67.48,67.48,0,0,0-7.81.21,46.54,46.54,0,0,0-7.6,1.35,39.25,39.25,0,0,0-7.19,2.61c-2.27,1.09-4.47,2.5-6.78,3.88s-4.69,2.69-7.16,3.88a57.24,57.24,0,0,1-7.67,3c-2.59.81-5.14,1.5-7.67,2.26s-5,1.55-7.55,2.37c-5,1.67-10,3.39-14.8,5.45-2.41,1-4.89,2.13-7.42,3.1s-5.05,1.86-7.59,2.71a143.54,143.54,0,0,1-15.52,4.38c-5.21,1.15-10.33,2.32-15.45,3.68s-10.22,2.78-15.29,4.29c-2.54.75-5.06,1.55-7.58,2.37s-5,1.69-7.6,2.47a36.9,36.9,0,0,1-8,1.66,53.71,53.71,0,0,1-8.12.06A68.34,68.34,0,0,1,313.53,848Z" transform="translate(-17.53 -15)" fill="#fff"/><path d="M590.53,737q12.76-9.27,26.15-17.65c8.9-5.59,18-11,27.27-15.87,4.66-2.44,9.36-4.81,14.19-6.93s9.8-3.88,14.72-5.72q14.77-5.49,29.46-11.24c9.8-3.83,19.55-7.73,29.2-11.89,2.42-1,4.88-2,7.39-2.9s5-1.64,7.52-2.42c5-1.56,10.14-2.92,15.15-4.42a37.46,37.46,0,0,0,23.61-18.62c2.61-4.52,5-9.21,7.45-13.86s4.92-9.3,7.43-13.93q7.51-13.87,15.36-27.57t16-27.24c2.7-4.51,5.46-9,7.85-13.59A84.5,84.5,0,0,0,845,528.71a120.52,120.52,0,0,0,3.82-15.13,106.11,106.11,0,0,0,1.63-15.49c.15-5.17-.16-10.47.15-15.8a130.77,130.77,0,0,1,1.81-15.81c.91-5.21,1.88-10.36,2.9-15.54q.78-3.88,1.62-7.75c.56-2.57,1.16-5.14,1.62-7.66.22-1.26.39-2.51.49-3.76s.08-2.52.06-3.81a58.64,58.64,0,0,0-.6-7.67,30,30,0,0,0-11-19.1,25.52,25.52,0,0,0-6.44-3.74c-4.62-1.89-9.76-2.75-14.47-1.52a19.59,19.59,0,0,0-6.55,3.13,33.23,33.23,0,0,0-5.49,5.14c-1.68,1.92-3.26,4-4.8,6.08s-3.09,4.19-4.47,6.37a98.12,98.12,0,0,0-12.4,28.29c-.34,1.24-.58,2.51-.87,3.77s-.46,2.53-.69,3.8c-.42,2.56-.79,5.18-1.17,7.77l-1.1,7.79-.5,3.89c-.14,1.28-.34,2.62-.35,3.76a54.8,54.8,0,0,1-.5,8.13,18.3,18.3,0,0,1-3.51,7.88,35.75,35.75,0,0,1-6.07,5.63l-6.21,4.88-6.19,4.87-3.06,2.45c-.49.41-1,.82-1.45,1.22l-.3.28a2.84,2.84,0,0,0-.23.26l-.59.71a20.59,20.59,0,0,0-3.52,6.38c-.86,2.38-1.71,5-2.79,7.47a70.78,70.78,0,0,1-3.68,7.21c-1.37,2.33-2.71,4.53-4.24,6.8a22.61,22.61,0,0,1-13.44,9.79,33.74,33.74,0,0,1-8.22,1.08c-1.35,0-2.69,0-4,0s-2.58,0-3.87.11A104.66,104.66,0,0,0,701,552.83a131.65,131.65,0,0,0-15,4c-2.47.8-4.92,1.68-7.38,2.58s-4.92,1.8-7.24,2.82a46.56,46.56,0,0,0-6.71,3.59,75.26,75.26,0,0,1-7,4c-2.4,1.22-4.84,2.32-7.29,3.34s-4.89,2-7.37,3a134.19,134.19,0,0,1-30.89,8.05c-2.67.35-5.4.49-8,.57l-7.86.3c-5.23.25-10.46.54-15.69,1l-15.67,1.31-3.91.33c-1.31.1-2.62.22-3.9.39s-2.57.32-3.86.52-2.56.39-3.84.62a178.08,178.08,0,0,0-30,8.32c-4.93,1.77-9.83,3.64-14.75,5.5l-14.76,5.57c-9.85,3.69-19.72,7.36-29.63,10.91-4.95,1.78-9.95,3.51-14.9,5.22-2.49.85-4.84,1.74-7.19,2.81s-4.73,2.18-7.08,3.32A366.69,366.69,0,0,0,377.2,663c-4.26,3-8.46,6.17-12.64,9.35-2.09,1.58-4.17,3.18-6.33,4.76a33.93,33.93,0,0,1-3.51,2.33c-.17.1-.38.19-.6.29a3.47,3.47,0,0,1-1,.28,2.32,2.32,0,0,1-2.48-1.45,2.54,2.54,0,0,1,.06-1.78,6.26,6.26,0,0,1,.67-1.27c.22-.34.44-.63.66-.92a75.94,75.94,0,0,1,5.45-6c1.86-1.89,3.75-3.74,5.65-5.57,3.81-3.66,7.66-7.25,11.54-10.82q11.63-10.7,23.41-21.18c7.84-7,15.68-14,23.72-20.87,4-3.42,8.08-6.79,12.3-10s8.65-6.24,13.13-9,9.15-5.32,13.2-8.34a65.13,65.13,0,0,0,5.8-5,45.27,45.27,0,0,0,5-5.72,154,154,0,0,0,8.36-13.13c2.64-4.52,5.21-9.1,7.76-13.69,5.1-9.18,10.14-18.39,14.91-27.72l3.59-7c1.22-2.36,2.57-4.71,4-7,2.81-4.52,5.88-8.83,8.74-13.17a72.42,72.42,0,0,0,7.19-13.62A74.05,74.05,0,0,0,530.36,462a44.83,44.83,0,0,0,.14-15.11,50.82,50.82,0,0,0-4.79-14.41,59.91,59.91,0,0,0-3.94-6.58,37.2,37.2,0,0,0-4.75-5.86,30.91,30.91,0,0,0-12.72-7.59c-4.77-1.49-10-1.8-15.09-1.85a55,55,0,0,0-15.11,2.33c-2.48.71-5,1.53-7.45,2.36s-4.86,1.73-7.26,2.74c-4.79,2-9.49,4.29-14.09,6.75a178.37,178.37,0,0,0-26.46,16.63,87.53,87.53,0,0,0-11.5,10.41c-3.49,3.82-6.75,7.93-10,12.05-6.46,8.27-12.81,16.66-19.16,25l-9.48,12.6-4.7,6.32c-1.57,2.1-3.07,4.28-4.91,6.32a104.4,104.4,0,0,1-11.54,11,147.15,147.15,0,0,1-12.94,9.24c-8.91,5.69-18.09,10.85-27.27,16s-18.44,10.15-27.78,15-18.74,9.57-28.1,14.36q-7,3.6-14,7.26c-4.63,2.42-9.21,5-13.76,7.61Q210,602.49,196.65,610.8t-26.59,16.93q-6.6,4.31-13.15,8.7c-4.37,2.92-8.75,5.83-12.9,9-8.33,6.3-15.82,13.89-21.07,22.95a71.43,71.43,0,0,0-3.58,7,61.64,61.64,0,0,0-2.54,7.41,143.66,143.66,0,0,0-3.27,15.39,251.38,251.38,0,0,0-2,62.85,251.72,251.72,0,0,1,1.42-63,141.63,141.63,0,0,1,3.18-15.48,61.41,61.41,0,0,1,2.51-7.52,73.26,73.26,0,0,1,3.57-7.08c5.26-9.21,12.79-17,21.15-23.37,4.17-3.24,8.54-6.19,12.89-9.14s8.72-5.9,13.1-8.81q13.16-8.71,26.5-17.13t27-16.39c4.55-2.64,9.11-5.27,13.78-7.75s9.29-4.93,13.95-7.36c9.34-4.86,18.72-9.59,28-14.49s18.5-9.95,27.66-15.1,18.28-10.37,27.07-16A140.08,140.08,0,0,0,346,523.26a103,103,0,0,0,11.22-10.79c1.68-1.88,3.16-4,4.73-6.15l4.68-6.36,9.43-12.65c6.33-8.41,12.63-16.82,19.08-25.15,3.24-4.16,6.51-8.31,10.08-12.27A91.94,91.94,0,0,1,417,439.1a182.22,182.22,0,0,1,26.82-17c4.66-2.51,9.42-4.86,14.31-6.94,2.45-1,4.95-2,7.48-2.85s5-1.7,7.58-2.44a69,69,0,0,1,7.86-1.82,55,55,0,0,1,8.1-.7,80.37,80.37,0,0,1,8.06.37,42.12,42.12,0,0,1,8,1.55,34.08,34.08,0,0,1,14.13,8.39,41.65,41.65,0,0,1,5.18,6.36,64.08,64.08,0,0,1,4.17,6.94,54.13,54.13,0,0,1,5.13,15.4,48.36,48.36,0,0,1-.13,16.28A76.86,76.86,0,0,1,529,478a75.77,75.77,0,0,1-7.48,14.24c-2.92,4.45-5.94,8.71-8.69,13.12-1.38,2.2-2.65,4.42-3.84,6.73l-3.56,7c-4.79,9.4-9.83,18.65-14.93,27.86-2.55,4.6-5.13,9.2-7.79,13.76a157.13,157.13,0,0,1-8.55,13.48,49.06,49.06,0,0,1-5.37,6.17,66.36,66.36,0,0,1-6.15,5.29,78.71,78.71,0,0,1-6.72,4.44c-2.26,1.38-4.5,2.71-6.71,4.1a153.8,153.8,0,0,0-12.84,8.85c-4.12,3.17-8.14,6.52-12.13,9.92-8,6.8-15.78,13.83-23.62,20.85S385,647.87,377.28,655c-3.86,3.56-7.69,7.14-11.46,10.78-1.88,1.81-3.75,3.65-5.57,5.5a74,74,0,0,0-5.13,5.67c-.18.24-.35.47-.49.69a4.3,4.3,0,0,0-.27.46s.15-.07-.05-.83a1.71,1.71,0,0,0-1.66-1.09c-.16,0-.1,0,0,0s.17-.07.28-.14a31.7,31.7,0,0,0,3-2c2.09-1.53,4.17-3.14,6.27-4.73,4.19-3.19,8.42-6.36,12.71-9.43a368.79,368.79,0,0,1,54.36-32.53c2.38-1.15,4.76-2.28,7.2-3.37A80.1,80.1,0,0,1,444,621c5-1.71,9.93-3.42,14.88-5.19,9.89-3.53,19.74-7.17,29.59-10.85l14.76-5.54c4.92-1.85,9.84-3.73,14.82-5.5a181,181,0,0,1,30.69-8.45c1.31-.24,2.62-.45,3.94-.63s2.64-.37,4-.52,2.64-.29,4-.4l3.94-.32,15.77-1.3c5.26-.42,10.52-.71,15.8-.95l7.9-.29c2.62-.08,5.15-.21,7.69-.54a130.36,130.36,0,0,0,30-7.78c4.85-1.9,9.75-3.82,14.31-6.12a72.74,72.74,0,0,0,6.68-3.88,50,50,0,0,1,7.19-3.83c2.5-1.08,5-2,7.45-2.89s5-1.8,7.51-2.62a138.24,138.24,0,0,1,15.45-4.09,108.62,108.62,0,0,1,15.9-2c1.33-.08,2.67-.07,4-.11s2.64,0,3.92,0a29.77,29.77,0,0,0,7.37-.94,19.77,19.77,0,0,0,6.53-3.07A20.16,20.16,0,0,0,743,537.9c1.41-2.09,2.82-4.38,4.12-6.58a67.5,67.5,0,0,0,3.5-6.82c1-2.35,1.8-4.74,2.73-7.3a24.22,24.22,0,0,1,4.08-7.34l.67-.81a4.86,4.86,0,0,1,.43-.47l.42-.39c.54-.48,1.05-.89,1.57-1.32l3.1-2.48,6.21-4.87,6.21-4.86a32.68,32.68,0,0,0,5.49-5,14.81,14.81,0,0,0,2.85-6.39,53.7,53.7,0,0,0,.47-7.59c0-1.49.23-2.76.37-4.09l.52-3.93,1.11-7.83c.39-2.61.75-5.19,1.19-7.82.25-1.31.44-2.64.74-4s.57-2.62.92-3.91a101.53,101.53,0,0,1,12.94-29.2c1.45-2.26,3-4.41,4.61-6.52s3.21-4.24,5-6.27a36.53,36.53,0,0,1,6-5.58,21.7,21.7,0,0,1,11.8-4.2,24.41,24.41,0,0,1,4.19.18,30.21,30.21,0,0,1,8,2.16,29.16,29.16,0,0,1,7.14,4.19,33.74,33.74,0,0,1,5.73,5.91,33.08,33.08,0,0,1,6.25,15.07,59.39,59.39,0,0,1,.6,8c0,1.35,0,2.71-.08,4.08a38.31,38.31,0,0,1-.55,4c-.49,2.65-1.1,5.2-1.67,7.77s-1.12,5.12-1.64,7.69c-1,5.12-2,10.3-3,15.45a130.53,130.53,0,0,0-1.84,15.5c-.33,5.18,0,10.4-.22,15.74A109.45,109.45,0,0,1,851.25,514a120.94,120.94,0,0,1-4,15.41,85.38,85.38,0,0,1-6,14.78c-2.47,4.72-5.26,9.19-8,13.69-10.94,17.93-21.37,36.19-31.53,54.59q-3.79,6.9-7.52,13.85c-2.49,4.63-4.9,9.3-7.58,13.87a50.57,50.57,0,0,1-4.53,6.61,38.81,38.81,0,0,1-12.64,9.82,53.23,53.23,0,0,1-7.5,2.76c-5.08,1.48-10.15,2.79-15.17,4.31-2.51.76-5,1.52-7.5,2.36s-4.9,1.78-7.32,2.8c-9.69,4.1-19.49,7.94-29.32,11.7s-19.67,7.45-29.56,11c-4.93,1.81-9.89,3.54-14.71,5.6s-9.53,4.41-14.21,6.8c-9.35,4.79-18.43,10.09-27.39,15.6S599.1,730.9,590.53,737Z" transform="translate(-17.53 -15)" fill="#fff"/><path d="M440.53,446a25.24,25.24,0,0,0,2.42,9.93,24.28,24.28,0,0,0,6.36,7.64,43.51,43.51,0,0,0,8.29,5.67c1.45.75,3,1.34,4.66,2a46.6,46.6,0,0,1,4.91,2.31,66.79,66.79,0,0,1,9,6,51.43,51.43,0,0,1,7.65,7.68,47.07,47.07,0,0,1,9.1,19.45l-2.38-.61c1.29-1.29,2.62-2.55,3.93-3.82s2.64-2.55,4-3.8c2.66-2.51,5.35-5,8.11-7.42-2.24,2.91-4.55,5.76-6.89,8.58-1.16,1.41-2.34,2.81-3.52,4.2s-2.36,2.8-3.57,4.18l-1.64,1.87-.74-2.48a49.73,49.73,0,0,0-9.37-17.71,49.07,49.07,0,0,0-7.17-7,62.77,62.77,0,0,0-8.35-5.71c-1.46-.84-2.92-1.61-4.47-2.31s-3.23-1.42-4.84-2.35a34.08,34.08,0,0,1-4.49-3.11,46.88,46.88,0,0,1-4-3.58A34.7,34.7,0,0,1,444,461.4a18.38,18.38,0,0,1-2.51-4.86A22.18,22.18,0,0,1,440.53,446Z" transform="translate(-17.53 -15)" fill="#fff"/><path d="M157.53,632V212h71l15,9v95.5l-15.5,14H176.87" transform="translate(-17.53 -15)" fill="none" stroke="#fff" stroke-miterlimit="10" stroke-width="8"/><path d="M273.53,333l36,1" transform="translate(-17.53 -15)" fill="none" stroke="#fff" stroke-miterlimit="10" stroke-width="8"/><path d="M244.53,579l36-367h17q20.49,158.51,41,317" transform="translate(-17.53 -15)" fill="none" stroke="#fff" stroke-miterlimit="10" stroke-width="8"/><path d="M348.53,517V212l74,0,14,8v93l-17,19,16.28,16.28L442.53,422" transform="translate(-17.53 -15)" fill="none" stroke="#fff" stroke-miterlimit="10" stroke-width="8"/><path d="M368.53,330l51,2" transform="translate(-17.53 -15)" fill="none" stroke="#fff" stroke-miterlimit="10" stroke-width="7"/><path d="M456.53,213h70" transform="translate(-17.53 -15)" fill="none" stroke="#fff" stroke-miterlimit="10" stroke-width="6"/><path d="M490.53,407q1-97.5,2-195" transform="translate(-17.53 -15)" fill="none" stroke="#fff" stroke-miterlimit="10" stroke-width="6"/><path d="M544.53,209V427" transform="translate(-17.53 -15)" fill="none" stroke="#fff" stroke-miterlimit="10" stroke-width="7"/><path d="M567.53,208V423l56,2" transform="translate(-17.53 -15)" fill="none" stroke="#fff" stroke-miterlimit="10" stroke-width="7"/><path d="M643.53,209q-.49,106-1,212" transform="translate(-17.53 -15)" fill="none" stroke="#fff" stroke-miterlimit="10" stroke-width="7"/><path d="M690.53,209q-.49,106-1,212" transform="translate(-17.53 -15)" fill="none" stroke="#fff" stroke-miterlimit="10" stroke-width="7"/><path d="M645.53,330h45" transform="translate(-17.53 -15)" fill="none" stroke="#fff" stroke-miterlimit="10" stroke-width="7"/><path d="M711.53,421l21-209,20-1q13,106,26,212" transform="translate(-17.53 -15)" fill="none" stroke="#fff" stroke-miterlimit="10" stroke-width="7"/><path d="M721.53,331l45,1" transform="translate(-17.53 -15)" fill="none" stroke="#fff" stroke-miterlimit="10" stroke-width="7"/><path d="M796.53,427q1-107.5,2-215l68-1,17,10q-.49,46.5-1,93l-16,18,18,17q2.51,33,5,66" transform="translate(-17.53 -15)" fill="none" stroke="#fff" stroke-miterlimit="10" stroke-width="7"/><path d="M816.53,333l52-2" transform="translate(-17.53 -15)" fill="none" stroke="#fff" stroke-miterlimit="10" stroke-width="7"/><circle cx="496" cy="552" r="5" fill="#fff"/><path d="M585.53,455l-7-4h-26l-8,6q-.49,53.51-1,107l9.5,6.5h25l8.5-8.51" transform="translate(-17.53 -15)" fill="none" stroke="#fff" stroke-miterlimit="10" stroke-width="8"/><path d="M644.53,455l-7-4h-26l-8,6q-.49,53.51-1,107l9.5,6.5h25l8.5-8.51Z" transform="translate(-17.53 -15)" fill="none" stroke="#fff" stroke-miterlimit="10" stroke-width="8"/><path d="M661.53,564V453h3l25,99h2q11.51-49,23-98h3q-.49,47.51-1,95" transform="translate(-17.53 -15)" fill="none" stroke="#fff" stroke-miterlimit="10" stroke-width="6"/></g></svg>