<?xml version="1.0"?>
<svg xmlns="http://www.w3.org/2000/svg" height="512px" viewBox="-2 0 454 454.20377" width="512px"><path d="m444.132812 209.191406-112.023437-.601562v-10.886719c.417969-1.359375.417969-2.8125 0-4.171875v-31.136719c0-3.867187-3.136719-7-7-7h-44.300781c-3.867188 0-7 3.132813-7 7v45.785157l-17.648438-.183594v-28.511719c0-3.867187-3.132812-7-7-7h-33.230468c-15.421876.019531-28.101563 12.15625-28.800782 27.5625-.019531.210937-.03125.421875-.03125.640625v157.597656c.015625 15.917969 12.917969 28.816406 28.835938 28.835938h132.554687v60.082031c0 3.867187 3.132813 7 7 7h58.226563c3.867187 0 7-3.132813 7-7v-60.085937h23.378906c3.867188 0 7-3.136719 7-7v-163.925782c0-3.851562-3.109375-6.980468-6.960938-7zm-156.328124-6.570312h30.300781v99.28125l-15.152344 25.109375-15.148437-25.109375zm30.300781-33.226563v19.226563h-30.300781v-19.226563zm-102.175781 17.085938h26.230468v131.570312h-26.230468c-5.226563-.003906-10.359376 1.421875-14.835938 4.121094v-120.855469c.011719-8.1875 6.648438-14.824218 14.835938-14.835937zm146.558593 253.722656v-167.328125h44.226563v18.910156h-12.621094c-3.863281 0-7 3.132813-7 7 0 3.867188 3.136719 7 7 7h12.621094v15.117188h-12.621094c-3.863281 0-7 3.136718-7 7 0 3.867187 3.136719 7 7 7h12.621094v14.800781h-12.621094c-3.863281 0-7 3.132813-7 7s3.136719 7 7 7h12.621094v14.800781h-12.621094c-3.863281 0-7 3.132813-7 7 0 3.867188 3.136719 7 7 7h12.621094v47.699219zm74.605469-67.085937h-16.378906v-107.242188c0-3.867188-3.132813-7-7-7h-58.226563c-3.867187 0-7 3.132812-7 7v107.242188h-132.558593c-8.1875-.011719-14.824219-6.648438-14.835938-14.835938v-11.394531c.011719-8.1875 6.648438-14.824219 14.835938-14.835938h33.230468c3.863282 0 7-3.132812 7-7v-103.054687l17.644532.183594v81.667968c0 1.277344.347656 2.527344 1.007812 3.617188l22.152344 36.710937c1.265625 2.097657 3.539062 3.382813 5.992187 3.382813s4.726563-1.285156 5.992188-3.382813l22.152343-36.710937c.65625-1.089844 1.007813-2.339844 1.007813-3.617188v-81.257812l104.984375.5625zm0 0" fill="#134921"/><path d="m384.601562 400.328125c-9.632812 0-17.445312 7.8125-17.445312 17.445313 0 9.632812 7.8125 17.441406 17.445312 17.441406 9.632813 0 17.441407-7.808594 17.441407-17.441406-.007813-9.628907-7.8125-17.433594-17.441407-17.445313zm0 20.886719c-1.902343 0-3.445312-1.539063-3.445312-3.441406 0-1.902344 1.542969-3.441407 3.445312-3.441407 1.902344 0 3.441407 1.539063 3.441407 3.441407 0 1.902343-1.542969 3.441406-3.441407 3.441406zm0 0" fill="#134921"/><path d="m86.464844 101.789062c24.011718-.023437 43.472656-19.480468 43.5-43.492187v-14.59375c.074218-15.589844-8.199219-30.023437-21.6875-37.839844-13.484375-7.816406-30.125-7.816406-43.613282 0-13.488281 7.816407-21.761718 22.25-21.6875 37.839844v14.601563c.03125 24.003906 19.484376 43.457031 43.488282 43.484374zm-29.492188-58.085937c-.0625-10.578125 5.546875-20.378906 14.695313-25.6875 9.152343-5.304687 20.445312-5.304687 29.59375 0 9.152343 5.308594 14.761719 15.109375 14.699219 25.6875v14.601563c.0625 10.578124-5.546876 20.378906-14.699219 25.683593-9.148438 5.308594-20.441407 5.308594-29.59375 0-9.148438-5.304687-14.757813-15.105469-14.695313-25.683593zm0 0" fill="#134921"/><path d="m130.472656 103.777344h-9.214844c-3.128906 0-5.878906 2.074218-6.734374 5.085937l-10 35.226563-5.414063-9.667969 6.398437-20.433594c.667969-2.125.28125-4.441406-1.039062-6.238281-1.316406-1.792969-3.414062-2.855469-5.640625-2.855469h-23.300781c-2.226563 0-4.320313 1.0625-5.640625 2.855469-1.316407 1.796875-1.703125 4.113281-1.039063 6.238281l6.4375 20.546875-4.289062 8.28125-8.8125-33.808594c-.800782-3.082031-3.585938-5.230468-6.773438-5.230468h-10.386718c-12.636719-.003906-24.691407 5.320312-33.203126 14.660156-8.511718 9.339844-12.695312 21.832031-11.523437 34.417969v91.839843c0 1.488282.472656 2.9375 1.351563 4.136719l29.132812 39.734375 6.433594 137.855469c.507812 15.527344 13.269531 27.835937 28.804687 27.78125h43.644531c15.507813.058594 28.261719-12.207031 28.800782-27.707031l6.441406-137.941406 28.941406-39.757813c.871094-1.199219 1.34375-2.640625 1.34375-4.121094v-91.820312c1.167969-12.582031-3.011718-25.074219-11.523437-34.414063s-20.5625-14.664062-33.195313-14.664062zm-41.167968 15.117187-2.121094 6.777344-2.121094-6.777344zm71.925781 32.910157c-.027344.234374-.039063.46875-.039063.707031v89.882812l-28.835937 39.613281c-.808594 1.105469-1.269531 2.425782-1.335938 3.792969l-6.539062 140.109375c-.261719 7.988282-6.824219 14.320313-14.816407 14.292969h-43.644531c-8.015625.019531-14.585937-6.351563-14.816406-14.359375l-6.539063-140.039062c-.066406-1.375-.535156-2.703126-1.347656-3.8125l-29.019531-39.589844v-89.890625c0-.234375-.015625-.46875-.039063-.707031-.878906-8.695313 1.964844-17.359376 7.828126-23.84375 5.863281-6.488282 14.195312-10.1875 22.9375-10.1875h4.980468l12.050782 46.21875c.710937 2.726562 2.988281 4.761718 5.78125 5.160156 2.789062.402344 5.546874-.914063 6.996093-3.332032.074219-.125.148438-.25.214844-.378906l12.042969-23.246094h.332031l13.132813 23.449219c1.382812 2.46875 4.113281 3.863281 6.925781 3.53125 2.808593-.332031 5.144531-2.320312 5.914062-5.042969l13.15625-46.359374h3.921875c8.742188 0 17.074219 3.703124 22.933594 10.1875 5.859375 6.484374 8.703125 15.148437 7.824219 23.84375zm0 0" fill="#134921"/></svg>
