<svg id="Layer_1" data-name="Layer 1" xmlns="http://www.w3.org/2000/svg" viewBox="0 0 50.12 50.04"><title>phone</title><path d="M47.9,43.33a2.13,2.13,0,0,0-1.59.62l-3.18,3.13a.94.94,0,0,1-.47,0c-1.76,0-5.49-1.95-9.2-5.68-5-4.85-6.12-9-5.54-9.53l3.2-3.18c2.14-2.14-1.63-6.43-4-8.84-1.13-1.09-4.89-4.63-7.31-4.63a2.13,2.13,0,0,0-1.59.62l-6.44,6.44c-1.82,1.84-1.16,5.49,2.1,10.94A85.16,85.16,0,0,0,26.37,48.63c7.77,7.76,18.07,15.62,23.56,15.62a3.85,3.85,0,0,0,2.86-1.08l6.44-6.43c2.14-2.15-1.61-6.44-4-8.84C54.05,46.89,50.32,43.33,47.9,43.33Z" transform="translate(-10.24 -14.72)" fill="none" stroke="#134921" stroke-miterlimit="10"/></svg>