<?xml version="1.0"?>
<svg xmlns="http://www.w3.org/2000/svg" height="512px" viewBox="-68 0 511 511.99134" width="512px"><path d="m168.054688 501.761719c4.710937 6.429687 12.203124 10.230469 20.175781 10.230469 7.972656 0 15.464843-3.800782 20.175781-10.230469 25.113281-33.425781 87.816406-119.648438 128.65625-199.578125 19.320312-25.046875 31.964844-54.582032 36.753906-85.847656 8.230469-53.964844-7.402344-108.84375-42.839844-150.371094-35.433593-41.527344-87.171874-65.601563-141.761718-65.964844h-.980469c-71.402344-.0585938-136.640625 40.425781-168.296875 104.425781-31.652344 64-24.230469 140.421875 19.152344 197.132813 40.832031 80.121094 103.789062 166.699218 128.964844 200.203125zm26.707031-10.242188c-1.527344 2.074219-3.953125 3.300781-6.53125 3.300781s-5.003907-1.226562-6.53125-3.300781c-36.324219-48.242187-70.085938-98.359375-101.148438-150.144531 55.578125 39.035156 127.910157 44.992188 189.125 15.582031 9.105469-4.410156 17.839844-9.546875 26.121094-15.359375-31.03125 51.707032-64.757813 101.75-101.035156 149.921875zm-6.527344-474.453125h.90625c79.519531.347656 148.261719 55.570313 165.746094 133.144532 17.480469 77.578124-20.929688 156.949218-92.617188 191.371093-63.234375 30.367188-138.613281 18.945313-190.015625-28.792969-51.402344-47.734374-68.359375-122.0625-42.746094-187.367187 25.613282-65.308594 88.578126-108.289063 158.726563-108.355469zm0 0" fill="#134921"/><path d="m191.476562 384.683594c-2.078124-.855469-4.40625-.855469-6.484374 0-1.054688.390625-2.015626 1-2.816407 1.792968-.769531.8125-1.378906 1.769532-1.792969 2.8125-.4375 1.027344-.667968 2.128907-.683593 3.246094.019531.570313.078125 1.140625.171875 1.703125.09375.535157.265625 1.054688.511718 1.539063.1875.542968.445313 1.058594.769532 1.535156.3125.445312.65625.875 1.023437 1.28125 3.363281 3.296875 8.753907 3.296875 12.117188 0 .367187-.40625.710937-.835938 1.023437-1.28125.324219-.476562.582032-.992188.769532-1.535156.246093-.484375.417968-1.003906.511718-1.539063.09375-.5625.152344-1.132812.171875-1.703125-.035156-2.261718-.917969-4.425781-2.476562-6.058594-.800781-.792968-1.761719-1.402343-2.816407-1.792968zm0 0" fill="#134921"/><path d="m188.234375 418.132812c-4.710937 0-8.535156 3.820313-8.535156 8.535157v25.597656c0 4.714844 3.824219 8.535156 8.535156 8.535156 4.714844 0 8.535156-3.820312 8.535156-8.535156v-25.597656c0-4.714844-3.820312-8.535157-8.535156-8.535157zm0 0" fill="#134921"/><path d="m94.367188 196.265625h51.199218v119.46875c0 9.425781 7.640625 17.066406 17.066406 17.066406h51.203126c9.425781 0 17.066406-7.640625 17.066406-17.066406v-119.46875h51.199218c9.425782 0 17.066407-7.640625 17.066407-17.066406v-51.199219c0-9.425781-7.640625-17.066406-17.066407-17.066406h-51.199218v-51.199219c0-9.425781-7.640625-17.066406-17.066406-17.066406h-51.203126c-9.425781 0-17.066406 7.640625-17.066406 17.066406v51.199219h-51.199218c-9.425782 0-17.066407 7.640625-17.066407 17.066406v51.199219c0 9.425781 7.640625 17.066406 17.066407 17.066406zm0-68.265625h51.199218c9.425782 0 17.066406-7.640625 17.066406-17.066406v-51.199219h51.203126v51.199219c0 9.425781 7.640624 17.066406 17.066406 17.066406h51.199218v51.199219h-51.199218c-9.425782 0-17.066406 7.640625-17.066406 17.066406v119.46875h-51.203126v-119.46875c0-9.425781-7.640624-17.066406-17.066406-17.066406h-51.199218zm0 0" fill="#134921"/><path d="m179.699219 290.132812c0 4.714844 3.824219 8.535157 8.535156 8.535157 4.714844 0 8.535156-3.820313 8.535156-8.535157v-128h59.730469c4.714844 0 8.535156-3.820312 8.535156-8.53125 0-4.714843-3.820312-8.535156-8.535156-8.535156h-59.730469v-59.734375c0-4.710937-3.820312-8.53125-8.535156-8.53125-4.710937 0-8.535156 3.820313-8.535156 8.53125v59.734375h-59.730469c-4.714844 0-8.535156 3.820313-8.535156 8.535156 0 4.710938 3.820312 8.53125 8.535156 8.53125h59.730469zm0 0" fill="#134921"/></svg>
