<svg id="dc1cafc6-ff16-48ed-b95d-ef6517cfe7c3" data-name="Capa 1" xmlns="http://www.w3.org/2000/svg" viewBox="0 0 167.95 194.66"><title>privacidade</title><path d="M52.43,194.65a.79.79,0,0,1-.79-.67L23.18,18.08a.8.8,0,0,1,.15-.6.78.78,0,0,1,.52-.32L131.39.65c17.78-2.72,25.4,2.87,28.12,20.65L180.65,150h0c2.73,17.78-2.87,25.4-20.65,28.14L52.55,194.65Zm-27.54-176,28.2,174.32,106.67-16.37c16.84-2.58,21.89-9.47,19.31-26.3L157.93,21.55c-2.58-16.84-9.46-21.9-26.3-19.32Z" transform="translate(-13.35 0)" fill="#134921"/><path d="M26.64,56.31a13.31,13.31,0,1,1,13.2-15.18.8.8,0,1,1-1.59.23A11.71,11.71,0,1,0,28.3,54.6a.79.79,0,0,1,.91.68.8.8,0,0,1-.68.9A13.44,13.44,0,0,1,26.64,56.31Z" transform="translate(-13.35 0)" fill="#134921"/><path d="M31.73,88.49A13.31,13.31,0,0,1,18.59,77.05a13.31,13.31,0,1,1,26.35-3.74.8.8,0,0,1-1.58.22,11.71,11.71,0,0,0-23.19,3.29,11.71,11.71,0,0,0,13.24,9.94.79.79,0,0,1,.9.68.8.8,0,0,1-.68.91A13.5,13.5,0,0,1,31.73,88.49Z" transform="translate(-13.35 0)" fill="#134921"/><path d="M37.16,122.23A13.31,13.31,0,0,1,35.3,95.74a13.31,13.31,0,0,1,15,11.31.8.8,0,1,1-1.58.23,11.71,11.71,0,1,0-9.95,13.23A.8.8,0,0,1,39,122.1,13.16,13.16,0,0,1,37.16,122.23Z" transform="translate(-13.35 0)" fill="#134921"/><path d="M42.67,155.93a13.31,13.31,0,0,1-1.86-26.48,13.31,13.31,0,0,1,15,11.31.8.8,0,0,1-1.58.22,11.71,11.71,0,1,0-10,13.24.8.8,0,1,1,.22,1.58A13.16,13.16,0,0,1,42.67,155.93Z" transform="translate(-13.35 0)" fill="#134921"/><path d="M48,189.67A13.31,13.31,0,0,1,34.9,178.23a13.31,13.31,0,1,1,26.35-3.73.8.8,0,1,1-1.58.22,11.71,11.71,0,1,0-18.63,11A11.57,11.57,0,0,0,49.71,188a.8.8,0,0,1,.91.68.81.81,0,0,1-.68.91A13.48,13.48,0,0,1,48,189.67Z" transform="translate(-13.35 0)" fill="#134921"/><path d="M62.62,101.7a.8.8,0,0,1-.79-.68L54,51.34a.8.8,0,0,1,.15-.6.78.78,0,0,1,.52-.32L139.81,37a.8.8,0,0,1,.92.66l7.86,49.69a.77.77,0,0,1-.14.59.8.8,0,0,1-.52.32L62.74,101.69ZM55.67,51.88,63.28,100l83.61-13.23-7.62-48.1Z" transform="translate(-13.35 0)" fill="#134921"/><path d="M72.29,65.28a.8.8,0,0,1-.12-1.6l53.62-8.56A.8.8,0,0,1,126,56.7L72.42,65.26Z" transform="translate(-13.35 0)" fill="#134921"/><path d="M74.16,78.2A.8.8,0,0,1,74,76.61L127.65,68a.8.8,0,1,1,.25,1.58L74.29,78.19Z" transform="translate(-13.35 0)" fill="#134921"/></svg>