<svg id="8a6f96b8-5767-49b0-83ca-fd1bec12cb58" data-name="Layer 1" xmlns="http://www.w3.org/2000/svg" viewBox="0 0 1278.94 943.57"><title>recon</title><path d="M726,.6c-18.3,2.4-31.8,6.3-48,14-40.4,19.3-73.2,50.4-97,91.8-14,24.3-26.9,60.3-31.2,86.5-.6,4.2-1.3,7.8-1.4,8s-4.9-1.9-10.6-4.7a160.24,160.24,0,0,0-38.1-13.4c-8.8-1.9-13.2-2.2-32.2-2.2-26.5,0-41.2,2.3-68.6,11-24.5,7.7-59,35.5-76.1,61.4-14.4,21.6-24.5,46.3-31.6,77-7.6,32.9-11.7,58.7-12.7,81.5-.3,7.1-.8,15.3-1.1,18.1l-.5,5.2-8.2-1.8c-4.5-1-16.7-4.4-27-7.4-41.2-12.2-49.7-14-77.6-15.7-61-3.8-100,6.8-127.7,34.5-5.9,6-12,13.2-14.8,17.8C13.3,475.7,6,496.2,2.3,517c-2.1,12.1-2.4,45.5-.5,58.5q11,72.6,57.8,130.8c35.1,43.6,76.1,73.8,136.9,100.7,14.2,6.3,81.1,33.1,116.5,46.7,84.9,32.5,158.8,65.4,190.5,84.7l9,5.5,2.5-3.2c5.4-7,8.7-9.4,17-12.7a99,99,0,0,0,9.2-3.9c.4-.3,1.4-6.2,2.3-13.1,10.5-81.4,36.3-172.8,58.4-206.7l4-6.2-1.7-3.8c-1.4-3.2-1.7-6.9-1.6-22.8.1-25.5,3.5-49.3,16.4-114.9,3.3-17,5.9-31.4,5.7-32-2-6-66.2,174.6-93.6,263.4-13.6,44.1-26.1,91.5-26.1,98.8,0,1.2-.5,2.2-1.1,2.2s-7.7-3-15.8-6.6c-19.4-8.8-49.4-20.8-101.6-40.4-46.3-17.5-60.2-22.9-82-32-7.7-3.2-20.5-8.4-28.5-11.5-37.3-14.6-74.4-35.3-105-58.8-13.7-10.5-44.5-41.4-54-54.2-25.9-34.8-42.5-74.1-50.6-120-2.6-14.6-2.6-48.7,0-60.5,5.9-26.9,18.3-46.2,37.7-59,28.3-18.4,86.1-8.5,133.9,22.9,5,3.2,13.1,10.2,19.8,16.8l11.4,11.4,9.6-7.8c5.3-4.3,17.8-15.8,27.8-25.6L324.7,446l.6-15.8c1.1-26.1,5.4-48.6,14.4-74.6,13.6-39.3,33.5-72.1,59.7-98.1,34.3-34.2,69.4-45.6,103.9-33.9,12.7,4.3,28.8,14.5,37.8,24.1,3.6,3.7,3.7,4.1,4.8,15.3,4.5,45.6,16.9,85,49.9,158.5,38.9,86.9,47.9,112.8,57.3,165,3.2,17.6,2.9,40.3-1,75.6-1.6,15.1-3.1,29.8-3.3,32.6l-.3,5.3,23.2,14.9,23.1,14.9,10.1-8.4q44.1-36.3,115-75.9c28.6-15.9,61.5-32.8,140.6-72.1,84.7-42.1,104.6-53,135.5-74.3,55.8-38.5,101.6-83.6,133.5-131.6,26.6-40.2,41.9-77.9,48.6-120,2-12.5,1.8-45.7-.5-59-11.1-66.6-54.9-120.8-129.7-160.4-18.7-9.9-38.5-14.1-67.1-14.2-23-.1-39.6,2.2-61.8,8.6-27.5,7.9-56.3,22.1-81.3,40l-9.6,6.8,4.9,5.4a74.19,74.19,0,0,1,8.7,12.2l3.8,6.9,8-5c44-27.3,81.6-39.7,120-39.8,22.6,0,41.5,4.1,60.1,12.9,44.5,21.2,73.6,63.3,83.5,120.8,2.6,15.1,3.1,45.6,1,61.3-10.6,79.6-57.4,151.7-133.8,206.1-16.2,11.6-53.6,36.5-72.8,48.6-45,28.3-72.6,44.2-146.9,84.2-30.8,16.6-63.2,34.3-72,39.3-35.2,20-72.1,43.4-99.6,63.1L679.5,695l-.8-4.2c-.5-2.4-.6-23.7-.3-47.3.8-61-.8-83.3-8.4-112.2-7-26.7-17-50.3-40.8-96-25-47.9-33.2-65.9-41.6-91.8C580.3,320.8,571.5,280,574,280c.4,0,3.5,2,6.7,4.4,7.4,5.6,21.4,20.1,50.9,52.6,43,47.4,53.1,55,45,33.8-3.9-10.1-9.1-21.1-19.4-40.3-22.9-43.1-43.2-71.8-68.9-97.4l-13.5-13.3,1.2-6.7c9.5-54.6,33-103,66.4-136.5,21.3-21.3,44-33.9,72.9-40.3,12.8-2.8,46.5-2.5,60.7.5,51.5,11.1,99.1,42.6,126.7,84,11.5,17.1,18.2,34.4,19.9,51.4l.7,6.6,14.1-10.7c7.7-5.9,16.3-12,18.9-13.6,5.8-3.3,5.8-3.3-.3-18.8C930.8,71.2,854,15.6,772,2.4,762.6.9,732.8-.2,726,.6Z" transform="translate(-0.54 -0.33)" fill="#134921"/></svg>