<?xml version="1.0"?>
<svg xmlns="http://www.w3.org/2000/svg" height="512px" viewBox="0 -111 512.00065 512" width="512px"><path d="m503.46875 238.933594h-221.867188c14.136719 0 25.597657-11.460938 25.597657-25.601563v-34.132812c0-4.710938-3.820313-8.535157-8.53125-8.535157h-76.800781c-9.425782 0-17.066407 7.644532-17.066407 17.066407v8.535156c0 14.140625 11.460938 25.601563 25.597657 25.601563h10.105468c3.601563 10.191406 13.21875 17.019531 24.03125 17.066406h-85.335937v-76.800782c-.035157-29.679687-21.828125-54.847656-51.199219-59.128906v-9.28125c10.757812-7.984375 17.089844-20.59375 17.066406-33.988281v-17.066406c0-23.566407-19.101562-42.667969-42.667968-42.667969-23.5625 0-42.664063 19.101562-42.664063 42.667969v17.066406c-.023437 13.394531 6.308594 26.007813 17.066406 33.988281v9.28125c-29.371093 4.28125-51.164062 29.449219-51.199219 59.128906v76.800782h-17.066406c-4.714844 0-8.535156 3.820312-8.535156 8.53125v34.136718c0 4.710938 3.820312 8.53125 8.535156 8.53125h494.933594c4.710938 0 8.53125-3.820312 8.53125-8.53125v-34.136718c0-4.710938-3.820312-8.53125-8.53125-8.53125zm-281.601562-42.667969v-8.53125h17.066406v17.066406h-8.535156c-4.710938 0-8.53125-3.820312-8.53125-8.535156zm34.132812 17.066406v-25.597656h34.132812v25.597656c0 4.714844-3.820312 8.535157-8.53125 8.535157h-17.066406c-4.714844 0-8.535156-3.820313-8.535156-8.535157zm-179.199219-170.664062c0-14.140625 11.460938-25.601563 25.597657-25.601563 14.140624 0 25.601562 11.460938 25.601562 25.601563v17.066406c-.023438 9.128906-4.929688 17.554687-12.859375 22.082031-2.605469 1.535156-4.207031 4.332032-4.207031 7.355469v13.226563h-17.066406v-13.226563c0-3.023437-1.601563-5.820313-4.207032-7.355469-7.933594-4.527344-12.835937-12.953125-12.859375-22.082031zm33.679688 167.585937-8.082031 8.078125-8.078126-8.078125 7.082032-56.65625h1.996094zm-14.214844-90.789062h12.269531l-4.265625 17.066406h-3.738281zm-53.597656 42.667968c.054687-21 15.402343-38.832031 36.164062-42.007812l6.371094 25.472656-8.335937 66.675782c-.324219 2.613281.570312 5.230468 2.433593 7.09375l17.066407 17.066406c3.332031 3.332031 8.734374 3.332031 12.066406 0l17.066406-17.066406c1.859375-1.863282 2.757812-4.480469 2.429688-7.09375l-8.335938-66.679688 6.375-25.472656c20.757812 3.179687 36.105469 21.011718 36.164062 42.011718v76.800782h-119.464843zm452.265625 110.933594h-477.867188v-17.066406h477.867188zm0 0" fill="#134921"/><path d="m332.800781 213.332031h153.597657v17.066407h-153.597657zm0 0" fill="#134921"/><path d="m332.800781 187.734375h153.597657v17.066406h-153.597657zm0 0" fill="#134921"/><path d="m332.800781 162.132812h153.597657v17.066407h-153.597657zm0 0" fill="#134921"/><path d="m332.800781 136.53125h153.597657v17.066406h-153.597657zm0 0" fill="#134921"/><path d="m332.800781 110.933594h153.597657v17.066406h-153.597657zm0 0" fill="#134921"/><path d="m280.234375 153.597656h17.066406c-.050781-.699218.132813-1.394531.519531-1.976562 2.949219-5.910156 2.949219-12.863282 0-18.773438-.691406-1.242187-.691406-2.753906 0-3.996094 1.503907-2.898437 2.265626-6.121093 2.210938-9.386718h-17.066406c.050781.703125-.132813 1.40625-.519532 1.996094-2.949218 5.910156-2.949218 12.863281 0 18.773437.386719.589844.570313 1.292969.519532 1.996094.050781.699219-.132813 1.398437-.519532 1.980469-1.503906 2.898437-2.261718 6.125-2.210937 9.386718zm0 0" fill="#134921"/><path d="m246.101562 153.597656h17.066407c-.050781-.699218.132812-1.394531.519531-1.976562 2.949219-5.910156 2.949219-12.863282 0-18.773438-.695312-1.242187-.695312-2.753906 0-3.996094 1.503906-2.898437 2.261719-6.121093 2.210938-9.386718h-17.066407c.050781.703125-.132812 1.40625-.519531 1.996094-2.949219 5.910156-2.949219 12.863281 0 18.773437.386719.589844.570312 1.292969.519531 1.996094.050781.699219-.132812 1.398437-.519531 1.980469-1.503906 2.898437-2.261719 6.125-2.210938 9.386718zm0 0" fill="#134921"/></svg>
