<svg id="Capa_1" data-name="Capa 1" xmlns="http://www.w3.org/2000/svg" viewBox="0 0 512 472.01"><title>social</title><path d="M256,108c-88.22,0-160,71.78-160,160s71.78,160,160,160,160-71.77,160-160S344.22,108,256,108Z" transform="translate(0 -19.99)" fill="#134921"/><path d="M256,156a48,48,0,1,0,48,48A48.06,48.06,0,0,0,256,156Z" transform="translate(0 -19.99)" fill="#fde8cf"/><path d="M296,260H216a24,24,0,0,0-24,24v88a8,8,0,0,0,8,8H312a8,8,0,0,0,8-8V284A24,24,0,0,0,296,260Z" transform="translate(0 -19.99)" fill="#eeebea"/><path d="M257,156c-28,0-43.85,12.51-52.25,23a60.21,60.21,0,0,0-11.6,23.43,8.1,8.1,0,0,0,8.08,9.56h86.1l.91,27.53s16.11-11.9,16.11-33.53C304.35,177.33,286.09,156,257,156Z" transform="translate(0 -19.99)" fill="#626178"/><polygon points="232 240 256 272 280 240 232 240" fill="#fde8cf"/><path d="M232,260l-6.63,19.91a4,4,0,0,0,2.82,5.14L256,292Z" transform="translate(0 -19.99)" fill="#d8d7dd"/><path d="M280,260l6.63,19.91a4,4,0,0,1-2.82,5.14L256,292Z" transform="translate(0 -19.99)" fill="#d8d7dd"/><circle cx="256" cy="288" r="6" fill="#89889a"/><circle cx="256" cy="314" r="6" fill="#89889a"/><circle cx="256" cy="340" r="6" fill="#89889a"/><path d="M40,276a8,8,0,0,1-8-8c0-2.07,0-4.16.08-6.22a8,8,0,0,1,16,.44c0,1.92-.08,3.86-.08,5.78A8,8,0,0,1,40,276Z" transform="translate(0 -19.99)" fill="#e5dfca"/><path d="M46.83,221.9a8.08,8.08,0,0,1-7.75-10c1.05-4.06,2.23-8.14,3.5-12.14a8,8,0,0,1,15.25,4.87c-1.19,3.71-2.28,7.5-3.25,11.27A8,8,0,0,1,46.83,221.9Zm23.28-56a8.07,8.07,0,0,1-6.87-12.09c2.14-3.6,4.41-7.19,6.74-10.66a8,8,0,1,1,13.27,8.93C81.09,155.32,79,158.65,77,162A8,8,0,0,1,70.11,165.92Zm37.94-47.3c-7.12,0-10.64-9-5.49-13.83,3-2.86,6.22-5.68,9.43-8.37a8,8,0,1,1,10.29,12.25c-3,2.5-5.92,5.12-8.76,7.78A8,8,0,0,1,108.05,118.62Zm49.52-34.94a8,8,0,0,1-3.66-15.12c3.73-1.92,7.56-3.74,11.38-5.44a8,8,0,0,1,6.48,14.63c-3.54,1.57-7.09,3.27-10.55,5A8,8,0,0,1,157.57,83.68Zm188.05-4.27a7.88,7.88,0,0,1-3.32-.73c-3.53-1.61-7.16-3.14-10.78-4.56a8,8,0,1,1,5.81-14.9c3.91,1.52,7.82,3.17,11.62,4.91a8,8,0,0,1-3.33,15.28ZM214.84,63.91a8,8,0,0,1-1.51-15.85c4.11-.8,8.3-1.48,12.45-2a8,8,0,0,1,2.13,15.85c-3.85.52-7.73,1.16-11.55,1.9A8.77,8.77,0,0,1,214.84,63.91Zm72.65-1.64a9.2,9.2,0,0,1-1.17-.08c-3.84-.56-7.76-1-11.64-1.37a8,8,0,1,1,1.42-15.94c4.18.38,8.39.87,12.53,1.47a8,8,0,0,1-1.14,15.92Z" transform="translate(0 -19.99)" fill="#e5dfca"/><path d="M392,108.18a8,8,0,0,1-5-1.79c-1.49-1.21-3-2.42-4.53-3.58a8,8,0,0,1,9.73-12.7c1.63,1.25,3.27,2.55,4.88,3.85a8,8,0,0,1-5,14.22Z" transform="translate(0 -19.99)" fill="#e5dfca"/><path d="M471.61,263.15a8,8,0,0,1-8-7.52c-.11-1.89-.25-3.83-.42-5.77a8,8,0,0,1,15.94-1.39c.18,2.08.33,4.17.45,6.21a8,8,0,0,1-7.5,8.46Z" transform="translate(0 -19.99)" fill="#e5dfca"/><path d="M255.44,492h0c-4.19,0-8.43-.14-12.61-.38a8,8,0,1,1,.92-16c3.89.23,7.83.34,11.71.35a8,8,0,0,1,0,16Zm48.25-5.32a8,8,0,0,1-1.75-15.81c3.8-.85,7.62-1.83,11.35-2.89a8,8,0,1,1,4.39,15.39c-4,1.14-8.13,2.19-12.22,3.11A7.75,7.75,0,0,1,303.69,486.69Zm-108.25-3.3a8,8,0,0,1-2.25-.32c-4-1.18-8.06-2.48-12-3.88a8,8,0,1,1,5.35-15.08c3.66,1.3,7.41,2.51,11.14,3.6a8,8,0,0,1-2.24,15.68Zm164.93-18.22a8,8,0,0,1-3.88-15c3.4-1.88,6.79-3.88,10.08-5.94a8,8,0,1,1,8.51,13.54c-3.54,2.23-7.2,4.38-10.85,6.4A8,8,0,0,1,360.37,465.17Zm48.39-36.46c-7,0-10.58-8.72-5.66-13.65,2.75-2.76,5.46-5.62,8-8.52a8,8,0,0,1,11.94,10.66c-2.79,3.11-5.7,6.2-8.66,9.16A8,8,0,0,1,408.76,428.71Zm36.42-48.44a8.07,8.07,0,0,1-7-11.88c1.88-3.39,3.68-6.89,5.37-10.41A8,8,0,0,1,458,364.92q-2.57,5.34-5.42,10.55C451,378.28,448.52,380.27,445.18,380.27Zm21.58-56.67a8.08,8.08,0,0,1-7.82-9.76c.86-3.8,1.62-7.67,2.26-11.51A8,8,0,0,1,477,305c-.69,4.12-1.51,8.29-2.43,12.39A8,8,0,0,1,466.76,323.6Z" transform="translate(0 -19.99)" fill="#e5dfca"/><path d="M140.15,458.32a8,8,0,0,1-4.28-1.25c-1.7-1.08-3.45-2.23-5.2-3.41a8,8,0,1,1,9-13.26c1.18.79,2.36,1.58,3.56,2.35a14.75,14.75,0,0,1,2.76,2,8,8,0,0,1-5.79,13.54Z" transform="translate(0 -19.99)" fill="#e5dfca"/><path d="M464,100a40,40,0,1,0-40-40A40,40,0,0,0,464,100Z" transform="translate(0 -19.99)" fill="#134921"/><path d="M496,108H432a16,16,0,0,0-16,16v72a8,8,0,0,0,8,8h80a8,8,0,0,0,8-8V124A16,16,0,0,0,496,108Z" transform="translate(0 -19.99)" fill="#134921"/><path d="M48,372A40,40,0,1,0,8,332,40,40,0,0,0,48,372Z" transform="translate(0 -19.99)" fill="#134921"/><path d="M80,380H16A16,16,0,0,0,0,396v72a8,8,0,0,0,8,8H88a8,8,0,0,0,8-8V396A16,16,0,0,0,80,380Z" transform="translate(0 -19.99)" fill="#134921"/></svg>