<svg id="Layer_11" data-name="Layer 11" xmlns="http://www.w3.org/2000/svg" viewBox="0 0 606 262"><title>tit_comunidademov</title><path d="M606,0V262H0V0Z" fill="#f0ecd7"/><g id="Layer_13" data-name="Layer 13"><path d="M193.1,81.7l-40.4,47.13-3.13,3.66a5.78,5.78,0,0,1-8.76,0L97.29,81.7a26,26,0,0,1,.53-34.47,24.89,24.89,0,0,1,18-8.22h.89a30.15,30.15,0,0,1,26.89,16.48,1.8,1.8,0,0,0,3.21,0A30.15,30.15,0,0,1,173.68,39h.89C196.15,39.64,207.14,65.32,193.1,81.7Z" fill="#134921"/><path d="M193.1,81.7l-40.4,47.13-48.43-56.5a28.94,28.94,0,0,1-6.45-25.1,24.89,24.89,0,0,1,18-8.22h.89a30.15,30.15,0,0,1,26.89,16.48,1.8,1.8,0,0,0,3.21,0A30.15,30.15,0,0,1,173.68,39h.89C196.15,39.64,207.14,65.32,193.1,81.7Z" fill="#1a622f"/><path d="M162.5,74.8H148V62.06a2.85,2.85,0,1,0-5.7,0V74.8H127.89a2.85,2.85,0,0,0,0,5.7h14.45v34.42a2.85,2.85,0,0,0,5.7,0V80.5H162.5a2.85,2.85,0,0,0,0-5.7Z" fill="#eebf00"/><path d="M130,148.3l-6.28-3.39-12.18-27.49a6.69,6.69,0,0,0-8.81-3.4h0a6.68,6.68,0,0,0-3.51,8.53L90.12,102a6.68,6.68,0,1,0-12.22,5.42L73.34,97.2a6.68,6.68,0,0,0-12.21,5.41l3.6,8.31a7,7,0,0,0-13.11,4.72v0a.42.42,0,0,1,0,.1c17,38.88,15.71,35.79,16.31,37.48,2.26,6.49,6.49,8.91,10.79,13.64C86.83,175,95.89,174.1,103,179.59a4.87,4.87,0,0,1,1.85,3.84V223.2a3.93,3.93,0,0,0,4,3.81h27.39a3.93,3.93,0,0,0,4-3.81V166.68A21.87,21.87,0,0,0,130,148.3Z" fill="#ffa733"/><path d="M94.13,160.62h0a6.7,6.7,0,0,1-8.81-3.4L61.13,102.61a6.7,6.7,0,0,1,3.4-8.81h0a6.7,6.7,0,0,1,8.81,3.4l24.19,54.61A6.7,6.7,0,0,1,94.13,160.62Z" fill="#ffb655"/><path d="M110.9,165.44h0a6.69,6.69,0,0,1-8.81-3.4L77.9,107.43a6.71,6.71,0,0,1,3.4-8.81h0a6.71,6.71,0,0,1,8.82,3.4l24.18,54.61A6.7,6.7,0,0,1,110.9,165.44Z" fill="#ffa733"/><path d="M132.31,180.83h0a6.7,6.7,0,0,1-8.81-3.4l-24.18-54.6a6.69,6.69,0,0,1,3.4-8.81h0a6.69,6.69,0,0,1,8.81,3.4L135.72,172A6.71,6.71,0,0,1,132.31,180.83Z" fill="#ff9811"/><path d="M140.33,166.68V223.2a3.93,3.93,0,0,1-4,3.81H108.9a3.93,3.93,0,0,1-4-3.81V183.43a4.81,4.81,0,0,0-1.85-3.84c-7.12-5.49-16.18-4.63-24.25-12.72-4.3-4.72-8.53-7.14-10.79-13.63-.6-1.69.64,1.4-16.31-37.48,0,0,0-.07,0-.11h0a7,7,0,0,1,4-8.42,6.8,6.8,0,0,1,2.34-.54,7,7,0,0,1,6.81,4.24l10.69,23.72c2.48,5.84,6.11,8,11.24,13.46a7.23,7.23,0,0,0,10.16.07L95,146.34l-3.25-3.26a9,9,0,0,1,0-12.71,2.73,2.73,0,0,1,2-.79,10.47,10.47,0,0,1,4.66,1.67L130,148.3A21.87,21.87,0,0,1,140.33,166.68Z" fill="#ffb655"/><path d="M140.33,166.68v53.61H115.49a3.94,3.94,0,0,1-4-3.81V176.71a4.8,4.8,0,0,0-1.85-3.83c-7.12-5.49-16.18-4.64-24.25-12.72-4.3-4.73-8.53-7.15-10.79-13.64-.6-1.68.64,1.4-16.31-37.47l0-.11v0a7.19,7.19,0,0,1-.29-2.24,7,7,0,0,1,6.81,4.24l10.69,23.72c2.48,5.84,6.11,8,11.24,13.46a7.23,7.23,0,0,0,10.16.07L95,146.34l-3.26-3.26a9,9,0,0,1,0-12.71,2.77,2.77,0,0,1,2-.79,10.47,10.47,0,0,1,4.66,1.67L130,148.3A21.87,21.87,0,0,1,140.33,166.68Z" fill="#ffc477"/><path d="M160.4,148.3l6.27-3.39,12.18-27.49a6.7,6.7,0,0,1,8.82-3.4h0a6.69,6.69,0,0,1,3.5,8.53l9.1-20.53a6.68,6.68,0,1,1,12.21,5.42L217,97.2a6.68,6.68,0,1,1,12.21,5.41l-3.6,8.31a7,7,0,0,1,13.12,4.72v0l0,.1c-16.95,38.88-15.72,35.79-16.31,37.48-2.27,6.49-6.49,8.91-10.79,13.64-8.08,8.08-17.14,7.22-24.26,12.71a4.87,4.87,0,0,0-1.85,3.84V223.2a3.93,3.93,0,0,1-4,3.81H154.1a3.93,3.93,0,0,1-4-3.81V166.68A21.83,21.83,0,0,1,160.4,148.3Z" fill="#ffb655"/><path d="M196.26,160.62h0a6.71,6.71,0,0,0,8.81-3.4l24.18-54.61a6.7,6.7,0,0,0-3.4-8.81h0A6.7,6.7,0,0,0,217,97.2l-24.19,54.61A6.71,6.71,0,0,0,196.26,160.62Z" fill="#ffb655"/><path d="M179.48,165.44h0a6.7,6.7,0,0,0,8.82-3.4l24.18-54.61a6.7,6.7,0,0,0-3.4-8.81h0a6.7,6.7,0,0,0-8.81,3.4l-24.19,54.61A6.7,6.7,0,0,0,179.48,165.44Z" fill="#ffa733"/><path d="M158.07,180.83h0a6.69,6.69,0,0,0,8.81-3.4l24.19-54.6a6.69,6.69,0,0,0-3.4-8.81h0a6.7,6.7,0,0,0-8.82,3.4L154.67,172A6.69,6.69,0,0,0,158.07,180.83Z" fill="#ff9811"/><path d="M150.06,166.68V223.2a3.93,3.93,0,0,0,4,3.81h27.39a3.93,3.93,0,0,0,4-3.81V183.43a4.82,4.82,0,0,1,1.86-3.84c7.11-5.49,16.17-4.63,24.25-12.72,4.3-4.72,8.52-7.14,10.79-13.63.59-1.69-.64,1.4,16.31-37.48l0-.11h0a7,7,0,0,0-4-8.42,6.7,6.7,0,0,0-2.34-.54,7,7,0,0,0-6.81,4.24L215,134.64c-2.47,5.84-6.11,8-11.23,13.46a7.24,7.24,0,0,1-10.17.07l1.85-1.83,3.25-3.26a9,9,0,0,0,0-12.71,2.76,2.76,0,0,0-2-.79,10.39,10.39,0,0,0-4.65,1.67L160.4,148.3A21.85,21.85,0,0,0,150.06,166.68Z" fill="#ffb655"/><path d="M150.06,166.68v53.61h24.83a3.93,3.93,0,0,0,4-3.81V176.71a4.83,4.83,0,0,1,1.85-3.83c7.12-5.49,16.18-4.64,24.26-12.72,4.3-4.73,8.52-7.15,10.79-13.64.59-1.68-.64,1.4,16.31-37.47a.45.45,0,0,1,0-.11v0a6.89,6.89,0,0,0,.28-2.24,7,7,0,0,0-6.81,4.24L215,134.64c-2.47,5.84-6.11,8-11.23,13.46a7.24,7.24,0,0,1-10.17.07l1.85-1.83,3.25-3.26a9,9,0,0,0,0-12.71,2.75,2.75,0,0,0-2-.79,10.39,10.39,0,0,0-4.66,1.67L160.4,148.3A21.85,21.85,0,0,0,150.06,166.68Z" fill="#ffc477"/></g><path d="M270.28,239.08a8.43,8.43,0,0,1-2.66-6.51,8.77,8.77,0,0,1,2.46-6c1.32-1.32,3.32-2.35,6.71-2.35a18.64,18.64,0,0,1,3.19.26c.84.16,1.52.22,2.34.33.15,0,.19.11.19.24s-.06.44-.11,1.24,0,1.93-.06,2.26-.07.46-.2.46-.18-.15-.18-.46a3,3,0,0,0-.92-2.24,7.34,7.34,0,0,0-4.4-1.26c-2.93,0-4.29.86-5.06,1.61-1.61,1.54-2,3.5-2,5.74a7.94,7.94,0,0,0,7.94,8.06c1.65,0,2.95-.2,3.83-1.1a4.19,4.19,0,0,0,.81-1.85c.05-.24.09-.33.22-.33s.16.15.16.33a22.91,22.91,0,0,1-.49,2.81c-.13.42-.17.47-.57.64a12.78,12.78,0,0,1-4,.51C274.24,241.46,272,240.64,270.28,239.08Z" fill="#134921"/><path d="M287,232.42c0-2.89,0-3.42,0-4s-.2-.92-.84-1.06a4,4,0,0,0-.53,0c-.15,0-.28-.07-.28-.13s.11-.18.33-.18c.44,0,1,.05,2.26.07.11,0,4,0,4.47,0a3.81,3.81,0,0,0,.86-.11.56.56,0,0,1,.24-.07s.09,0,.09.15a9,9,0,0,0-.18,1c0,.38,0,.73-.07,1.15,0,.2,0,.33-.15.33s-.15-.09-.15-.24a2.27,2.27,0,0,0-.16-.71c-.13-.44-.33-.59-1.43-.66-.28,0-2.46,0-2.51,0s-.11,0-.11.17v5c0,.13,0,.22.14.22s2.5,0,3-.07.83-.08,1-.33.15-.17.24-.17.09,0,.09.13-.09.53-.16,1.17-.06,1-.08,1.34-.07.24-.16.24-.13-.13-.13-.29a2.21,2.21,0,0,0-.07-.53c-.08-.28-.22-.59-1-.65-.51,0-2.29-.09-2.64-.09-.13,0-.16.06-.16.15v1.61c0,.68,0,2.62,0,3,.05.81.16,1.23.62,1.43a4.26,4.26,0,0,0,1.61.2,6.74,6.74,0,0,0,1.67-.13c.66-.2.81-.64,1-1.46,0-.22.11-.3.2-.3s.13.19.13.33-.18,1.54-.24,1.91-.25.48-1,.48c-1.45,0-2.07,0-2.84,0s-1.78-.07-2.6-.07c-.5,0-.92.07-1.45.07-.2,0-.31,0-.31-.15a.18.18,0,0,1,.2-.16,1.78,1.78,0,0,0,.44-.06c.4-.09.66-.38.71-1.74,0-.75,0-1.65,0-3.33Z" fill="#134921"/><path d="M298.33,227.64c0-.68.07-.9.24-.9s.53.44.68.59,3.26,3.35,6.34,6.49c1.72,1.68,3.92,3.94,4.49,4.47l-.24-9.15c0-1.19-.16-1.59-.75-1.74a5.24,5.24,0,0,0-.86-.09c-.22,0-.26-.09-.26-.18s.17-.13.39-.13c.95,0,1.87.07,2.07.07s.9-.07,1.76-.07c.24,0,.31,0,.31.13s-.07.16-.2.18-.31,0-.55.07c-.5.11-.66.33-.66,1.65l0,11c0,1.1-.05,1.21-.2,1.21s-.38-.15-1.45-1.16c-.09-.05-3.15-3.08-5.06-5l-5-5.24.28,8.6c.05,1.52.18,2.09.73,2.22a3.73,3.73,0,0,0,.9.09c.18,0,.27.07.27.16s-.11.15-.36.15c-1.18,0-2-.07-2.13-.07s-1,.07-1.92.07c-.19,0-.32,0-.32-.15s.08-.16.3-.16a2.11,2.11,0,0,0,.68-.09c.49-.15.6-.74.6-2.35C298.33,227.9,298.35,231.29,298.33,227.64Z" fill="#134921"/><path d="M321.67,235.71c0,1.7,0,3.26.11,4.08.07.52.11.83.66,1a4.12,4.12,0,0,0,.86.09c.18,0,.26.07.26.13s-.06.18-.28.18c-1.12,0-2.42-.07-2.51-.07s-1.39.07-2,.07c-.24,0-.33,0-.33-.15s.07-.16.24-.16a4,4,0,0,0,.49,0c.42-.07.48-.33.57-1.08s.09-2.37.09-4v-7.85c-.73,0-1.89,0-2.78,0-1.4,0-1.71.24-2,.71a3.47,3.47,0,0,0-.33.68c-.07.15-.11.17-.2.17s-.11-.08-.11-.19.31-1.59.44-2.18c.07-.27.13-.35.2-.35s.57.19,1,.24c.77.09,1.38.11,1.41.11h7.21a10.22,10.22,0,0,0,1.59-.11,2.15,2.15,0,0,1,.42-.09c.08,0,.13.11.13.2,0,.61-.05,2.07-.05,2.24s-.08.27-.15.27-.15-.09-.15-.27a1.9,1.9,0,0,0,0-.31c-.08-.88-.37-1.1-2.59-1.12l-2.16,0Z" fill="#134921"/><path d="M330.76,232.42c0-2.91,0-3.44-.05-4s-.19-.93-.88-1.06a3.93,3.93,0,0,0-.52,0c-.16,0-.25,0-.25-.13s.07-.16.27-.16c.94,0,2.29.07,2.33.07.2,0,1.69-.07,2.31-.07a6.21,6.21,0,0,1,3.61.84,3.34,3.34,0,0,1,1.32,2.68,5.51,5.51,0,0,1-2.33,4.16c1.6,2,2.92,3.61,4.05,4.78A3.71,3.71,0,0,0,343,240.8c.15,0,.61,0,.68,0s.24.07.24.16-.09.15-.39.15h-1.54a5.14,5.14,0,0,1-2-.26c-.92-.4-1.58-1.39-2.72-2.86-.86-1.06-1.74-2.25-2.12-2.71a.3.3,0,0,0-.26-.13l-2.27,0c-.09,0-.11,0-.11.11v.3a41.3,41.3,0,0,0,.11,4.16c.07.53.13,1,.86,1.06.22,0,.46,0,.64,0s.28.07.28.13-.08.18-.3.18c-1.15,0-2.38-.07-2.47-.07-.35,0-1.32.07-1.91.07-.22,0-.31,0-.31-.18s.13-.13.26-.13a2.11,2.11,0,0,0,.49,0c.37-.07.5-.31.57-.84.11-.79.09-2.59.09-4.25Zm1.69,1.56c0,.11,0,.22.11.26a5.76,5.76,0,0,0,2,.29,2.64,2.64,0,0,0,1.47-.33,3.19,3.19,0,0,0,1.1-2.8c0-2.4-1.27-3.72-3.23-3.72a6.42,6.42,0,0,0-1.28.11.22.22,0,0,0-.13.2Z" fill="#134921"/><path d="M343.52,234a7.42,7.42,0,0,1,7.7-7.3c4.35,0,7.68,2.59,7.68,7a7.49,7.49,0,0,1-7.79,7.63A7.15,7.15,0,0,1,343.52,234Zm13.31.27c0-4.43-2.73-6.89-5.74-6.89s-5.53,1.89-5.53,6.05c0,4.31,2.4,7.17,6.1,7.17C353.13,240.64,356.83,239.9,356.83,234.31Z" fill="#134921"/><path d="M371.35,239.08a8.39,8.39,0,0,1-2.66-6.51,8.77,8.77,0,0,1,2.46-6c1.32-1.32,3.32-2.35,6.71-2.35a18.64,18.64,0,0,1,3.19.26c.84.16,1.52.22,2.33.33.16,0,.2.11.2.24s-.06.44-.11,1.24,0,1.93-.06,2.26-.07.46-.2.46-.18-.15-.18-.46a3,3,0,0,0-.92-2.24,7.34,7.34,0,0,0-4.4-1.26c-2.93,0-4.29.86-5.06,1.61-1.61,1.54-2,3.5-2,5.74a7.94,7.94,0,0,0,7.94,8.06c1.65,0,2.95-.2,3.83-1.1a4.19,4.19,0,0,0,.81-1.85c.05-.24.09-.33.22-.33s.16.15.16.33a22.91,22.91,0,0,1-.49,2.81c-.13.42-.17.47-.57.64a12.78,12.78,0,0,1-4,.51C375.31,241.46,373.09,240.64,371.35,239.08Z" fill="#134921"/><path d="M389.78,235c0,2.69.51,3.83,1.35,4.58a4.15,4.15,0,0,0,2.9,1,3.73,3.73,0,0,0,3-1.27c.88-1,1.08-2.69,1.08-4.6v-2.33c0-2.89,0-3.39,0-4s-.11-1-.82-1.08a5.35,5.35,0,0,0-.61,0c-.13,0-.22-.07-.22-.13s.11-.18.31-.18c.94,0,2,.07,2.13.07s1.06-.07,1.67-.07c.22,0,.31.05.31.16s-.09.15-.22.15l-.39,0c-.62.07-.71.46-.75,1.1s0,1.1,0,4v2c0,2-.21,4.36-1.78,5.7a5.71,5.71,0,0,1-4,1.32,6.13,6.13,0,0,1-4.12-1.32c-.94-.88-1.63-2.2-1.63-4.93v-2.72c0-2.91,0-3.42-.06-4s-.14-1-.82-1.06a4.63,4.63,0,0,0-.57,0c-.15,0-.24-.07-.24-.13s.09-.18.33-.18c.95,0,2.13.07,2.29.07s1.47-.07,2.07-.07c.24,0,.3.05.3.16s-.15.15-.26.15a4.64,4.64,0,0,0-.48,0c-.53.07-.62.44-.66,1.06s0,1.1,0,4Z" fill="#134921"/><path d="M406.88,235.76c0,2.53.09,3.81.46,4.16s.79.44,2.31.44c1,0,1.85,0,2.33-.62a2.78,2.78,0,0,0,.42-1.1c0-.17.07-.26.18-.26s.13.06.13.28a13.05,13.05,0,0,1-.27,2c-.13.44-.11.55-1.16.55-1.5,0-3.15-.11-5.35-.11-.72,0-1.16.07-1.93.07-.22,0-.36,0-.36-.18s.07-.13.25-.13a2.28,2.28,0,0,0,.52,0c.38-.07.51-.51.58-1a36.24,36.24,0,0,0,.08-4v-3.29c0-2.91,0-3.39,0-4s-.13-1-.88-1.1a4.61,4.61,0,0,0-.55,0c-.15,0-.24-.07-.24-.15s.11-.16.33-.16c.92,0,2.24.07,2.29.07.3,0,1.65-.07,2.26-.07.22,0,.29.07.29.16s-.11.15-.24.15-.38,0-.6,0c-.61.09-.75.44-.79,1.08s0,1.08,0,4Z" fill="#134921"/><path d="M419.84,235.71c0,1.7,0,3.26.11,4.08.06.52.11.83.66,1a4,4,0,0,0,.85.09c.18,0,.27.07.27.13s-.07.18-.29.18c-1.12,0-2.42-.07-2.51-.07s-1.38.07-1.95.07c-.25,0-.33,0-.33-.15s.06-.16.24-.16a3.85,3.85,0,0,0,.48,0c.42-.07.49-.33.57-1.08s.09-2.37.09-4v-7.85c-.72,0-1.89,0-2.77,0-1.41,0-1.72.24-2,.71a3,3,0,0,0-.33.68c-.07.15-.12.17-.2.17s-.11-.08-.11-.19.31-1.59.44-2.18c.06-.27.13-.35.2-.35s.57.19,1,.24c.77.09,1.39.11,1.41.11h7.22a10.18,10.18,0,0,0,1.58-.11,2.31,2.31,0,0,1,.42-.09c.09,0,.13.11.13.2,0,.61,0,2.07,0,2.24s-.09.27-.16.27-.15-.09-.15-.27a2.83,2.83,0,0,0,0-.31c-.09-.88-.38-1.1-2.6-1.12l-2.15,0Z" fill="#134921"/><path d="M429.91,235c0,2.69.51,3.83,1.34,4.58a4.18,4.18,0,0,0,2.91,1,3.74,3.74,0,0,0,3-1.27c.88-1,1.08-2.69,1.08-4.6v-2.33c0-2.89,0-3.39,0-4s-.11-1-.82-1.08a5.51,5.51,0,0,0-.61,0c-.14,0-.22-.07-.22-.13s.11-.18.3-.18c.95,0,2.05.07,2.14.07s1.05-.07,1.67-.07c.22,0,.31.05.31.16s-.09.15-.22.15l-.4,0c-.61.07-.7.46-.75,1.1s0,1.1,0,4v2c0,2-.22,4.36-1.78,5.7a5.72,5.72,0,0,1-4,1.32,6.12,6.12,0,0,1-4.11-1.32c-.95-.88-1.63-2.2-1.63-4.93v-2.72a39.44,39.44,0,0,0-.07-4c0-.59-.13-1-.81-1.06a4.78,4.78,0,0,0-.57,0c-.16,0-.24-.07-.24-.13s.08-.18.33-.18c.94,0,2.13.07,2.28.07s1.48-.07,2.07-.07c.24,0,.31.05.31.16s-.15.15-.26.15a4.81,4.81,0,0,0-.49,0c-.53.07-.61.44-.66,1.06s0,1.1,0,4Z" fill="#134921"/><path d="M445.22,232.42c0-2.91,0-3.44,0-4s-.2-.93-.88-1.06a4,4,0,0,0-.53,0c-.15,0-.24,0-.24-.13s.06-.16.26-.16c.95,0,2.29.07,2.34.07s1.69-.07,2.3-.07a6.18,6.18,0,0,1,3.61.84,3.34,3.34,0,0,1,1.32,2.68,5.48,5.48,0,0,1-2.33,4.16c1.61,2,2.93,3.61,4.05,4.78a3.75,3.75,0,0,0,2.33,1.34c.16,0,.62,0,.68,0s.25.07.25.16-.09.15-.4.15H456.4a5.08,5.08,0,0,1-2-.26c-.93-.4-1.59-1.39-2.73-2.86-.86-1.06-1.74-2.25-2.11-2.71a.32.32,0,0,0-.27-.13l-2.26,0c-.09,0-.11,0-.11.11v.3a41.3,41.3,0,0,0,.11,4.16c.06.53.13,1,.85,1.06.22,0,.47,0,.64,0s.29.07.29.13-.09.18-.31.18c-1.14,0-2.37-.07-2.46-.07-.36,0-1.32.07-1.92.07-.22,0-.31,0-.31-.18s.14-.13.27-.13a2,2,0,0,0,.48,0c.38-.07.51-.31.57-.84.11-.79.09-2.59.09-4.25Zm1.7,1.56c0,.11,0,.22.11.26a5.67,5.67,0,0,0,2,.29,2.64,2.64,0,0,0,1.47-.33,3.19,3.19,0,0,0,1.1-2.8c0-2.4-1.28-3.72-3.23-3.72a6.34,6.34,0,0,0-1.28.11.2.2,0,0,0-.13.2Z" fill="#134921"/><path d="M461.46,235.78a.23.23,0,0,0-.22.18l-1,2.75a5.48,5.48,0,0,0-.37,1.56c0,.4.24.57.72.57h.16c.19,0,.26.07.26.16s-.18.15-.33.15c-.48,0-1.5-.07-1.74-.07s-1.19.07-2.11.07c-.24,0-.35,0-.35-.15s.09-.16.26-.16a3.39,3.39,0,0,0,.44,0c1-.09,1.32-.81,1.7-1.74l4.4-11.59c.24-.64.31-.75.46-.75s.2.09.44.7,3.3,8.41,4.47,11.16c.72,1.74,1.36,2,1.67,2.13a2.08,2.08,0,0,0,.75.11c.15,0,.26,0,.26.16s-.09.15-.33.15-1.87,0-3.34,0c-.42,0-.55-.05-.55-.16a.18.18,0,0,1,.15-.15c.09-.05.22-.16.09-.49l-1.74-4.42a.21.21,0,0,0-.18-.11Zm3.74-.77c.09,0,.09-.06.07-.13L463.53,230c-.11-.31-.14-.31-.24,0l-1.66,4.86c0,.09,0,.13.05.13Z" fill="#134921"/><path d="M475.85,235.76c0,2.53.08,3.81.46,4.16s.79.44,2.31.44c1,0,1.85,0,2.33-.62a2.78,2.78,0,0,0,.42-1.1c0-.17.07-.26.17-.26s.14.06.14.28a14.47,14.47,0,0,1-.27,2c-.13.44-.11.55-1.16.55-1.5,0-3.15-.11-5.35-.11-.73,0-1.17.07-1.94.07-.22,0-.35,0-.35-.18s.07-.13.24-.13a2.32,2.32,0,0,0,.53,0c.38-.07.51-.51.57-1a33.49,33.49,0,0,0,.09-4v-3.29c0-2.91,0-3.39,0-4s-.13-1-.88-1.1a4.7,4.7,0,0,0-.55,0c-.16,0-.24-.07-.24-.15s.11-.16.33-.16c.92,0,2.24.07,2.28.07.31,0,1.65-.07,2.27-.07.22,0,.29.07.29.16s-.11.15-.25.15-.37,0-.59,0c-.62.09-.75.44-.79,1.08s0,1.08,0,4Z" fill="#134921"/><path d="M492.72,232.42c0-2.89,0-3.42,0-4s-.2-.92-.84-1.06a4,4,0,0,0-.53,0c-.15,0-.28-.07-.28-.13s.11-.18.33-.18c.44,0,1,.05,2.26.07.11,0,4,0,4.47,0a3.81,3.81,0,0,0,.86-.11.56.56,0,0,1,.24-.07s.09,0,.09.15a9,9,0,0,0-.18,1c0,.38,0,.73-.06,1.15,0,.2-.05.33-.16.33s-.15-.09-.15-.24a2,2,0,0,0-.16-.71c-.13-.44-.33-.59-1.43-.66-.28,0-2.46,0-2.51,0s-.11,0-.11.17v5c0,.13,0,.22.14.22s2.51,0,3-.07.83-.08,1-.33.15-.17.24-.17.09,0,.09.13-.09.53-.16,1.17-.06,1-.08,1.34-.07.24-.16.24-.13-.13-.13-.29a2.77,2.77,0,0,0-.06-.53c-.09-.28-.22-.59-1.06-.65-.51,0-2.29-.09-2.64-.09-.13,0-.16.06-.16.15v1.61c0,.68,0,2.62,0,3,.05.81.16,1.23.62,1.43a4.26,4.26,0,0,0,1.61.2,6.71,6.71,0,0,0,1.67-.13c.66-.2.81-.64,1-1.46,0-.22.11-.3.2-.3s.13.19.13.33-.18,1.54-.24,1.91-.25.48-1,.48c-1.45,0-2.07,0-2.84,0s-1.78-.07-2.6-.07c-.5,0-.92.07-1.45.07-.2,0-.31,0-.31-.15a.18.18,0,0,1,.2-.16,1.78,1.78,0,0,0,.44-.06c.4-.09.66-.38.71-1.74,0-.75,0-1.65,0-3.33Z" fill="#134921"/><path d="M510.89,240.86c-.31-.15-.33-.24-.33-.83,0-1.1.09-2,.11-2.33s.07-.36.18-.36.15.07.15.25a3.67,3.67,0,0,0,.07.81c.33,1.63,1.78,2.24,3.25,2.24a2.93,2.93,0,0,0,3.15-2.92c0-1.52-.64-2.4-2.53-4l-1-.82c-2.33-1.91-2.86-3.28-2.86-4.77,0-2.36,1.76-4,4.55-4a8.66,8.66,0,0,1,2.05.22,3.53,3.53,0,0,0,.77.11c.18,0,.22,0,.22.15s-.09.84-.09,2.33c0,.36,0,.51-.15.51s-.15-.11-.18-.29a4,4,0,0,0-.28-1.1c-.14-.24-.73-1.16-2.75-1.16a2.5,2.5,0,0,0-2.71,2.55c0,1.25.57,2.05,2.69,3.7l.61.48c2.6,2,3.21,3.41,3.21,5.17a4.54,4.54,0,0,1-1.87,3.65,5.77,5.77,0,0,1-3.32.93A6.69,6.69,0,0,1,510.89,240.86Z" fill="#134921"/><path d="M522,234a7.42,7.42,0,0,1,7.7-7.3c4.36,0,7.68,2.59,7.68,7a7.48,7.48,0,0,1-7.79,7.63A7.15,7.15,0,0,1,522,234Zm13.31.27c0-4.43-2.73-6.89-5.74-6.89s-5.53,1.89-5.53,6.05c0,4.31,2.4,7.17,6.1,7.17C531.57,240.64,535.27,239.9,535.27,234.31Z" fill="#134921"/><path d="M542.46,239.39a7.15,7.15,0,0,1-2.35-5.61,7.34,7.34,0,0,1,2.22-5.08c1.19-1.15,3-2,5.92-2a19.55,19.55,0,0,1,2.9.24,18.86,18.86,0,0,0,1.94.24c.18,0,.2.11.2.22s-.07.38-.11,1.08,0,1.76,0,2-.06.42-.17.42-.18-.13-.18-.42a2.6,2.6,0,0,0-.86-1.91,6.57,6.57,0,0,0-3.89-1.12c-2.44,0-3.57.68-4.23,1.27A6,6,0,0,0,542,233.6a6.89,6.89,0,0,0,6.85,6.87c1.49,0,2.59-.16,3.36-.9A3,3,0,0,0,553,238c0-.22.11-.33.24-.33s.11.16.11.31a19.49,19.49,0,0,1-.44,2.44.72.72,0,0,1-.5.55,10.64,10.64,0,0,1-3.48.44C546,241.39,544,240.73,542.46,239.39Z" fill="#134921"/><path d="M557.71,232.42c0-2.91,0-3.44,0-4s-.18-.93-.64-1a5,5,0,0,0-.51-.07c-.15,0-.24-.07-.24-.15s.09-.16.33-.16c.68,0,1.94.07,2,.07s1.37-.07,2-.07c.22,0,.33.05.33.16s-.06.13-.24.15l-.4,0c-.63.09-.7.42-.74,1.06s0,1.1,0,4v3.29c0,1.7,0,3.24.09,4,.09.64.18.88.75,1a4.77,4.77,0,0,0,.84.09c.19,0,.24.07.24.16s-.09.15-.31.15c-1.12,0-2.4-.07-2.51-.07s-1.36.07-2,.07c-.2,0-.35,0-.35-.15s.09-.16.29-.16a2.85,2.85,0,0,0,.52-.06c.38-.09.44-.53.51-1.06a39.06,39.06,0,0,0,.11-4Z" fill="#134921"/><path d="M567.3,235.78c-.11,0-.17.07-.22.18l-1,2.75a5.48,5.48,0,0,0-.37,1.56c0,.4.24.57.73.57h.15c.2,0,.26.07.26.16s-.17.15-.33.15c-.48,0-1.49-.07-1.73-.07s-1.19.07-2.12.07c-.24,0-.35,0-.35-.15s.09-.16.27-.16a3.32,3.32,0,0,0,.43,0c1-.09,1.33-.81,1.7-1.74l4.4-11.59c.24-.64.31-.75.46-.75s.2.09.44.7,3.3,8.41,4.47,11.16c.72,1.74,1.36,2,1.67,2.13a2.13,2.13,0,0,0,.75.11c.15,0,.26,0,.26.16s-.08.15-.33.15-1.87,0-3.34,0c-.42,0-.55-.05-.55-.16a.18.18,0,0,1,.15-.15c.09-.05.22-.16.09-.49l-1.74-4.42a.2.2,0,0,0-.17-.11ZM571,235c.09,0,.09-.06.07-.13L569.37,230c-.11-.31-.13-.31-.24,0l-1.65,4.86c-.05.09,0,.13,0,.13Z" fill="#134921"/><path d="M581.69,235.76c0,2.53.09,3.81.46,4.16s.79.44,2.31.44c1,0,1.85,0,2.33-.62a2.78,2.78,0,0,0,.42-1.1c0-.17.07-.26.18-.26s.13.06.13.28a14.22,14.22,0,0,1-.26,2c-.14.44-.11.55-1.17.55-1.5,0-3.15-.11-5.35-.11-.72,0-1.16.07-1.93.07-.22,0-.35,0-.35-.18s.06-.13.24-.13a2.28,2.28,0,0,0,.52,0c.38-.07.51-.51.58-1a36.24,36.24,0,0,0,.08-4v-3.29c0-2.91,0-3.39,0-4s-.13-1-.88-1.1a4.61,4.61,0,0,0-.55,0c-.15,0-.24-.07-.24-.15s.11-.16.33-.16c.92,0,2.24.07,2.29.07.31,0,1.65-.07,2.26-.07.22,0,.29.07.29.16s-.11.15-.24.15-.38,0-.6,0c-.61.09-.74.44-.79,1.08s0,1.08,0,4Z" fill="#134921"/></svg>