<svg id="paróquia" xmlns="http://www.w3.org/2000/svg" viewBox="0 0 606 262.28"><title>tit_paroquia</title><g id="Layer_2" data-name="Layer 2"><path d="M0,0H606V262H0Z" fill="#f0ecd7"/><path d="M0,214l606,3v45q-178.36.33-356.76.27Q124.62,262.23,0,262Z" fill="#dcd7c6"/><polygon points="72.24 231.91 189.48 231.91 189.48 226.47 72.24 226.47 72.24 231.91" fill="#134921"/><polygon points="165.63 142.82 189.28 142.82 189.28 191.96 165.63 191.96 165.63 142.82" fill="#f9f9f9"/><polygon points="72.25 142.82 95.9 142.82 95.9 191.96 72.25 191.96 72.25 142.82" fill="#f9f9f9"/><polygon points="111.6 98.24 150.12 98.24 150.12 180.33 111.6 180.33 111.6 98.24" fill="#f9f9f9"/><polygon points="72.24 190.13 130.83 174.39 189.41 189.94 189.41 226.47 72.24 226.47 72.24 190.13" fill="#f9f9f9"/><polygon points="131 169.54 62.05 187.95 62.05 192.85 131 174.44 199.95 192.85 199.95 187.95 131 169.54" fill="#134921"/><path d="M130.83,179.43c4.49,0,8.13,2.65,8.13,5.9v.09h0v12H122.7v-12h0v-.09C122.7,182.08,126.34,179.43,130.83,179.43Z" fill="#fff"/><polygon points="93.38 199.95 109.64 199.95 109.64 217.38 93.38 217.38 93.38 199.95" fill="#fff"/><polygon points="94.74 200.68 108.29 200.68 108.29 216.66 94.74 216.66 94.74 200.68" fill="#f0ecd7"/><polygon points="100.8 200.68 102.23 200.68 102.23 205.58 108.29 205.58 108.29 206.31 102.23 206.31 102.23 211.03 108.29 211.03 108.29 211.76 102.23 211.76 102.23 216.66 100.8 216.66 100.8 211.76 94.74 211.76 94.74 211.03 100.8 211.03 100.8 206.31 94.74 206.31 94.74 205.58 100.8 205.58 100.8 200.68" fill="#fff"/><polygon points="124.05 185.06 137.6 185.06 137.6 196.32 124.05 196.32 124.05 185.06" fill="#f0ecd7"/><polygon points="130.12 180.16 131.54 180.16 131.54 196.32 130.12 196.32 130.12 180.16" fill="#fff"/><polygon points="124.05 190.19 137.6 190.19 137.6 190.91 124.05 190.91 124.05 190.19" fill="#fff"/><path d="M124,184.33h13.64c-.54-2.4-3.43-4.19-6.82-4.19S124.55,181.93,124,184.33Z" fill="#f0ecd7"/><path d="M136.47,182.26l-3.73,2.07H129l-3.8-2.06a5.78,5.78,0,0,1,1-.79l4,2.17v-3.48h1.42v3.51l4-2.21A6.13,6.13,0,0,1,136.47,182.26Z" fill="#fff"/><polygon points="120.1 205.56 130.86 202.52 141.62 205.56 141.62 226.47 120.1 226.47 120.1 205.56" fill="#ededed"/><polygon points="130.86 200.4 117.53 204.19 117.53 206.3 130.86 202.52 144.19 206.3 144.19 204.19 130.86 200.4" fill="#134921"/><polygon points="124.04 207.21 137.68 207.21 137.68 226.47 124.04 226.47 124.04 207.21" fill="#134921"/><polygon points="126 208.23 135.71 208.23 135.71 225.45 126 225.45 126 208.23" fill="#1d6b34"/><polygon points="130.28 208.23 131.43 208.23 131.43 225.45 130.28 225.45 130.28 208.23" fill="#134921"/><polygon points="126 216.24 135.71 216.24 135.71 217.44 126 217.44 126 216.24" fill="#134921"/><path d="M124.88,216.51a.55.55,0,0,1,.37.13h1.59v.46h-1.58a.54.54,0,0,1-.38.14c-.27,0-.49-.16-.49-.36S124.61,216.51,124.88,216.51Z" fill="#fff"/><polygon points="119 230.1 142.71 230.1 142.71 226.47 119 226.47 119 230.1" fill="#fff"/><polygon points="116.24 230.1 145.48 230.1 145.48 233.73 116.24 233.73 116.24 230.1" fill="#f9f9f9"/><polygon points="112.6 237.36 149.12 237.36 149.12 233.73 112.6 233.73 112.6 237.36" fill="#fff"/><polygon points="153.5 199.95 169.75 199.95 169.75 217.38 153.5 217.38 153.5 199.95" fill="#fff"/><polygon points="154.85 200.68 168.4 200.68 168.4 216.66 154.85 216.66 154.85 200.68" fill="#f0ecd7"/><polygon points="160.91 200.68 162.34 200.68 162.34 205.58 168.4 205.58 168.4 206.31 162.34 206.31 162.34 211.03 168.4 211.03 168.4 211.76 162.34 211.76 162.34 216.66 160.91 216.66 160.91 211.76 154.85 211.76 154.85 211.03 160.91 211.03 160.91 206.31 154.85 206.31 154.85 205.58 160.91 205.58 160.91 200.68" fill="#fff"/><polygon points="107.83 133.47 153.88 133.47 153.88 136.38 107.83 136.38 107.83 133.47" fill="#ededed"/><polygon points="109.23 139.29 152.49 139.29 152.49 136.38 109.23 136.38 109.23 139.29" fill="#f3f3f3"/><polygon points="107.83 98.24 153.88 98.24 153.88 101.14 107.83 101.14 107.83 98.24" fill="#ededed"/><polygon points="109.23 104.05 152.49 104.05 152.49 101.14 109.23 101.14 109.23 104.05" fill="#f3f3f3"/><polygon points="111.6 98.24 150.12 98.24 130.72 64.09 111.6 98.24" fill="#134921"/><polygon points="128.59 25.86 133.12 25.86 133.12 69.08 128.59 69.08 128.59 25.86" fill="#134921"/><polygon points="121.08 35.35 140.64 35.35 140.64 39.08 121.08 39.08 121.08 35.35" fill="#134921"/><path d="M130.86,144.2c5.35,0,9.68,3.15,9.68,7v.1h0v14.28H121.17V151.33h0a.34.34,0,0,1,0-.1C121.17,147.35,125.51,144.2,130.86,144.2Z" fill="#fff"/><polygon points="122.79 150.9 138.93 150.9 138.93 164.31 122.79 164.31 122.79 150.9" fill="#f0ecd7"/><polygon points="130.01 145.06 131.71 145.06 131.71 164.31 130.01 164.31 130.01 145.06" fill="#fff"/><polygon points="122.79 157.01 138.93 157.01 138.93 157.87 122.79 157.87 122.79 157.01" fill="#fff"/><path d="M122.74,150H139c-.64-2.86-4.08-5-8.12-5S123.38,147.17,122.74,150Z" fill="#f0ecd7"/><path d="M137.59,147.57,133.14,150h-4.49l-4.52-2.45a7,7,0,0,1,1.13-.94l4.76,2.58v-4.14h1.7v4.18l4.73-2.63A6.56,6.56,0,0,1,137.59,147.57Z" fill="#fff"/><path d="M130.86,109.4c5.35,0,9.68,3.15,9.68,7v.1h0v14.28H121.17V116.53h0a.34.34,0,0,1,0-.1C121.17,112.55,125.51,109.4,130.86,109.4Z" fill="#fff"/><polygon points="122.79 116.1 138.93 116.1 138.93 129.51 122.79 129.51 122.79 116.1" fill="#f0ecd7"/><polygon points="130.01 110.27 131.71 110.27 131.71 129.51 130.01 129.51 130.01 110.27" fill="#fff"/><polygon points="122.79 122.21 138.93 122.21 138.93 123.08 122.79 123.08 122.79 122.21" fill="#fff"/><path d="M122.74,115.24H139c-.64-2.86-4.08-5-8.12-5S123.38,112.38,122.74,115.24Z" fill="#f0ecd7"/><path d="M137.59,112.77l-4.45,2.47h-4.49l-4.52-2.46a7,7,0,0,1,1.13-.94l4.76,2.58v-4.14h1.7v4.18l4.73-2.63A6.56,6.56,0,0,1,137.59,112.77Z" fill="#fff"/><polygon points="72.25 142.87 95.9 142.87 83.99 108.72 72.25 142.87" fill="#134921"/><polygon points="69.46 142.82 98.69 142.82 98.69 145.73 69.46 145.73 69.46 142.82" fill="#ededed"/><polygon points="70.35 148.64 97.8 148.64 97.8 145.73 70.35 145.73 70.35 148.64" fill="#f3f3f3"/><path d="M84.08,159.85c3.76,0,6.82,2.22,6.82,5a.22.22,0,0,1,0,.08h0v10.05H77.26V164.88h0v-.08C77.26,162.07,80.31,159.85,84.08,159.85Z" fill="#fff"/><polygon points="78.39 164.57 89.76 164.57 89.76 174.02 78.39 174.02 78.39 164.57" fill="#f0ecd7"/><polygon points="83.48 160.46 84.67 160.46 84.67 174.02 83.48 174.02 83.48 160.46" fill="#fff"/><polygon points="78.39 168.88 89.76 168.88 89.76 169.49 78.39 169.49 78.39 168.88" fill="#fff"/><path d="M78.35,164H89.8c-.46-2-2.88-3.51-5.72-3.51S78.81,162,78.35,164Z" fill="#f0ecd7"/><path d="M88.81,162.22,85.68,164H82.52l-3.18-1.73a4.77,4.77,0,0,1,.8-.66l3.34,1.82v-2.92h1.2v2.94L88,161.56A4.77,4.77,0,0,1,88.81,162.22Z" fill="#fff"/><polygon points="83.08 96.82 84.72 96.82 84.72 112.44 83.08 112.44 83.08 96.82" fill="#134921"/><polygon points="80.36 100.25 87.43 100.25 87.43 101.6 80.36 101.6 80.36 100.25" fill="#134921"/><polygon points="165.63 142.87 189.28 142.87 177.37 108.72 165.63 142.87" fill="#134921"/><polygon points="162.84 142.82 192.06 142.82 192.06 145.73 162.84 145.73 162.84 142.82" fill="#ededed"/><polygon points="163.72 148.64 191.18 148.64 191.18 145.73 163.72 145.73 163.72 148.64" fill="#f3f3f3"/><path d="M177.45,159.85c3.77,0,6.82,2.22,6.82,5v.08h0v10.05H170.63V164.88h0v-.08C170.63,162.07,173.68,159.85,177.45,159.85Z" fill="#fff"/><polygon points="171.77 164.57 183.13 164.57 183.13 174.02 171.77 174.02 171.77 164.57" fill="#f0ecd7"/><polygon points="176.85 160.46 178.05 160.46 178.05 174.02 176.85 174.02 176.85 160.46" fill="#fff"/><polygon points="171.77 168.88 183.13 168.88 183.13 169.49 171.77 169.49 171.77 168.88" fill="#dfdfdf"/><path d="M171.73,164h11.44c-.45-2-2.87-3.51-5.72-3.51S172.18,162,171.73,164Z" fill="#f0ecd7"/><path d="M182.19,162.22,179.06,164h-3.17l-3.18-1.73a4.77,4.77,0,0,1,.8-.66l3.35,1.82v-2.92h1.2v2.94l3.33-1.85A4.77,4.77,0,0,1,182.19,162.22Z" fill="#fff"/><polygon points="176.45 96.82 178.09 96.82 178.09 112.44 176.45 112.44 176.45 96.82" fill="#785448"/><polygon points="173.74 100.25 180.8 100.25 180.8 101.6 173.74 101.6 173.74 100.25" fill="#785448"/><path d="M56.2,184.26a.91.91,0,0,1-.36.83c.66-.54,1,.11,1,.11,1,.16,0,.93,0,.93-.35.13-.58-.24-.58-.24-.89.44-.39.69-.39.69.66-.15.26.42.26.42l-.4.06-.48.26,0,.17.37-.05,0,.29-.44.2.13.32c.5.72-1.17,1.06-1.17,1.06-.27,2.14-2.27,1.37-2.74,1.15a3.49,3.49,0,0,1-1.15.35,3.86,3.86,0,0,1-2.77-.68,3.1,3.1,0,0,1-1.23,0c-.68.07-.41-.92-.41-.92-.53,1.1-1.31.14-1.31.14a.74.74,0,0,1,.15-1.26c-.43-.48.16-.87.16-.87-1.12-.21-1.38-.8-1.43-1.16a10,10,0,0,1-1.11-.41,9.59,9.59,0,0,1-9.68-.82,7.77,7.77,0,0,1-3.05-.13c-1.69.18-1-2.29-1-2.29-.91,1.89-2.1,1.35-2.75.83.12.58-1.27.87-1.27.87-.26,2.14-2.26,1.37-2.73,1.16a4.27,4.27,0,0,1-1.15.34,3.92,3.92,0,0,1-2.77-.67,3,3,0,0,1-1.23-.06c-.68.08-.41-.93-.41-.93-.53,1.11-1.31.15-1.31.15a.73.73,0,0,1,.16-1.25.59.59,0,0,1,.15-.89c-1.67-.31-1.43-1.45-1.43-1.45a1.46,1.46,0,0,1,0-1.86.87.87,0,0,1-.23-.25,3.86,3.86,0,0,1-2.58-.7,3.16,3.16,0,0,1-1.24-.05c-.68.07-.41-.93-.41-.93-.3.63-.69.6-1,.44-.17-.44-.34-.87-.5-1.31a1.1,1.1,0,0,1,.3-.25c-.43-.48.16-.89.16-.89a2.35,2.35,0,0,1-1-.41c-.26-.75-.52-1.5-.77-2.26a1.54,1.54,0,0,1,.31-.66.67.67,0,0,1-.06-1.08c-.21-.67.73-.65.73-.65-.94-1.8.73-2,.73-2a.65.65,0,0,1,1.06-.34C9.7,166.3,11,167,11,167c-.39-.82.84-.83.84-.83a.88.88,0,0,1,.65-.1,1.33,1.33,0,0,1,0-.17,1.45,1.45,0,0,1,0-1.86.69.69,0,0,1-.05-1.1.39.39,0,0,1,.19-.53,3.07,3.07,0,0,1,.46-3.1A1.43,1.43,0,0,1,13,157c-.45-1.39,1.53-1.34,1.53-1.34-2-3.78,1.53-4.2,1.53-4.2a1.37,1.37,0,0,1,2.21-.72c.8-2,3.55-.48,3.55-.48-.81-1.73,1.78-1.75,1.78-1.75,1.73-1,2.94,1.09,2.94,1.09,1-1.34,1.89-1.81,2.57-1.84a1.53,1.53,0,0,1,1.32-2.1.91.91,0,0,1,1.47-.48c.54-1.34,2.38-.33,2.38-.33-.54-1.15,1.19-1.16,1.19-1.16,1.16-.65,2,.73,2,.73,2-2.69,3.06-.15,3.06-.15,3.49-1.71,4.06,1.52,4.06,1.52.71-.91,1.67,0,2.59,1.34a1.67,1.67,0,0,1-.12,2.09,3,3,0,0,1,1,1c2.72-3.55,4-.19,4-.19,4.6-2.27,5.35,2,5.35,2,.94-1.2,2.2,0,3.42,1.76s-.58,3.21-.58,3.21c1.27,1.11-.66,1.86-.66,1.86a1.41,1.41,0,0,1-.25,2.19c1.22-1,1.81.22,1.81.22,1.81.29-.08,1.72-.08,1.72a1,1,0,0,1-1.08-.43c-.89.44-1,.77-1,1a2.13,2.13,0,0,1,2.66,1.75c.64-.83,1.5,0,2.34,1.2a1.66,1.66,0,0,1-.41,2.2c.88.76-.45,1.28-.45,1.28.71.67,0,1.34-.17,1.5.84-.69,1.25.14,1.25.14,1.23.2-.06,1.18-.06,1.18a.65.65,0,0,1-.74-.3,1.63,1.63,0,0,0-.6.43,1.89,1.89,0,0,1,1,1.34c.49-.65,1.17,0,1.84.95a1.32,1.32,0,0,1-.32,1.73c.69.6-.36,1-.36,1a.76.76,0,0,1-.13,1.18c.66-.54,1,.11,1,.11,1,.16,0,.93,0,.93a.5.5,0,0,1-.58-.23c-.89.44-.4.69-.4.69.68-.15.28.43.28.43l-.41,0-.49.28,0,.16.37,0,0,.28-.44.21.13.33c.51.71-1.19,1.06-1.19,1.06-.26,2.15-2.28,1.38-2.74,1.16a4.14,4.14,0,0,1-1.15.35,4,4,0,0,1-2.79-.68Z" fill="#134921"/><path d="M36.53,218.12a22.23,22.23,0,0,1,.11-4.53l-1-11.32s-.17-4.16.36-5.36c0,0,8.16-7.92,9.81-8.35,0,0,1.19-10.37,2.67-10.57L47,177.11s-1.32,9.79-2.29,11.28c0,0-3.76-14.15-3.18-15.64l-.54.43s1.76,14.12,1.44,15.1L40,190.76s-.82,2.5-1.32,1.37c0,0-4.6-2.81-2.33-17.58l-1.85-1.2L33,183.08s1.07,0,.6,2.46c0,0,1.87,5.88,1.58,6.46,0,0-.45,2.79-1.67,2l-2.58-6.08s-2.17-8.68-.7-10l-.56-.7s-1,4.31-.19,7.45c0,0-3.94-4.37-5.17-4.36l0,.79s.75-1.55,4.82,4.4c0,0,2.8,7.88,2.9,9.43a46.79,46.79,0,0,0-.13,5.6s2.08,10.7-.76,15.33l1.26,1.47Z" fill="#4e342e"/><path d="M242.94,184.26a.91.91,0,0,1-.36.83c.66-.54,1,.11,1,.11,1,.16-.05.93-.05.93-.35.13-.58-.24-.58-.24-.89.44-.39.69-.39.69.66-.15.27.42.27.42l-.41.06-.48.26,0,.17.37-.05,0,.29-.43.2.13.32c.5.72-1.18,1.06-1.18,1.06-.27,2.14-2.27,1.37-2.74,1.15a3.44,3.44,0,0,1-1.14.35,3.85,3.85,0,0,1-2.77-.68,3.1,3.1,0,0,1-1.23,0c-.69.07-.42-.92-.42-.92-.53,1.1-1.3.14-1.3.14a.74.74,0,0,1,.15-1.26c-.43-.48.16-.87.16-.87-1.13-.21-1.39-.8-1.44-1.16a9,9,0,0,1-1.1-.41,9.62,9.62,0,0,1-9.69-.82,7.8,7.8,0,0,1-3-.13c-1.69.18-1-2.29-1-2.29-.9,1.89-2.1,1.35-2.75.83.12.58-1.27.87-1.27.87-.26,2.14-2.26,1.37-2.73,1.16a4.27,4.27,0,0,1-1.15.34,3.92,3.92,0,0,1-2.77-.67,3,3,0,0,1-1.22-.06c-.69.08-.42-.93-.42-.93-.52,1.11-1.31.15-1.31.15a.74.74,0,0,1,.16-1.25c-.42-.49.16-.89.16-.89-1.68-.31-1.44-1.45-1.44-1.45a1.46,1.46,0,0,1,0-1.86,1,1,0,0,1-.23-.25,3.83,3.83,0,0,1-2.57-.7,3.14,3.14,0,0,1-1.24-.05c-.69.07-.42-.93-.42-.93-.53,1.11-1.31.15-1.31.15a.74.74,0,0,1,.15-1.27c-.43-.48.17-.89.17-.89-1.69-.31-1.46-1.46-1.46-1.46a1.47,1.47,0,0,1,0-1.87.67.67,0,0,1,0-1.08c-.22-.67.72-.64.72-.64-.94-1.8.74-2,.74-2a.65.65,0,0,1,1.05-.34c.38-1,1.7-.24,1.7-.24-.39-.82.84-.83.84-.83a.92.92,0,0,1,.65-.1.5.5,0,0,1,0-.17,1.46,1.46,0,0,1,0-1.86.69.69,0,0,1-.05-1.1.4.4,0,0,1,.2-.53,3.05,3.05,0,0,1,.45-3.1,1.43,1.43,0,0,1-.11-2.29c-.46-1.39,1.53-1.34,1.53-1.34-2-3.78,1.52-4.2,1.52-4.2a1.37,1.37,0,0,1,2.21-.71c.8-2,3.56-.49,3.56-.49-.82-1.73,1.77-1.75,1.77-1.75,1.73-1,3,1.09,3,1.09,1-1.34,1.88-1.81,2.56-1.84a1.53,1.53,0,0,1,1.32-2.1.91.91,0,0,1,1.48-.48c.54-1.34,2.38-.33,2.38-.33-.54-1.15,1.19-1.16,1.19-1.16,1.16-.65,2,.73,2,.73,2.06-2.69,3.06-.15,3.06-.15,3.5-1.71,4.07,1.52,4.07,1.52.71-.91,1.67,0,2.59,1.34a1.67,1.67,0,0,1-.13,2.09,3.1,3.1,0,0,1,1,1c2.72-3.55,4-.19,4-.19,4.61-2.27,5.36,2,5.36,2,.93-1.21,2.2,0,3.42,1.75S247,157,247,157c1.27,1.11-.66,1.86-.66,1.86,1,1,0,2-.25,2.19,1.22-1,1.82.22,1.82.22,1.8.29-.09,1.72-.09,1.72a1,1,0,0,1-1.08-.43c-.89.44-1,.77-1,1a2.12,2.12,0,0,1,2.65,1.75c.64-.82,1.51,0,2.34,1.2a1.67,1.67,0,0,1-.4,2.2c.87.76-.45,1.28-.45,1.28.71.67,0,1.34-.18,1.5.84-.69,1.25.14,1.25.14,1.23.2-.06,1.18-.06,1.18a.65.65,0,0,1-.74-.3,1.66,1.66,0,0,0-.59.43,1.9,1.9,0,0,1,1,1.34c.5-.65,1.18,0,1.84.95a1.3,1.3,0,0,1-.32,1.73c.69.6-.35,1-.35,1,.56.53,0,1.06-.14,1.18.67-.54,1,.11,1,.11l.22.06-.37.9A.51.51,0,0,1,252,180c-.9.44-.4.69-.4.69.67-.15.28.43.28.43l-.42,0-.49.28,0,.16.38,0,0,.28-.44.2.14.33c.5.71-1.2,1.06-1.2,1.06-.26,2.15-2.27,1.38-2.74,1.16a4,4,0,0,1-1.15.35,4,4,0,0,1-2.79-.68Z" fill="#134921"/><path d="M223.28,218.12a22.23,22.23,0,0,1,.11-4.53l-1-11.32s-.18-4.16.36-5.36c0,0,8.15-7.92,9.81-8.35,0,0,1.18-10.37,2.67-10.57l-1.48-.88s-1.33,9.79-2.29,11.28c0,0-3.76-14.15-3.18-15.64l-.55.43s1.77,14.12,1.44,15.1l-2.4,2.48s-.83,2.5-1.33,1.37c0,0-4.59-2.81-2.32-17.58l-1.85-1.2-1.53,9.73s1.06,0,.59,2.46c0,0,1.88,5.88,1.58,6.46,0,0-.44,2.79-1.67,2l-2.57-6.08s-2.17-8.68-.71-10l-.56-.7s-1,4.31-.18,7.45c0,0-3.95-4.37-5.17-4.36l0,.79s.75-1.55,4.83,4.4c0,0,2.8,7.88,2.9,9.43a48.65,48.65,0,0,0-.14,5.6s2.46,12.59-1.59,16.37Z" fill="#4e342e"/><path d="M160,262q-5.69-12.31-11.36-24.64H112.12L100,262h60Z" fill="#f0ecd7"/><path d="M201.68,47.22a11.9,11.9,0,0,1,5.39,1.28,9.74,9.74,0,0,1,16.28,4.68,7.71,7.71,0,0,1,5,4.64,7.68,7.68,0,1,1,.84,15.32,7.5,7.5,0,0,1-3.65-.93,7.68,7.68,0,0,1-12.83,3.25,7.68,7.68,0,0,1-10.71.21,7.68,7.68,0,0,1-11.06.29,9.15,9.15,0,1,1-2-18.09,7.38,7.38,0,0,1,.82,0A12,12,0,0,1,201.68,47.22Z" fill="#fff"/><path d="M351.09,49.26a16.9,16.9,0,1,1-16.9,16.9A16.9,16.9,0,0,1,351.09,49.26Z" fill="#efb500"/><path d="M41.15,61.59a11.9,11.9,0,0,1,5.39,1.28,9.74,9.74,0,0,1,16.28,4.67,7.72,7.72,0,0,1,5,4.65,7.68,7.68,0,1,1,.84,15.32A7.72,7.72,0,0,1,65,86.59a7.68,7.68,0,0,1-12.83,3.24A7.68,7.68,0,0,1,41.44,90a7.68,7.68,0,0,1-11.06.29,9.15,9.15,0,1,1-2-18.09,7.38,7.38,0,0,1,.82,0A12,12,0,0,1,41.15,61.59Z" fill="#fff"/><path d="M308.68,59.22a11.9,11.9,0,0,1,5.39,1.28,9.74,9.74,0,0,1,16.28,4.68,7.71,7.71,0,0,1,5,4.64,7.68,7.68,0,1,1,.84,15.32,7.5,7.5,0,0,1-3.65-.93,7.68,7.68,0,0,1-12.83,3.25,7.68,7.68,0,0,1-10.71.21,7.68,7.68,0,0,1-11.06.29,9.15,9.15,0,1,1-2-18.09,7.38,7.38,0,0,1,.82,0A12,12,0,0,1,308.68,59.22Z" fill="#fff"/><path d="M389.68,72.22a11.9,11.9,0,0,1,5.39,1.28,9.74,9.74,0,0,1,16.28,4.68,7.71,7.71,0,0,1,5,4.64,7.68,7.68,0,1,1,.84,15.32,7.5,7.5,0,0,1-3.65-.93,7.68,7.68,0,0,1-12.83,3.25,7.68,7.68,0,0,1-10.71.21,7.68,7.68,0,0,1-11.06.29,9.15,9.15,0,1,1-2-18.09,7.38,7.38,0,0,1,.82,0A12,12,0,0,1,389.68,72.22Z" fill="#fff"/><path d="M540.68,58.22a11.9,11.9,0,0,1,5.39,1.28,9.74,9.74,0,0,1,16.28,4.68,7.71,7.71,0,0,1,5,4.64,7.68,7.68,0,1,1,.84,15.32,7.5,7.5,0,0,1-3.65-.93,7.68,7.68,0,0,1-12.83,3.25,7.68,7.68,0,0,1-10.71.21,7.68,7.68,0,0,1-11.06.29,9.15,9.15,0,1,1-2-18.09,7.38,7.38,0,0,1,.82,0A12,12,0,0,1,540.68,58.22Z" fill="#fff"/><path d="M588.94,187.26a.91.91,0,0,1-.36.83c.66-.54,1,.11,1,.11,1,.16,0,.93,0,.93-.35.13-.58-.24-.58-.24-.89.44-.39.69-.39.69.66-.15.27.42.27.42l-.41.06-.48.26,0,.17.37-.05,0,.29-.43.2.13.32c.5.72-1.18,1.06-1.18,1.06-.27,2.14-2.27,1.37-2.74,1.15a3.44,3.44,0,0,1-1.14.35,3.85,3.85,0,0,1-2.77-.68,3.1,3.1,0,0,1-1.23,0c-.69.07-.42-.92-.42-.92-.53,1.1-1.3.14-1.3.14a.74.74,0,0,1,.15-1.26c-.43-.48.16-.87.16-.87-1.13-.21-1.39-.8-1.44-1.16a9,9,0,0,1-1.1-.41,9.62,9.62,0,0,1-9.69-.82,7.8,7.8,0,0,1-3.05-.13c-1.69.18-1-2.29-1-2.29-.9,1.89-2.1,1.35-2.75.83.12.58-1.27.87-1.27.87-.26,2.14-2.26,1.37-2.73,1.16a4.27,4.27,0,0,1-1.15.34,3.92,3.92,0,0,1-2.77-.67,3,3,0,0,1-1.22-.06c-.69.08-.42-.93-.42-.93-.52,1.11-1.31.15-1.31.15a.74.74,0,0,1,.16-1.25c-.42-.49.16-.89.16-.89-1.68-.31-1.44-1.45-1.44-1.45a1.46,1.46,0,0,1,0-1.86,1,1,0,0,1-.23-.25,3.83,3.83,0,0,1-2.57-.7,3.14,3.14,0,0,1-1.24-.05c-.69.07-.42-.93-.42-.93-.53,1.11-1.31.15-1.31.15a.74.74,0,0,1,.15-1.27c-.43-.48.17-.89.17-.89-1.69-.31-1.46-1.46-1.46-1.46a1.47,1.47,0,0,1,0-1.87.67.67,0,0,1-.05-1.08c-.22-.67.72-.64.72-.64-.94-1.8.74-2,.74-2a.65.65,0,0,1,1-.34c.38-1,1.7-.24,1.7-.24-.39-.82.84-.83.84-.83a.92.92,0,0,1,.65-.1.5.5,0,0,1,0-.17,1.46,1.46,0,0,1,0-1.86.69.69,0,0,1,0-1.1.4.4,0,0,1,.2-.53,3.05,3.05,0,0,1,.45-3.1,1.43,1.43,0,0,1-.11-2.29c-.46-1.39,1.53-1.34,1.53-1.34-2-3.78,1.52-4.2,1.52-4.2a1.37,1.37,0,0,1,2.21-.71c.8-2,3.56-.49,3.56-.49-.82-1.73,1.77-1.75,1.77-1.75,1.73-1,2.95,1.09,2.95,1.09,1-1.34,1.88-1.81,2.56-1.84a1.53,1.53,0,0,1,1.32-2.1.91.91,0,0,1,1.48-.48c.54-1.34,2.38-.33,2.38-.33-.54-1.15,1.19-1.16,1.19-1.16,1.16-.65,2,.73,2,.73,2.06-2.69,3.06-.15,3.06-.15,3.5-1.71,4.07,1.52,4.07,1.52.71-.91,1.67,0,2.59,1.34a1.67,1.67,0,0,1-.13,2.09,3.1,3.1,0,0,1,1,1c2.72-3.55,4-.19,4-.19,4.61-2.27,5.36,2,5.36,2,.93-1.21,2.2,0,3.42,1.75S593,160,593,160c1.27,1.11-.66,1.86-.66,1.86,1,1,0,2-.25,2.19,1.22-1,1.82.22,1.82.22,1.8.29-.09,1.72-.09,1.72a1,1,0,0,1-1.08-.43c-.89.44-1,.77-1,1a2.12,2.12,0,0,1,2.65,1.75c.64-.82,1.51,0,2.34,1.2a1.67,1.67,0,0,1-.4,2.2c.87.76-.45,1.28-.45,1.28.71.67,0,1.34-.18,1.5.84-.69,1.25.14,1.25.14,1.23.2-.06,1.18-.06,1.18a.65.65,0,0,1-.74-.3,1.66,1.66,0,0,0-.59.43,1.9,1.9,0,0,1,1,1.34c.5-.65,1.18,0,1.84.95a1.3,1.3,0,0,1-.32,1.73c.69.6-.35,1-.35,1,.56.53,0,1.06-.14,1.18.67-.54,1,.11,1,.11l.22.06-.37.9A.51.51,0,0,1,598,183c-.9.44-.4.69-.4.69.67-.15.28.43.28.43l-.42,0-.49.28,0,.16.38,0,0,.28-.44.2.14.33c.5.71-1.2,1.06-1.2,1.06-.26,2.15-2.27,1.38-2.74,1.16a4,4,0,0,1-1.15.35,4,4,0,0,1-2.79-.68Z" fill="#134921"/><path d="M569.28,221.12a22.23,22.23,0,0,1,.11-4.53l-1-11.32s-.18-4.16.36-5.36c0,0,8.15-7.92,9.81-8.35,0,0,1.18-10.37,2.67-10.57l-1.48-.88s-1.33,9.79-2.29,11.28c0,0-3.76-14.15-3.18-15.64l-.55.43s1.77,14.12,1.44,15.1l-2.4,2.48s-.83,2.5-1.33,1.37c0,0-4.59-2.81-2.32-17.58l-1.85-1.2-1.53,9.73s1.06,0,.59,2.46c0,0,1.88,5.88,1.58,6.46,0,0-.44,2.79-1.67,2l-2.57-6.08s-2.17-8.68-.71-10l-.56-.7s-1,4.31-.18,7.45c0,0-4-4.37-5.17-4.36l0,.79s.75-1.55,4.83,4.4c0,0,2.8,7.88,2.9,9.43a48.65,48.65,0,0,0-.14,5.6s2.46,12.59-1.59,16.37Z" fill="#4e342e"/><path d="M443.94,187.26a.91.91,0,0,1-.36.83c.66-.54,1,.11,1,.11,1,.16-.05.93-.05.93-.35.13-.58-.24-.58-.24-.89.44-.39.69-.39.69.66-.15.27.42.27.42l-.41.06-.48.26,0,.17.37-.05,0,.29-.43.2.13.32c.5.72-1.18,1.06-1.18,1.06-.27,2.14-2.27,1.37-2.74,1.15a3.44,3.44,0,0,1-1.14.35,3.85,3.85,0,0,1-2.77-.68,3.1,3.1,0,0,1-1.23,0c-.69.07-.42-.92-.42-.92-.53,1.1-1.3.14-1.3.14a.74.74,0,0,1,.15-1.26c-.43-.48.16-.87.16-.87-1.13-.21-1.39-.8-1.44-1.16a9,9,0,0,1-1.1-.41,9.62,9.62,0,0,1-9.69-.82,7.8,7.8,0,0,1-3.05-.13c-1.69.18-1-2.29-1-2.29-.9,1.89-2.1,1.35-2.75.83.12.58-1.27.87-1.27.87-.26,2.14-2.26,1.37-2.73,1.16a4.27,4.27,0,0,1-1.15.34,3.92,3.92,0,0,1-2.77-.67,3,3,0,0,1-1.22-.06c-.69.08-.42-.93-.42-.93-.52,1.11-1.31.15-1.31.15a.74.74,0,0,1,.16-1.25c-.42-.49.16-.89.16-.89-1.68-.31-1.44-1.45-1.44-1.45a1.46,1.46,0,0,1,0-1.86,1,1,0,0,1-.23-.25,3.83,3.83,0,0,1-2.57-.7,3.14,3.14,0,0,1-1.24-.05c-.69.07-.42-.93-.42-.93-.53,1.11-1.31.15-1.31.15a.74.74,0,0,1,.15-1.27c-.43-.48.17-.89.17-.89-1.69-.31-1.46-1.46-1.46-1.46a1.47,1.47,0,0,1,0-1.87.67.67,0,0,1-.05-1.08c-.22-.67.72-.64.72-.64-.94-1.8.74-2,.74-2a.65.65,0,0,1,1.05-.34c.38-1,1.7-.24,1.7-.24-.39-.82.84-.83.84-.83a.92.92,0,0,1,.65-.1.5.5,0,0,1,0-.17,1.46,1.46,0,0,1,0-1.86.69.69,0,0,1-.05-1.1.4.4,0,0,1,.2-.53,3.05,3.05,0,0,1,.45-3.1,1.43,1.43,0,0,1-.11-2.29c-.46-1.39,1.53-1.34,1.53-1.34-2-3.78,1.52-4.2,1.52-4.2a1.37,1.37,0,0,1,2.21-.71c.8-2,3.56-.49,3.56-.49-.82-1.73,1.77-1.75,1.77-1.75,1.73-1,2.95,1.09,2.95,1.09,1-1.34,1.88-1.81,2.56-1.84a1.53,1.53,0,0,1,1.32-2.1.91.91,0,0,1,1.48-.48c.54-1.34,2.38-.33,2.38-.33-.54-1.15,1.19-1.16,1.19-1.16,1.16-.65,2,.73,2,.73,2.06-2.69,3.06-.15,3.06-.15,3.5-1.71,4.07,1.52,4.07,1.52.71-.91,1.67,0,2.59,1.34a1.67,1.67,0,0,1-.13,2.09,3.1,3.1,0,0,1,1,1c2.72-3.55,4-.19,4-.19,4.61-2.27,5.36,2,5.36,2,.93-1.21,2.2,0,3.42,1.75S448,160,448,160c1.27,1.11-.66,1.86-.66,1.86,1,1,0,2-.25,2.19,1.22-1,1.82.22,1.82.22,1.8.29-.09,1.72-.09,1.72a1,1,0,0,1-1.08-.43c-.89.44-1,.77-1,1a2.12,2.12,0,0,1,2.65,1.75c.64-.82,1.51,0,2.34,1.2a1.67,1.67,0,0,1-.4,2.2c.87.76-.45,1.28-.45,1.28.71.67,0,1.34-.18,1.5.84-.69,1.25.14,1.25.14,1.23.2-.06,1.18-.06,1.18a.65.65,0,0,1-.74-.3,1.66,1.66,0,0,0-.59.43,1.9,1.9,0,0,1,1,1.34c.5-.65,1.18,0,1.84.95a1.3,1.3,0,0,1-.32,1.73c.69.6-.35,1-.35,1,.56.53,0,1.06-.14,1.18.67-.54,1,.11,1,.11l.22.06-.37.9A.51.51,0,0,1,453,183c-.9.44-.4.69-.4.69.67-.15.28.43.28.43l-.42,0-.49.28,0,.16.38,0,0,.28-.44.2.14.33c.5.71-1.2,1.06-1.2,1.06-.26,2.15-2.27,1.38-2.74,1.16a4,4,0,0,1-1.15.35,4,4,0,0,1-2.79-.68Z" fill="#134921"/><path d="M424.28,221.12a22.23,22.23,0,0,1,.11-4.53l-1-11.32s-.18-4.16.36-5.36c0,0,8.15-7.92,9.81-8.35,0,0,1.18-10.37,2.67-10.57l-1.48-.88s-1.33,9.79-2.29,11.28c0,0-3.76-14.15-3.18-15.64l-.55.43s1.77,14.12,1.44,15.1l-2.4,2.48s-.83,2.5-1.33,1.37c0,0-4.59-2.81-2.32-17.58l-1.85-1.2-1.53,9.73s1.06,0,.59,2.46c0,0,1.88,5.88,1.58,6.46,0,0-.44,2.79-1.67,2l-2.57-6.08s-2.17-8.68-.71-10l-.56-.7s-1,4.31-.18,7.45c0,0-4-4.37-5.17-4.36l0,.79s.75-1.55,4.83,4.4c0,0,2.8,7.88,2.9,9.43a48.65,48.65,0,0,0-.14,5.6s2.46,12.59-1.59,16.37Z" fill="#4e342e"/><path d="M351.94,187.26a.91.91,0,0,1-.36.83c.66-.54,1,.11,1,.11,1,.16-.05.93-.05.93-.35.13-.58-.24-.58-.24-.89.44-.39.69-.39.69.66-.15.27.42.27.42l-.41.06-.48.26,0,.17.37-.05,0,.29-.43.2.13.32c.5.72-1.18,1.06-1.18,1.06-.27,2.14-2.27,1.37-2.74,1.15a3.44,3.44,0,0,1-1.14.35,3.85,3.85,0,0,1-2.77-.68,3.1,3.1,0,0,1-1.23,0c-.69.07-.42-.92-.42-.92-.53,1.1-1.3.14-1.3.14a.74.74,0,0,1,.15-1.26c-.43-.48.16-.87.16-.87-1.13-.21-1.39-.8-1.44-1.16a9,9,0,0,1-1.1-.41,9.62,9.62,0,0,1-9.69-.82,7.8,7.8,0,0,1-3.05-.13c-1.69.18-1-2.29-1-2.29-.9,1.89-2.1,1.35-2.75.83.12.58-1.27.87-1.27.87-.26,2.14-2.26,1.37-2.73,1.16a4.27,4.27,0,0,1-1.15.34,3.92,3.92,0,0,1-2.77-.67,3,3,0,0,1-1.22-.06c-.69.08-.42-.93-.42-.93-.52,1.11-1.31.15-1.31.15a.74.74,0,0,1,.16-1.25c-.42-.49.16-.89.16-.89-1.68-.31-1.44-1.45-1.44-1.45a1.46,1.46,0,0,1,0-1.86,1,1,0,0,1-.23-.25,3.83,3.83,0,0,1-2.57-.7,3.14,3.14,0,0,1-1.24-.05c-.69.07-.42-.93-.42-.93-.53,1.11-1.31.15-1.31.15a.74.74,0,0,1,.15-1.27c-.43-.48.17-.89.17-.89-1.69-.31-1.46-1.46-1.46-1.46a1.47,1.47,0,0,1,0-1.87.67.67,0,0,1-.05-1.08c-.22-.67.72-.64.72-.64-.94-1.8.74-2,.74-2a.65.65,0,0,1,1.05-.34c.38-1,1.7-.24,1.7-.24-.39-.82.84-.83.84-.83a.92.92,0,0,1,.65-.1.5.5,0,0,1,0-.17,1.46,1.46,0,0,1,0-1.86.69.69,0,0,1-.05-1.1.4.4,0,0,1,.2-.53,3.05,3.05,0,0,1,.45-3.1,1.43,1.43,0,0,1-.11-2.29c-.46-1.39,1.53-1.34,1.53-1.34-2-3.78,1.52-4.2,1.52-4.2a1.37,1.37,0,0,1,2.21-.71c.8-2,3.56-.49,3.56-.49-.82-1.73,1.77-1.75,1.77-1.75,1.73-1,2.95,1.09,2.95,1.09,1-1.34,1.88-1.81,2.56-1.84a1.53,1.53,0,0,1,1.32-2.1.91.91,0,0,1,1.48-.48c.54-1.34,2.38-.33,2.38-.33-.54-1.15,1.19-1.16,1.19-1.16,1.16-.65,2,.73,2,.73,2.06-2.69,3.06-.15,3.06-.15,3.5-1.71,4.07,1.52,4.07,1.52.71-.91,1.67,0,2.59,1.34a1.67,1.67,0,0,1-.13,2.09,3.1,3.1,0,0,1,1,1c2.72-3.55,4-.19,4-.19,4.61-2.27,5.36,2,5.36,2,.93-1.21,2.2,0,3.42,1.75S356,160,356,160c1.27,1.11-.66,1.86-.66,1.86,1,1,0,2-.25,2.19,1.22-1,1.82.22,1.82.22,1.8.29-.09,1.72-.09,1.72a1,1,0,0,1-1.08-.43c-.89.44-1,.77-1,1a2.12,2.12,0,0,1,2.65,1.75c.64-.82,1.51,0,2.34,1.2a1.67,1.67,0,0,1-.4,2.2c.87.76-.45,1.28-.45,1.28.71.67,0,1.34-.18,1.5.84-.69,1.25.14,1.25.14,1.23.2-.06,1.18-.06,1.18a.65.65,0,0,1-.74-.3,1.66,1.66,0,0,0-.59.43,1.9,1.9,0,0,1,1,1.34c.5-.65,1.18,0,1.84.95a1.3,1.3,0,0,1-.32,1.73c.69.6-.35,1-.35,1,.56.53,0,1.06-.14,1.18.67-.54,1,.11,1,.11l.22.06-.37.9A.51.51,0,0,1,361,183c-.9.44-.4.69-.4.69.67-.15.28.43.28.43l-.42,0-.49.28,0,.16.38,0,0,.28-.44.2.14.33c.5.71-1.2,1.06-1.2,1.06-.26,2.15-2.27,1.38-2.74,1.16a4,4,0,0,1-1.15.35,4,4,0,0,1-2.79-.68Z" fill="#134921"/><path d="M332.28,221.12a22.23,22.23,0,0,1,.11-4.53l-1-11.32s-.18-4.16.36-5.36c0,0,8.15-7.92,9.81-8.35,0,0,1.18-10.37,2.67-10.57l-1.48-.88s-1.33,9.79-2.29,11.28c0,0-3.76-14.15-3.18-15.64l-.55.43s1.77,14.12,1.44,15.1l-2.4,2.48s-.83,2.5-1.33,1.37c0,0-4.59-2.81-2.32-17.58l-1.85-1.2-1.53,9.73s1.06,0,.59,2.46c0,0,1.88,5.88,1.58,6.46,0,0-.44,2.79-1.67,2l-2.57-6.08s-2.17-8.68-.71-10l-.56-.7s-1,4.31-.18,7.45c0,0-4-4.37-5.17-4.36l0,.79s.75-1.55,4.83,4.4c0,0,2.8,7.88,2.9,9.43a48.65,48.65,0,0,0-.14,5.6s2.46,12.59-1.59,16.37Z" fill="#4e342e"/></g><path d="M476,230.9c0-3.44,0-4.05,0-4.76s-.22-1.1-1-1.25a4.54,4.54,0,0,0-.75-.07c-.09,0-.17,0-.17-.13s.11-.17.35-.17c1,0,2.31.06,2.49.06.48,0,1.76-.06,2.77-.06,2.75,0,3.74.92,4.09,1.25a4,4,0,0,1,1.1,2.88c0,2.86-2.29,5-5.41,5a2.37,2.37,0,0,1-.46,0c-.11,0-.25,0-.25-.15s.14-.2.6-.2a3.62,3.62,0,0,0,3.8-3.76,4.5,4.5,0,0,0-1.23-3.21,3.81,3.81,0,0,0-3-1.1,2.67,2.67,0,0,0-.95.13c-.13,0-.17.2-.17.42v9c0,2.11,0,3.85.11,4.77.06.64.19,1.13.85,1.21a8.39,8.39,0,0,0,1,.09c.14,0,.18.07.18.13s-.11.18-.35.18c-1.21,0-2.6-.07-2.71-.07s-1.45.07-2.11.07c-.24,0-.35,0-.35-.18s0-.13.17-.13a2.92,2.92,0,0,0,.66-.09c.44-.08.55-.57.64-1.21.11-.92.11-2.66.11-4.77Z" fill="#134921"/><path d="M488.85,235.78a.23.23,0,0,0-.22.18l-1,2.75a5.48,5.48,0,0,0-.37,1.56c0,.4.24.57.72.57h.16c.19,0,.26.07.26.16s-.18.15-.33.15c-.48,0-1.5-.07-1.74-.07s-1.19.07-2.11.07c-.24,0-.35,0-.35-.15s.08-.16.26-.16a3.39,3.39,0,0,0,.44,0c.95-.09,1.32-.81,1.69-1.74l4.41-11.59c.24-.64.3-.75.46-.75s.2.09.44.7,3.3,8.41,4.46,11.16c.73,1.74,1.37,2,1.68,2.13a2.05,2.05,0,0,0,.74.11c.16,0,.27,0,.27.16s-.09.15-.33.15-1.87,0-3.35,0c-.41,0-.55-.05-.55-.16s.07-.13.16-.15.22-.16.09-.49L493,235.89c0-.06-.09-.11-.18-.11Zm3.74-.77c.09,0,.09-.06.06-.13L490.92,230c-.11-.31-.14-.31-.25,0L489,234.88c0,.09,0,.13.05.13Z" fill="#134921"/><path d="M501.45,232.42c0-2.91,0-3.44,0-4s-.2-.93-.88-1.06a4,4,0,0,0-.53,0c-.15,0-.24,0-.24-.13s.07-.16.26-.16c1,0,2.29.07,2.34.07s1.69-.07,2.31-.07a6.16,6.16,0,0,1,3.6.84,3.34,3.34,0,0,1,1.32,2.68,5.48,5.48,0,0,1-2.33,4.16c1.61,2,2.93,3.61,4.05,4.78a3.75,3.75,0,0,0,2.33,1.34c.16,0,.62,0,.69,0s.24.07.24.16-.09.15-.4.15h-1.54a5.08,5.08,0,0,1-2-.26c-.93-.4-1.59-1.39-2.73-2.86-.86-1.06-1.74-2.25-2.11-2.71a.31.31,0,0,0-.27-.13l-2.26,0c-.09,0-.11,0-.11.11v.3a41.3,41.3,0,0,0,.11,4.16c.06.53.13,1,.86,1.06.21,0,.46,0,.63,0s.29.07.29.13-.09.18-.31.18c-1.14,0-2.37-.07-2.46-.07-.35,0-1.32.07-1.92.07-.22,0-.31,0-.31-.18s.14-.13.27-.13a2,2,0,0,0,.48,0c.38-.07.51-.31.58-.84.1-.79.08-2.59.08-4.25Zm1.7,1.56c0,.11,0,.22.11.26a5.67,5.67,0,0,0,2,.29,2.64,2.64,0,0,0,1.47-.33,3.19,3.19,0,0,0,1.1-2.8c0-2.4-1.28-3.72-3.23-3.72a6.34,6.34,0,0,0-1.28.11.2.2,0,0,0-.13.2Z" fill="#134921"/><path d="M514.21,234a7.42,7.42,0,0,1,7.7-7.3c4.36,0,7.68,2.59,7.68,7a7.48,7.48,0,0,1-7.79,7.63A7.15,7.15,0,0,1,514.21,234Zm13.31.27c0-4.43-2.72-6.89-5.74-6.89s-5.52,1.89-5.52,6.05c0,4.31,2.4,7.17,6.09,7.17C523.83,240.64,527.52,239.9,527.52,234.31Zm-2.66-11c.13.2,0,.27-.06.27a6.05,6.05,0,0,0-.82.24c-1,.46-2.15,1.12-2.81,1.52,0,0-.47.31-.47.09a.44.44,0,0,1,.16-.27c.55-.57,1.82-2,2.33-2.38a2.08,2.08,0,0,1,.57-.37.51.51,0,0,1,.38.13A3.19,3.19,0,0,1,524.86,223.28Z" fill="#134921"/><path d="M540,241.39c-5.44,0-7.66-4-7.66-7.37a7.4,7.4,0,0,1,7.7-7.28c4.38,0,7.68,2.64,7.68,7a7.65,7.65,0,0,1-3.43,6.25l4.09,2a17.27,17.27,0,0,0,8,2.14,10.92,10.92,0,0,0,3.72-.73,1.17,1.17,0,0,1,.29-.07c.09,0,.13,0,.13.09s-.11.16-.24.22a14.17,14.17,0,0,1-6.16,1.32c-2.38,0-4.91-.86-7.92-2.51L543,240.78A7.45,7.45,0,0,1,540,241.39Zm5.65-7.1c0-4.36-2.68-6.87-5.76-6.87s-5.5,1.89-5.5,6.07,2.62,7.15,6.09,7.15C542.09,240.64,545.67,239.81,545.67,234.29Z" fill="#134921"/><path d="M553.94,235c0,2.69.51,3.83,1.35,4.58a4.15,4.15,0,0,0,2.9,1,3.75,3.75,0,0,0,3-1.27c.88-1,1.07-2.69,1.07-4.6v-2.33c0-2.89,0-3.39,0-4s-.11-1-.81-1.08a5.7,5.7,0,0,0-.62,0c-.13,0-.22-.07-.22-.13s.11-.18.31-.18c.94,0,2,.07,2.13.07s1.06-.07,1.67-.07c.22,0,.31.05.31.16s-.09.15-.22.15l-.39,0c-.62.07-.71.46-.75,1.1s0,1.1,0,4v2c0,2-.22,4.36-1.79,5.7a5.69,5.69,0,0,1-4,1.32,6.13,6.13,0,0,1-4.12-1.32c-.94-.88-1.63-2.2-1.63-4.93v-2.72c0-2.91,0-3.42-.06-4s-.13-1-.82-1.06a4.63,4.63,0,0,0-.57,0c-.15,0-.24-.07-.24-.13s.09-.18.33-.18c.95,0,2.13.07,2.29.07s1.47-.07,2.07-.07c.24,0,.31.05.31.16s-.16.15-.27.15a4.64,4.64,0,0,0-.48,0c-.53.07-.62.44-.66,1.06s0,1.1,0,4Z" fill="#134921"/><path d="M569.23,232.42c0-2.91,0-3.44,0-4s-.18-.93-.64-1a4.84,4.84,0,0,0-.5-.07c-.16,0-.25-.07-.25-.15s.09-.16.33-.16c.69,0,1.94.07,2,.07s1.36-.07,2-.07c.22,0,.33.05.33.16s-.07.13-.24.15l-.4,0c-.64.09-.7.42-.75,1.06s0,1.1,0,4v3.29c0,1.7,0,3.24.09,4,.08.64.17.88.75,1a4.59,4.59,0,0,0,.83.09c.2,0,.24.07.24.16s-.08.15-.3.15c-1.13,0-2.4-.07-2.51-.07s-1.37.07-2,.07c-.2,0-.36,0-.36-.15s.09-.16.29-.16a3,3,0,0,0,.53-.06c.37-.09.44-.53.51-1.06.1-.79.1-2.35.1-4Z" fill="#134921"/><path d="M578.83,235.78a.23.23,0,0,0-.22.18l-1,2.75a5.56,5.56,0,0,0-.38,1.56c0,.4.25.57.73.57h.15c.2,0,.27.07.27.16s-.18.15-.33.15c-.49,0-1.5-.07-1.74-.07s-1.19.07-2.11.07c-.24,0-.35,0-.35-.15s.08-.16.26-.16a3.39,3.39,0,0,0,.44,0c.95-.09,1.32-.81,1.69-1.74l4.4-11.59c.25-.64.31-.75.47-.75s.19.09.44.7,3.3,8.41,4.46,11.16c.73,1.74,1.37,2,1.68,2.13a2.05,2.05,0,0,0,.74.11c.16,0,.27,0,.27.16s-.09.15-.33.15-1.87,0-3.35,0c-.41,0-.55-.05-.55-.16s.07-.13.16-.15.22-.16.09-.49L583,235.89c0-.06-.09-.11-.18-.11Zm3.74-.77c.09,0,.09-.06.06-.13L580.9,230c-.11-.31-.14-.31-.25,0L579,234.88c0,.09,0,.13,0,.13Z" fill="#134921"/></svg>