<svg id="Layer_15" data-name="Layer 15" xmlns="http://www.w3.org/2000/svg" viewBox="0 0 606 262"><title>tit_cecssac</title><path d="M606,0V262H0V0Z" fill="#f0ecd7"/><g id="Layer_16" data-name="Layer 16"><g id="surface1"><path d="M606,0V262H0V0Z" fill="#b5e237"/><path d="M606,262H0V100c59.61,81.42,95.63,94.28,118,89,23.48-5.54,32.45-24.86,60-25,36.15-.18,44.48,35.38,77,43,51.57,12.09,84.84-64.63,157-92,38-14.41,98.63-19.65,194,30C605.76,162.59,605.63,180.35,606,262Z" fill="#f0ecd7"/></g><g id="Layer_17" data-name="Layer 17"><path d="M114.5,196q.15,33,.31,66H73.4l.12-66,9-12.72,2-25.88a4.76,4.76,0,0,1,4.75-4.4h9.6a4.76,4.76,0,0,1,4.75,4.4l2,25.88Z" fill="#ffe955"/><path d="M114.5,196q.15,33,.31,66H82.7q-.11-39.36-.2-78.72l2-25.88a4.76,4.76,0,0,1,4.75-4.4h9.6a4.76,4.76,0,0,1,4.75,4.4l2,25.88Z" fill="#606060"/><path d="M114.5,196q.15,33,.31,66H82.7q-.11-39.36-.2-78.72l2-25.88a4.76,4.76,0,0,1,4.75-4.4h9.6a4.76,4.76,0,0,1,4.75,4.4l2,25.88Z" fill="#ffd112"/><path d="M114.5,196q.15,33,.31,66H94.53q-.27-54.49-.52-109h4.8a4.76,4.76,0,0,1,4.75,4.4l2,25.88Z" fill="#ff9f00"/><path d="M114.5,213.32,114,262H73.4l.12-48.68Z" fill="#ffe955"/><path d="M114.5,213.32q.15,24.33.31,48.68H82.7q-.11-24.34-.2-48.68Z" fill="#ffd112"/><path d="M114.5,213.32q.15,24.33.31,48.68H94.53q-.27-24.34-.52-48.68Z" fill="#ff9f00"/><path d="M73.51,213.32h41V223.7h-41Z" fill="#747e9e"/><path d="M82.5,213.32h32V223.7h-32Z" fill="#474f6f"/><path d="M94,213.32h20.5V223.7H94Z" fill="#323b5a"/><path d="M106.1,253q.12,4.5.26,9H82.7c-.07-3-.13-6-.2-9A11.8,11.8,0,0,1,94,241.23h.29A11.81,11.81,0,0,1,106.1,253Z" fill="#d0f6ff"/><path d="M237.87,196l.3,66h-41.4l.11-66,9-12.72,2-25.88a4.74,4.74,0,0,1,4.74-4.4h9.61a4.76,4.76,0,0,1,4.74,4.4l2,25.88Z" fill="#ffe955"/><path d="M237.87,196l.3,66H206.06q-.09-39.36-.2-78.72l2-25.88a4.74,4.74,0,0,1,4.74-4.4h9.61a4.76,4.76,0,0,1,4.74,4.4l2,25.88Z" fill="#606060"/><path d="M237.87,196l.3,66H206.06q-.09-39.36-.2-78.72l2-25.88a4.74,4.74,0,0,1,4.74-4.4h9.61a4.76,4.76,0,0,1,4.74,4.4l2,25.88Z" fill="#ffd112"/><path d="M237.87,196l.3,66H217.89l-.51-109h4.8a4.76,4.76,0,0,1,4.74,4.4l2,25.88Z" fill="#ff9f00"/><path d="M237.87,213.32,237.33,262H196.77l.11-48.68Z" fill="#ffe955"/><path d="M237.87,213.32l.3,48.68H206.06q-.09-24.34-.2-48.68Z" fill="#ffd112"/><path d="M237.87,213.32l.3,48.68H217.89l-.51-48.68Z" fill="#ff9f00"/><path d="M196.88,213.32h41V223.7h-41Z" fill="#747e9e"/><path d="M205.86,213.32h32V223.7h-32Z" fill="#474f6f"/><path d="M217.38,213.32h20.49V223.7H217.38Z" fill="#323b5a"/><path d="M229.46,253c.09,3,.17,6,.26,9H206.06q-.09-4.49-.2-9a11.81,11.81,0,0,1,11.52-11.79h.28A11.8,11.8,0,0,1,229.46,253Z" fill="#d0f6ff"/><path d="M196.46,196q.15,33,.31,66H155.36l.12-66,9-12.72,2-25.88a4.74,4.74,0,0,1,4.74-4.4h9.6a4.76,4.76,0,0,1,4.75,4.4l2,25.88Z" fill="#ff3445"/><path d="M196.46,196q.15,33,.31,66H164.66q-.1-39.36-.2-78.72l2-25.88a4.74,4.74,0,0,1,4.74-4.4h9.6a4.76,4.76,0,0,1,4.75,4.4l2,25.88Z" fill="#606060"/><path d="M196.46,196q.15,33,.31,66H164.66q-.1-39.36-.2-78.72l2-25.88a4.74,4.74,0,0,1,4.74-4.4h9.6a4.76,4.76,0,0,1,4.75,4.4l2,25.88Z" fill="#dd1265"/><path d="M196.46,196q.15,33,.31,66H176.49q-.26-54.49-.52-109h4.8a4.76,4.76,0,0,1,4.75,4.4l2,25.88Z" fill="#ba0d5c"/><path d="M196.46,213.32,195.92,262H155.36l.12-48.68Z" fill="#ff3445"/><path d="M196.46,213.32q.15,24.33.31,48.68H164.66q-.1-24.34-.2-48.68Z" fill="#dd1265"/><path d="M196.46,213.32q.15,24.33.31,48.68H176.49q-.26-24.34-.52-48.68Z" fill="#ba0d5c"/><path d="M155.48,213.32h41V223.7h-41Z" fill="#747e9e"/><path d="M164.46,213.32h32V223.7h-32Z" fill="#474f6f"/><path d="M176,213.32h20.5V223.7H176Z" fill="#323b5a"/><path d="M188.06,253c.09,3,.17,6,.26,9H164.66c-.07-3-.13-6-.2-9A11.81,11.81,0,0,1,176,241.23h.29A11.8,11.8,0,0,1,188.06,253Z" fill="#d0f6ff"/><path d="M278.42,196q.16,33,.31,66h-41.4l.11-66,9-12.72,2-25.88a4.74,4.74,0,0,1,4.74-4.4h9.61a4.76,4.76,0,0,1,4.74,4.4l2,25.88Z" fill="#65b2ff"/><path d="M278.42,196q.16,33,.31,66H246.62q-.1-39.36-.2-78.72l2-25.88a4.74,4.74,0,0,1,4.74-4.4h9.61a4.76,4.76,0,0,1,4.74,4.4l2,25.88Z" fill="#606060"/><path d="M278.42,196q.16,33,.31,66H246.62q-.1-39.36-.2-78.72l2-25.88a4.74,4.74,0,0,1,4.74-4.4h9.61a4.76,4.76,0,0,1,4.74,4.4l2,25.88Z" fill="#0f9be8"/><path d="M278.42,196q.16,33,.31,66H258.45q-.26-54.49-.52-109h4.81a4.76,4.76,0,0,1,4.74,4.4l2,25.88Z" fill="#0066e8"/><path d="M278.42,213.32,277.88,262H237.33l.11-48.68Z" fill="#65b2ff"/><path d="M278.42,213.32q.16,24.33.31,48.68H246.62q-.1-24.34-.2-48.68Z" fill="#0f9be8"/><path d="M278.42,213.32q.16,24.33.31,48.68H258.45q-.26-24.34-.52-48.68Z" fill="#0066e8"/><path d="M237.44,213.32h41V223.7h-41Z" fill="#747e9e"/><path d="M246.42,213.32h32V223.7h-32Z" fill="#474f6f"/><path d="M257.93,213.32h20.5V223.7h-20.5Z" fill="#323b5a"/><path d="M270,253c.09,3,.17,6,.26,9H246.62c-.07-3-.13-6-.2-9a11.81,11.81,0,0,1,11.51-11.79h.29A11.8,11.8,0,0,1,270,253Z" fill="#d0f6ff"/></g><g id="Layer_18" data-name="Layer 18"><path d="M73.1,196l.3,66H32l.11-66,9-12.72,2-25.88a4.76,4.76,0,0,1,4.75-4.4h9.6a4.77,4.77,0,0,1,4.75,4.4l2,25.88Z" fill="#ff3445"/><path d="M73.1,196l.3,66H41.29q-.09-39.36-.19-78.72l2-25.88a4.76,4.76,0,0,1,4.75-4.4h9.6a4.77,4.77,0,0,1,4.75,4.4l2,25.88Z" fill="#606060"/><path d="M73.1,196l.3,66H41.29q-.09-39.36-.19-78.72l2-25.88a4.76,4.76,0,0,1,4.75-4.4h9.6a4.77,4.77,0,0,1,4.75,4.4l2,25.88Z" fill="#dd1265"/><path d="M73.1,196l.3,66H53.12l-.51-109h4.8a4.77,4.77,0,0,1,4.75,4.4l2,25.88Z" fill="#ba0d5c"/><path d="M73.1,213.32,72.56,262H32l.11-48.68Z" fill="#ff3445"/><path d="M73.1,213.32,73.4,262H41.29q-.09-24.34-.19-48.68Z" fill="#dd1265"/><path d="M73.1,213.32,73.4,262H53.12l-.51-48.68Z" fill="#ba0d5c"/><path d="M32.11,213.32h41V223.7h-41Z" fill="#747e9e"/><path d="M41.1,213.32h32V223.7h-32Z" fill="#474f6f"/><path d="M52.61,213.32H73.1V223.7H52.61Z" fill="#323b5a"/><path d="M64.69,253q.14,4.5.26,9H41.29c-.06-3-.13-6-.19-9a11.8,11.8,0,0,1,11.51-11.79h.29A11.8,11.8,0,0,1,64.69,253Z" fill="#d0f6ff"/></g><g id="Layer_19" data-name="Layer 19"><path d="M155.06,196l.3,66H114l.11-66,9-12.72,2-25.88a4.76,4.76,0,0,1,4.75-4.4h9.6a4.76,4.76,0,0,1,4.75,4.4l2,25.88Z" fill="#65b2ff"/><path d="M155.06,196l.3,66h-32.1q-.11-39.36-.2-78.72l2-25.88a4.76,4.76,0,0,1,4.75-4.4h9.6a4.76,4.76,0,0,1,4.75,4.4l2,25.88Z" fill="#606060"/><path d="M155.06,196l.3,66h-32.1q-.11-39.36-.2-78.72l2-25.88a4.76,4.76,0,0,1,4.75-4.4h9.6a4.76,4.76,0,0,1,4.75,4.4l2,25.88Z" fill="#0f9be8"/><path d="M155.06,196l.3,66H135.09q-.27-54.49-.52-109h4.8a4.76,4.76,0,0,1,4.75,4.4l2,25.88Z" fill="#0066e8"/><path d="M155.06,213.32,154.52,262H114l.11-48.68Z" fill="#65b2ff"/><path d="M155.06,213.32l.3,48.68h-32.1q-.11-24.34-.2-48.68Z" fill="#0f9be8"/><path d="M155.06,213.32l.3,48.68H135.09q-.27-24.34-.52-48.68Z" fill="#0066e8"/><path d="M114.07,213.32h41V223.7h-41Z" fill="#747e9e"/><path d="M123.06,213.32h32V223.7h-32Z" fill="#474f6f"/><path d="M134.57,213.32h20.49V223.7H134.57Z" fill="#323b5a"/><path d="M146.66,253c.08,3,.17,6,.25,9H123.26q-.11-4.49-.2-9a11.8,11.8,0,0,1,11.51-11.79h.29A11.81,11.81,0,0,1,146.66,253Z" fill="#d0f6ff"/></g></g><path d="M485.28,239.08a8.43,8.43,0,0,1-2.66-6.51,8.79,8.79,0,0,1,2.47-6c1.32-1.32,3.32-2.35,6.71-2.35a18.64,18.64,0,0,1,3.19.26c.83.16,1.51.22,2.33.33a.21.21,0,0,1,.2.24c0,.18-.07.44-.11,1.24s-.05,1.93-.07,2.26-.06.46-.2.46-.17-.15-.17-.46a3,3,0,0,0-.93-2.24,7.31,7.31,0,0,0-4.4-1.26c-2.92,0-4.29.86-5.06,1.61-1.6,1.54-2,3.5-2,5.74a8,8,0,0,0,7.94,8.06c1.65,0,2.95-.2,3.83-1.1a4.34,4.34,0,0,0,.82-1.85c0-.24.09-.33.22-.33s.15.15.15.33a22.46,22.46,0,0,1-.48,2.81c-.13.42-.18.47-.58.64a12.74,12.74,0,0,1-4,.51C489.24,241.46,487,240.64,485.28,239.08Z" fill="#134921"/><path d="M502.4,230.9c0-3.44,0-4.05,0-4.76s-.22-1.1-.95-1.25c-.15,0-.44,0-.64-.07s-.28,0-.28-.13.11-.17.35-.17c.5,0,1.1,0,2.48.06.16,0,4.54,0,5,0a4,4,0,0,0,1-.13c.13-.07.17-.09.24-.09s.09.09.09.2a8.17,8.17,0,0,0-.18,1c0,.33,0,.75-.09,1.32,0,.22-.09.38-.18.38s-.17-.11-.17-.29a2.39,2.39,0,0,0-.11-.73c-.15-.5-.62-.72-1.59-.81-.37,0-2.77-.07-3-.07-.09,0-.13.07-.13.22v6.08c0,.15,0,.22.13.22.29,0,3,0,3.5,0s.88-.11,1.1-.37.18-.22.26-.22.11,0,.11.17-.11.51-.17,1.24-.07,1.18-.09,1.49-.07.33-.16.33-.15-.17-.15-.35a1.9,1.9,0,0,0-.09-.62c-.09-.33-.35-.63-1.14-.72-.59-.07-2.77-.11-3.15-.11a.14.14,0,0,0-.15.15v1.94c0,.75,0,3.3,0,3.76,0,.9.17,1.39.72,1.61a5.46,5.46,0,0,0,1.83.2,7.52,7.52,0,0,0,2-.2c.71-.22,1-.68,1.12-1.63.05-.24.09-.33.2-.33s.13.18.13.33a21,21,0,0,1-.28,2.13c-.16.58-.33.58-1.19.58-1.63,0-2.36-.05-3.21-.07s-1.9-.07-2.75-.07c-.53,0-1.06.09-1.63.07-.24,0-.35,0-.35-.18s.11-.11.24-.13a3,3,0,0,0,.5-.06c.47-.11.75-.42.8-2.07,0-.86,0-2,0-3.94Z" fill="#134921"/><path d="M516,239.08a8.43,8.43,0,0,1-2.66-6.51,8.79,8.79,0,0,1,2.47-6c1.32-1.32,3.32-2.35,6.71-2.35a18.64,18.64,0,0,1,3.19.26c.83.16,1.52.22,2.33.33a.21.21,0,0,1,.2.24c0,.18-.07.44-.11,1.24s-.05,1.93-.07,2.26-.06.46-.2.46-.17-.15-.17-.46a3,3,0,0,0-.93-2.24,7.31,7.31,0,0,0-4.4-1.26c-2.92,0-4.29.86-5.06,1.61-1.6,1.54-2,3.5-2,5.74a8,8,0,0,0,8,8.06c1.64,0,2.94-.2,3.82-1.1a4.22,4.22,0,0,0,.82-1.85c0-.24.09-.33.22-.33s.15.15.15.33a22.46,22.46,0,0,1-.48,2.81c-.13.42-.18.47-.57.64a12.83,12.83,0,0,1-4,.51C519.93,241.46,517.71,240.64,516,239.08Z" fill="#134921"/><path d="M532.12,240.86c-.31-.15-.33-.24-.33-.83,0-1.1.09-2,.11-2.33s.07-.36.18-.36.15.07.15.25a3.67,3.67,0,0,0,.07.81c.33,1.63,1.78,2.24,3.25,2.24a2.93,2.93,0,0,0,3.15-2.92c0-1.52-.64-2.4-2.53-4l-1-.82c-2.33-1.91-2.86-3.28-2.86-4.77,0-2.36,1.76-4,4.55-4a8.66,8.66,0,0,1,2,.22,3.46,3.46,0,0,0,.77.11c.18,0,.22,0,.22.15s-.09.84-.09,2.33c0,.36,0,.51-.15.51s-.16-.11-.18-.29a4,4,0,0,0-.28-1.1c-.14-.24-.73-1.16-2.75-1.16a2.5,2.5,0,0,0-2.71,2.55c0,1.25.57,2.05,2.68,3.7l.62.48c2.6,2,3.21,3.41,3.21,5.17a4.54,4.54,0,0,1-1.87,3.65,5.77,5.77,0,0,1-3.32.93A6.69,6.69,0,0,1,532.12,240.86Z" fill="#134921"/><path d="M544.4,240.86c-.31-.15-.33-.24-.33-.83,0-1.1.09-2,.11-2.33s.06-.36.17-.36.16.07.16.25a4.27,4.27,0,0,0,.06.81c.33,1.63,1.79,2.24,3.26,2.24a2.94,2.94,0,0,0,3.15-2.92c0-1.52-.64-2.4-2.53-4l-1-.82c-2.34-1.91-2.87-3.28-2.87-4.77,0-2.36,1.77-4,4.56-4a8.66,8.66,0,0,1,2.05.22,3.39,3.39,0,0,0,.77.11c.17,0,.22,0,.22.15s-.09.84-.09,2.33c0,.36-.05.51-.16.51s-.15-.11-.17-.29a4,4,0,0,0-.29-1.1c-.13-.24-.72-1.16-2.75-1.16a2.49,2.49,0,0,0-2.7,2.55c0,1.25.57,2.05,2.68,3.7l.62.48c2.59,2,3.21,3.41,3.21,5.17a4.54,4.54,0,0,1-1.87,3.65,5.81,5.81,0,0,1-3.32.93A6.67,6.67,0,0,1,544.4,240.86Z" fill="#134921"/><path d="M559.82,234.66a.22.22,0,0,0-.22.17l-1.32,3.9a4.61,4.61,0,0,0-.31,1.47.71.71,0,0,0,.79.64h.2c.22,0,.29,0,.29.13s-.2.18-.4.18c-.53,0-1.41-.07-1.65-.07s-1.45.07-2.49.07c-.28,0-.41,0-.41-.18s.11-.13.3-.13a4.91,4.91,0,0,0,.53,0c1-.13,1.45-1,1.85-2.07l5-13.66c.26-.73.35-.86.48-.86s.22.11.48.79c.33.84,3.79,9.92,5.13,13.27.79,2,1.43,2.31,1.89,2.44a2.88,2.88,0,0,0,.86.13c.13,0,.24,0,.24.13s-.19.18-.44.18-1.93,0-3.45,0c-.42,0-.66,0-.66-.16s.06-.13.15-.15.27-.24.13-.6l-2-5.41a.2.2,0,0,0-.2-.13Zm4.44-.79c.11,0,.11-.07.09-.16l-2.09-5.94q-.16-.5-.33,0L560,233.71c0,.11,0,.16.06.16Z" fill="#134921"/><path d="M574.36,239.08a8.43,8.43,0,0,1-2.66-6.51,8.82,8.82,0,0,1,2.46-6c1.32-1.32,3.33-2.35,6.72-2.35a18.71,18.71,0,0,1,3.19.26c.83.16,1.51.22,2.33.33a.21.21,0,0,1,.2.24c0,.18-.07.44-.11,1.24s0,1.93-.07,2.26-.07.46-.2.46-.18-.15-.18-.46a3,3,0,0,0-.92-2.24,7.31,7.31,0,0,0-4.4-1.26c-2.93,0-4.29.86-5.06,1.61-1.61,1.54-2,3.5-2,5.74a7.94,7.94,0,0,0,7.94,8.06c1.65,0,3-.2,3.83-1.1a4.34,4.34,0,0,0,.82-1.85c0-.24.08-.33.22-.33s.15.15.15.33a22.46,22.46,0,0,1-.48,2.81c-.14.42-.18.47-.58.64a12.78,12.78,0,0,1-4,.51C578.32,241.46,576.1,240.64,574.36,239.08Z" fill="#134921"/></svg>