<svg id="Layer_22" data-name="Layer 22" xmlns="http://www.w3.org/2000/svg" viewBox="0 0 606 262"><title>tit_sap</title><path d="M606,0V262H0V0Z" fill="#f0ecd7"/><path d="M204.06,240.86c-.31-.15-.33-.24-.33-.83,0-1.1.09-2,.11-2.33s.06-.36.17-.36.16.07.16.25a4.27,4.27,0,0,0,.06.81c.33,1.63,1.79,2.24,3.26,2.24a2.94,2.94,0,0,0,3.15-2.92c0-1.52-.64-2.4-2.53-4l-1-.82c-2.34-1.91-2.86-3.28-2.86-4.77,0-2.36,1.76-4,4.55-4a8.66,8.66,0,0,1,2.05.22,3.39,3.39,0,0,0,.77.11c.17,0,.22,0,.22.15s-.09.84-.09,2.33c0,.36,0,.51-.16.51s-.15-.11-.17-.29a4,4,0,0,0-.29-1.1c-.13-.24-.72-1.16-2.75-1.16a2.49,2.49,0,0,0-2.7,2.55c0,1.25.57,2.05,2.68,3.7l.62.48c2.59,2,3.21,3.41,3.21,5.17a4.54,4.54,0,0,1-1.87,3.65,5.81,5.81,0,0,1-3.32.93A6.67,6.67,0,0,1,204.06,240.86Z" fill="#134921"/><path d="M216.84,232.42c0-2.89,0-3.42,0-4s-.2-.92-.84-1.06a4,4,0,0,0-.53,0c-.15,0-.28-.07-.28-.13s.11-.18.33-.18c.44,0,1,.05,2.26.07.11,0,4,0,4.47,0a3.81,3.81,0,0,0,.86-.11.56.56,0,0,1,.24-.07s.09,0,.09.15a9,9,0,0,0-.18,1c0,.38,0,.73-.07,1.15,0,.2,0,.33-.15.33s-.15-.09-.15-.24a2.27,2.27,0,0,0-.16-.71c-.13-.44-.33-.59-1.43-.66-.28,0-2.46,0-2.51,0s-.11,0-.11.17v5c0,.13,0,.22.14.22s2.5,0,3-.07.83-.08,1-.33.15-.17.24-.17.09,0,.09.13-.09.53-.16,1.17-.06,1-.08,1.34-.07.24-.16.24-.13-.13-.13-.29a2.21,2.21,0,0,0-.07-.53c-.08-.28-.22-.59-1.05-.65-.51,0-2.29-.09-2.64-.09-.13,0-.16.06-.16.15v1.61c0,.68,0,2.62,0,3,.05.81.16,1.23.62,1.43a4.26,4.26,0,0,0,1.61.2,6.74,6.74,0,0,0,1.67-.13c.66-.2.81-.64,1-1.46,0-.22.11-.3.2-.3s.13.19.13.33-.18,1.54-.24,1.91-.25.48-1,.48c-1.45,0-2.07,0-2.84,0s-1.78-.07-2.6-.07c-.5,0-.92.07-1.45.07-.2,0-.31,0-.31-.15a.18.18,0,0,1,.2-.16,1.78,1.78,0,0,0,.44-.06c.4-.09.66-.38.71-1.74,0-.75,0-1.65,0-3.33Z" fill="#134921"/><path d="M228.92,239.39a7.17,7.17,0,0,1-2.36-5.61,7.36,7.36,0,0,1,2.23-5.08c1.18-1.15,3-2,5.91-2a19.68,19.68,0,0,1,2.91.24,18.7,18.7,0,0,0,1.93.24c.18,0,.2.11.2.22s-.06.38-.11,1.08,0,1.76,0,2-.07.42-.18.42-.17-.13-.17-.42a2.6,2.6,0,0,0-.86-1.91,6.58,6.58,0,0,0-3.9-1.12c-2.44,0-3.56.68-4.22,1.27a5.92,5.92,0,0,0-1.76,4.82,6.88,6.88,0,0,0,6.84,6.87c1.5,0,2.6-.16,3.37-.9a3.08,3.08,0,0,0,.73-1.59c0-.22.1-.33.24-.33s.11.16.11.31a21.52,21.52,0,0,1-.44,2.44c-.14.35-.2.42-.51.55a10.6,10.6,0,0,1-3.48.44C232.46,241.39,230.48,240.73,228.92,239.39Z" fill="#134921"/><path d="M244.19,232.42c0-2.91,0-3.44-.05-4s-.2-.93-.88-1.06a4,4,0,0,0-.53,0c-.15,0-.24,0-.24-.13s.07-.16.27-.16c.94,0,2.28.07,2.33.07s1.69-.07,2.31-.07a6.21,6.21,0,0,1,3.61.84,3.37,3.37,0,0,1,1.32,2.68,5.49,5.49,0,0,1-2.34,4.16c1.61,2,2.93,3.61,4,4.78a3.74,3.74,0,0,0,2.34,1.34c.15,0,.61,0,.68,0s.24.07.24.16-.09.15-.4.15h-1.54a5.12,5.12,0,0,1-2-.26c-.92-.4-1.58-1.39-2.73-2.86-.86-1.06-1.74-2.25-2.11-2.71a.3.3,0,0,0-.26-.13l-2.27,0c-.09,0-.11,0-.11.11v.3a41.3,41.3,0,0,0,.11,4.16c.07.53.13,1,.86,1.06.22,0,.46,0,.64,0s.28.07.28.13-.09.18-.31.18c-1.14,0-2.37-.07-2.46-.07-.35,0-1.32.07-1.91.07-.22,0-.31,0-.31-.18s.13-.13.26-.13a2.11,2.11,0,0,0,.49,0c.37-.07.5-.31.57-.84.11-.79.09-2.59.09-4.25Zm1.69,1.56c0,.11,0,.22.11.26a5.76,5.76,0,0,0,2,.29,2.64,2.64,0,0,0,1.47-.33,3.19,3.19,0,0,0,1.1-2.8c0-2.4-1.27-3.72-3.23-3.72a6.42,6.42,0,0,0-1.28.11.22.22,0,0,0-.13.2Z" fill="#134921"/><path d="M258.44,232.42c0-2.89,0-3.42,0-4s-.2-.92-.84-1.06a4,4,0,0,0-.53,0c-.15,0-.28-.07-.28-.13s.11-.18.33-.18c.44,0,1,.05,2.26.07.11,0,4,0,4.47,0a3.81,3.81,0,0,0,.86-.11.56.56,0,0,1,.24-.07s.09,0,.09.15-.13.44-.18,1c0,.38,0,.73-.06,1.15,0,.2-.05.33-.16.33s-.15-.09-.15-.24a2,2,0,0,0-.16-.71c-.13-.44-.33-.59-1.43-.66-.28,0-2.46,0-2.5,0s-.11,0-.11.17v5c0,.13,0,.22.13.22s2.51,0,3-.07.84-.08,1-.33.16-.17.24-.17.09,0,.09.13-.09.53-.15,1.17-.07,1-.09,1.34-.07.24-.16.24-.13-.13-.13-.29a2.77,2.77,0,0,0-.06-.53c-.09-.28-.22-.59-1.06-.65-.51,0-2.29-.09-2.64-.09-.13,0-.15.06-.15.15v1.61c0,.68,0,2.62,0,3,0,.81.15,1.23.61,1.43a4.26,4.26,0,0,0,1.61.2,6.71,6.71,0,0,0,1.67-.13c.66-.2.82-.64,1-1.46.05-.22.11-.3.2-.3s.13.19.13.33-.17,1.54-.24,1.91-.24.48-1,.48c-1.45,0-2.07,0-2.84,0s-1.78-.07-2.59-.07c-.51,0-.93.07-1.46.07-.19,0-.3,0-.3-.15a.17.17,0,0,1,.19-.16,1.72,1.72,0,0,0,.44-.06c.4-.09.66-.38.71-1.74,0-.75,0-1.65,0-3.33Z" fill="#134921"/><path d="M274.66,235.71c0,1.7,0,3.26.11,4.08.06.52.11.83.66,1a4.05,4.05,0,0,0,.86.09c.17,0,.26.07.26.13s-.07.18-.29.18c-1.12,0-2.42-.07-2.51-.07s-1.38.07-1.95.07c-.25,0-.33,0-.33-.15s.06-.16.24-.16a3.85,3.85,0,0,0,.48,0c.42-.07.49-.33.57-1.08s.09-2.37.09-4v-7.85c-.72,0-1.89,0-2.77,0-1.41,0-1.72.24-2,.71a3,3,0,0,0-.33.68c-.07.15-.11.17-.2.17s-.11-.08-.11-.19.31-1.59.44-2.18c.06-.27.13-.35.2-.35s.57.19,1,.24c.77.09,1.39.11,1.41.11h7.22a10,10,0,0,0,1.58-.11,2.51,2.51,0,0,1,.42-.09c.09,0,.13.11.13.2,0,.61,0,2.07,0,2.24s-.09.27-.15.27-.16-.09-.16-.27a2.83,2.83,0,0,0,0-.31c-.09-.88-.37-1.1-2.6-1.12l-2.15,0Z" fill="#134921"/><path d="M283.65,235.78c-.11,0-.17.07-.22.18l-1,2.75a5.56,5.56,0,0,0-.38,1.56c0,.4.24.57.73.57H283c.2,0,.27.07.27.16s-.18.15-.33.15c-.49,0-1.5-.07-1.74-.07s-1.19.07-2.11.07c-.25,0-.36,0-.36-.15s.09-.16.27-.16a3.39,3.39,0,0,0,.44,0c.94-.09,1.32-.81,1.69-1.74l4.4-11.59c.24-.64.31-.75.46-.75s.2.09.44.7,3.31,8.41,4.47,11.16c.73,1.74,1.37,2,1.67,2.13a2.13,2.13,0,0,0,.75.11c.16,0,.27,0,.27.16s-.09.15-.33.15-1.87,0-3.35,0c-.42,0-.55-.05-.55-.16s.07-.13.16-.15.22-.16.08-.49l-1.74-4.42a.19.19,0,0,0-.17-.11Zm3.75-.77c.08,0,.08-.06.06-.13L285.72,230c-.11-.31-.13-.31-.24,0l-1.65,4.86c0,.09,0,.13,0,.13Z" fill="#134921"/><path d="M296.26,232.42c0-2.91,0-3.44,0-4s-.2-.93-.88-1.06a4.24,4.24,0,0,0-.53,0c-.16,0-.24,0-.24-.13s.06-.16.26-.16c.95,0,2.29.07,2.33.07.2,0,1.7-.07,2.31-.07a6.2,6.2,0,0,1,3.61.84,3.34,3.34,0,0,1,1.32,2.68,5.48,5.48,0,0,1-2.33,4.16c1.61,2,2.93,3.61,4.05,4.78a3.71,3.71,0,0,0,2.33,1.34c.15,0,.62,0,.68,0s.24.07.24.16-.08.15-.39.15h-1.54a5.05,5.05,0,0,1-2-.26c-.93-.4-1.59-1.39-2.73-2.86-.86-1.06-1.74-2.25-2.12-2.71a.29.29,0,0,0-.26-.13l-2.27,0c-.08,0-.11,0-.11.11v.3a41.3,41.3,0,0,0,.11,4.16c.07.53.14,1,.86,1.06.22,0,.46,0,.64,0s.29.07.29.13-.09.18-.31.18c-1.15,0-2.38-.07-2.47-.07-.35,0-1.32.07-1.91.07-.22,0-.31,0-.31-.18s.13-.13.27-.13a2.07,2.07,0,0,0,.48,0c.37-.07.51-.31.57-.84.11-.79.09-2.59.09-4.25ZM298,234a.28.28,0,0,0,.11.26,5.76,5.76,0,0,0,2,.29,2.69,2.69,0,0,0,1.48-.33,3.19,3.19,0,0,0,1.1-2.8c0-2.4-1.28-3.72-3.24-3.72a6.23,6.23,0,0,0-1.27.11.21.21,0,0,0-.14.2Z" fill="#134921"/><path d="M310.52,232.42c0-2.91,0-3.44,0-4s-.17-.93-.64-1a4.84,4.84,0,0,0-.5-.07q-.24,0-.24-.15c0-.11.08-.16.33-.16.68,0,1.93.07,2,.07s1.36-.07,2-.07c.22,0,.33.05.33.16s-.07.13-.24.15l-.4,0c-.64.09-.7.42-.75,1.06s0,1.1,0,4v3.29c0,1.7,0,3.24.09,4,.09.64.17.88.75,1a4.59,4.59,0,0,0,.83.09c.2,0,.24.07.24.16s-.08.15-.3.15c-1.13,0-2.4-.07-2.51-.07s-1.37.07-2,.07c-.2,0-.35,0-.35-.15s.08-.16.28-.16a3,3,0,0,0,.53-.06c.37-.09.44-.53.51-1.06a39.06,39.06,0,0,0,.11-4Z" fill="#134921"/><path d="M320.11,235.78a.23.23,0,0,0-.22.18l-1,2.75a5.48,5.48,0,0,0-.37,1.56c0,.4.24.57.72.57h.16c.19,0,.26.07.26.16s-.18.15-.33.15c-.48,0-1.5-.07-1.74-.07s-1.19.07-2.11.07c-.24,0-.35,0-.35-.15s.09-.16.26-.16a3.39,3.39,0,0,0,.44,0c.95-.09,1.32-.81,1.7-1.74l4.4-11.59c.24-.64.3-.75.46-.75s.2.09.44.7,3.3,8.41,4.47,11.16c.72,1.74,1.36,2,1.67,2.13a2.08,2.08,0,0,0,.75.11c.15,0,.26,0,.26.16s-.09.15-.33.15-1.87,0-3.35,0c-.41,0-.54-.05-.54-.16a.18.18,0,0,1,.15-.15c.09-.05.22-.16.09-.49l-1.74-4.42a.21.21,0,0,0-.18-.11Zm3.74-.77c.09,0,.09-.06.07-.13L322.18,230c-.11-.31-.14-.31-.25,0l-1.65,4.86c0,.09,0,.13.05.13Z" fill="#134921"/><path d="M332.69,232.42c0-2.91,0-3.46,0-4s-.22-.9-.86-1a5.92,5.92,0,0,0-.64,0c-.11,0-.22-.07-.22-.13s.13-.18.33-.18c.9,0,2.29.07,2.36.07s1.29-.07,2.53-.07c1.93,0,5.54-.2,7.87,2.16a6.51,6.51,0,0,1,1.87,4.73,7.53,7.53,0,0,1-2.09,5.26,7.71,7.71,0,0,1-5.87,2.15c-.84,0-1.92,0-2.75-.11s-1.52-.11-1.59-.11-.33,0-.74,0-1,0-1.28,0-.31,0-.31-.15.07-.16.24-.16a2.22,2.22,0,0,0,.51-.06c.37-.07.51-.53.57-1a34.67,34.67,0,0,0,.11-4.09Zm1.81,1.87c0,2,0,3.69,0,4a3.43,3.43,0,0,0,.22,1.48c.24.37.94.83,3.23.83a6.35,6.35,0,0,0,4.58-1.71,6.25,6.25,0,0,0,1.43-4.38,6.45,6.45,0,0,0-1.89-4.73c-1.87-1.87-4-2.09-6.21-2.09a3.74,3.74,0,0,0-1.12.15.35.35,0,0,0-.24.37c0,.64,0,2.51,0,3.83Z" fill="#134921"/><path d="M348.64,234a7.42,7.42,0,0,1,7.7-7.3c4.36,0,7.68,2.59,7.68,7a7.48,7.48,0,0,1-7.79,7.63A7.15,7.15,0,0,1,348.64,234Zm13.31.27c0-4.43-2.72-6.89-5.74-6.89s-5.52,1.89-5.52,6.05c0,4.31,2.4,7.17,6.09,7.17C358.26,240.64,362,239.9,362,234.31Z" fill="#134921"/><path d="M375.81,232.42c0-2.91,0-3.46,0-4s-.22-.9-.86-1a5.92,5.92,0,0,0-.64,0c-.11,0-.22-.07-.22-.13s.13-.18.33-.18c.91,0,2.29.07,2.36.07s1.3-.07,2.53-.07c1.93,0,5.54-.2,7.87,2.16a6.51,6.51,0,0,1,1.87,4.73,7.53,7.53,0,0,1-2.09,5.26,7.71,7.71,0,0,1-5.87,2.15c-.84,0-1.91,0-2.75-.11s-1.52-.11-1.59-.11-.33,0-.74,0-1,0-1.28,0-.31,0-.31-.15.07-.16.25-.16a2.14,2.14,0,0,0,.5-.06c.37-.07.51-.53.57-1a34.67,34.67,0,0,0,.11-4.09Zm1.81,1.87c0,2,0,3.69,0,4a3.59,3.59,0,0,0,.22,1.48c.24.37.95.83,3.23.83a6.35,6.35,0,0,0,4.58-1.71,6.25,6.25,0,0,0,1.43-4.38,6.41,6.41,0,0,0-1.89-4.73c-1.87-1.87-4-2.09-6.21-2.09a3.79,3.79,0,0,0-1.12.15.37.37,0,0,0-.24.37c0,.64,0,2.51,0,3.83Z" fill="#134921"/><path d="M393.41,232.42c0-2.89,0-3.42,0-4s-.2-.92-.84-1.06a4,4,0,0,0-.53,0c-.15,0-.28-.07-.28-.13s.11-.18.33-.18c.44,0,1,.05,2.27.07.11,0,4,0,4.46,0a3.81,3.81,0,0,0,.86-.11.56.56,0,0,1,.24-.07c.05,0,.09,0,.09.15s-.13.44-.18,1c0,.38,0,.73-.06,1.15,0,.2-.05.33-.16.33s-.15-.09-.15-.24a2.31,2.31,0,0,0-.15-.71c-.14-.44-.33-.59-1.43-.66-.29,0-2.47,0-2.51,0s-.11,0-.11.17v5c0,.13,0,.22.13.22s2.51,0,3-.07.84-.08,1-.33.16-.17.24-.17.09,0,.09.13-.09.53-.15,1.17-.07,1-.09,1.34-.07.24-.15.24-.14-.13-.14-.29a2.77,2.77,0,0,0-.06-.53c-.09-.28-.22-.59-1.06-.65-.5,0-2.29-.09-2.64-.09-.13,0-.15.06-.15.15v1.61c0,.68,0,2.62,0,3,0,.81.15,1.23.61,1.43a4.26,4.26,0,0,0,1.61.2,6.71,6.71,0,0,0,1.67-.13c.66-.2.82-.64,1-1.46,0-.22.11-.3.2-.3s.13.19.13.33-.17,1.54-.24,1.91-.24.48-1,.48c-1.45,0-2.07,0-2.84,0s-1.78-.07-2.59-.07c-.51,0-.93.07-1.46.07-.19,0-.3,0-.3-.15a.18.18,0,0,1,.2-.16,1.85,1.85,0,0,0,.44-.06c.39-.09.66-.38.7-1.74,0-.75,0-1.65,0-3.33Z" fill="#134921"/><path d="M414,234.66a.22.22,0,0,0-.22.17l-1.32,3.9a4.61,4.61,0,0,0-.31,1.47.71.71,0,0,0,.79.64h.2c.22,0,.28,0,.28.13s-.19.18-.39.18c-.53,0-1.41-.07-1.65-.07s-1.45.07-2.49.07c-.28,0-.42,0-.42-.18s.11-.13.31-.13a5.11,5.11,0,0,0,.53,0c1-.13,1.45-1,1.85-2.07l5-13.66c.27-.73.35-.86.49-.86s.22.11.48.79c.33.84,3.79,9.92,5.13,13.27.79,2,1.43,2.31,1.89,2.44a2.88,2.88,0,0,0,.86.13c.13,0,.24,0,.24.13s-.2.18-.44.18-1.94,0-3.46,0c-.41,0-.65,0-.65-.16s.06-.13.15-.15.26-.24.13-.6l-2.05-5.41a.18.18,0,0,0-.19-.13Zm4.44-.79c.11,0,.11-.07.09-.16l-2.09-5.94q-.17-.5-.33,0l-1.94,5.94c0,.11,0,.16.07.16Z" fill="#134921"/><path d="M433.37,241.35a8.54,8.54,0,0,1-5.17-2,7.17,7.17,0,0,1-2.36-5.61,7.39,7.39,0,0,1,2.22-5.08c1.19-1.15,3-2,5.92-2a19.79,19.79,0,0,1,2.91.24,18.38,18.38,0,0,0,1.93.24c.18,0,.2.11.2.22s-.06.38-.11,1.08,0,1.76,0,2-.07.42-.18.42-.18-.13-.18-.42a2.59,2.59,0,0,0-.85-1.91,6.58,6.58,0,0,0-3.9-1.12c-2.44,0-3.56.68-4.22,1.27a5.92,5.92,0,0,0-1.76,4.82,6.88,6.88,0,0,0,6.84,6.87c1.5,0,2.6-.16,3.37-.9a3.07,3.07,0,0,0,.72-1.59c.05-.22.11-.33.25-.33s.1.16.1.31a21.21,21.21,0,0,1-.43,2.44c-.14.35-.2.42-.51.55a10.64,10.64,0,0,1-3.48.44h-.53c-.41.38-.9.82-1.12,1,1,.16,2.31.55,2.31,1.7s-1.56,2-3.32,2c-.15,0-.29-.09-.29-.18s.14-.11.42-.18c1-.2,1.7-.66,1.7-1.45s-.49-1.17-1.74-1.36c-.13,0-.24-.09-.24-.16s.13-.2.26-.28Z" fill="#134921"/><path d="M445.55,235.78c-.11,0-.17.07-.22.18l-1,2.75a5.56,5.56,0,0,0-.38,1.56c0,.4.24.57.73.57h.15c.2,0,.27.07.27.16s-.18.15-.33.15c-.49,0-1.5-.07-1.74-.07s-1.19.07-2.11.07c-.25,0-.36,0-.36-.15s.09-.16.27-.16a3.47,3.47,0,0,0,.44,0c.94-.09,1.32-.81,1.69-1.74l4.4-11.59c.24-.64.31-.75.46-.75s.2.09.44.7,3.3,8.41,4.47,11.16c.73,1.74,1.36,2,1.67,2.13a2.13,2.13,0,0,0,.75.11c.15,0,.27,0,.27.16s-.09.15-.33.15-1.88,0-3.35,0c-.42,0-.55-.05-.55-.16s.07-.13.15-.15.22-.16.09-.49l-1.74-4.42a.19.19,0,0,0-.17-.11Zm.55-11.51a1.62,1.62,0,0,0-1.34.64c-.15.2-.2.2-.28.2s-.11-.11,0-.31a2.83,2.83,0,0,1,2-1.52,5.71,5.71,0,0,1,1.91.51,4.26,4.26,0,0,0,1.34.37,1.91,1.91,0,0,0,1.54-.74c.11-.14.2-.18.25-.18s.11.15,0,.29c-.49.77-1.26,1.69-2.16,1.69S447,224.27,446.1,224.27ZM449.29,235c.09,0,.09-.06.07-.13L447.62,230c-.11-.31-.13-.31-.24,0l-1.65,4.86c0,.09,0,.13,0,.13Z" fill="#134921"/><path d="M456.16,234a7.42,7.42,0,0,1,7.7-7.3c4.35,0,7.68,2.59,7.68,7a7.49,7.49,0,0,1-7.79,7.63A7.15,7.15,0,0,1,456.16,234Zm13.31.27c0-4.43-2.73-6.89-5.74-6.89s-5.53,1.89-5.53,6.05c0,4.31,2.4,7.17,6.1,7.17C465.77,240.64,469.47,239.9,469.47,234.31Z" fill="#134921"/><path d="M483.83,230.9c0-3.44,0-4.05,0-4.76s-.22-1.1-1-1.25a4.42,4.42,0,0,0-.74-.07c-.09,0-.18,0-.18-.13s.11-.17.35-.17c1,0,2.31.06,2.49.06.48,0,1.76-.06,2.77-.06,2.75,0,3.74.92,4.09,1.25a4,4,0,0,1,1.1,2.88c0,2.86-2.29,5-5.41,5a2.37,2.37,0,0,1-.46,0c-.11,0-.24,0-.24-.15s.13-.2.59-.2a3.63,3.63,0,0,0,3.81-3.76,4.52,4.52,0,0,0-1.24-3.21,3.8,3.8,0,0,0-3-1.1,2.71,2.71,0,0,0-.95.13c-.13,0-.17.2-.17.42v9c0,2.11,0,3.85.11,4.77.06.64.2,1.13.86,1.21a8,8,0,0,0,1,.09c.13,0,.17.07.17.13s-.11.18-.35.18c-1.21,0-2.6-.07-2.71-.07s-1.45.07-2.11.07c-.24,0-.35,0-.35-.18s0-.13.18-.13a3.08,3.08,0,0,0,.66-.09c.44-.08.55-.57.63-1.21.11-.92.11-2.66.11-4.77Z" fill="#134921"/><path d="M496.66,235.78a.23.23,0,0,0-.22.18l-1,2.75a5.48,5.48,0,0,0-.37,1.56c0,.4.24.57.72.57H496c.2,0,.26.07.26.16s-.17.15-.33.15c-.48,0-1.49-.07-1.74-.07s-1.18.07-2.11.07c-.24,0-.35,0-.35-.15s.09-.16.26-.16a3.39,3.39,0,0,0,.44,0c.95-.09,1.32-.81,1.7-1.74l4.4-11.59c.24-.64.31-.75.46-.75s.2.09.44.7,3.3,8.41,4.47,11.16c.72,1.74,1.36,2,1.67,2.13a2.08,2.08,0,0,0,.75.11c.15,0,.26,0,.26.16s-.09.15-.33.15-1.87,0-3.34,0c-.42,0-.55-.05-.55-.16a.18.18,0,0,1,.15-.15c.09-.05.22-.16.09-.49l-1.74-4.42a.21.21,0,0,0-.18-.11Zm3.74-.77c.09,0,.09-.06.07-.13L498.73,230c-.11-.31-.13-.31-.24,0l-1.65,4.86c0,.09,0,.13,0,.13Z" fill="#134921"/><path d="M508.34,240.91c-.28-.13-.28-.22-.28-.75,0-1,.06-1.76.08-2.07s.07-.31.18-.31.15.07.15.22a2.54,2.54,0,0,0,.07.66,2.65,2.65,0,0,0,2.86,2,2.47,2.47,0,0,0,2.71-2.35c0-1.25-.58-2-2.18-3.32l-.88-.68c-2.11-1.7-2.55-2.87-2.55-4.16,0-2,1.6-3.39,4.07-3.39a7.76,7.76,0,0,1,1.78.17,3.48,3.48,0,0,0,.75.11c.15,0,.19,0,.19.14s-.08.85-.08,2.13c0,.33-.05.46-.16.46s-.13-.09-.15-.24a2.85,2.85,0,0,0-.27-1c-.11-.2-.61-1-2.46-1a2.1,2.1,0,0,0-2.31,2.11c0,1,.53,1.68,2.35,3.06l.51.4c2.29,1.76,2.88,2.93,2.88,4.49a3.85,3.85,0,0,1-1.67,3.12,5.49,5.49,0,0,1-3,.77A6.32,6.32,0,0,1,508.34,240.91Z" fill="#134921"/><path d="M524.62,235.71c0,1.7,0,3.26.11,4.08.07.52.11.83.66,1a4.12,4.12,0,0,0,.86.09c.18,0,.26.07.26.13s-.06.18-.28.18c-1.12,0-2.42-.07-2.51-.07s-1.39.07-2,.07c-.24,0-.33,0-.33-.15s.07-.16.24-.16a4,4,0,0,0,.49,0c.42-.07.48-.33.57-1.08s.09-2.37.09-4v-7.85c-.73,0-1.89,0-2.78,0-1.4,0-1.71.24-2,.71a3.47,3.47,0,0,0-.33.68c-.06.15-.11.17-.2.17s-.11-.08-.11-.19.31-1.59.44-2.18c.07-.27.14-.35.2-.35s.57.19,1,.24c.77.09,1.39.11,1.41.11h7.21a10.22,10.22,0,0,0,1.59-.11,2.15,2.15,0,0,1,.42-.09c.09,0,.13.11.13.2,0,.61,0,2.07,0,2.24s-.09.27-.16.27-.15-.09-.15-.27a2.83,2.83,0,0,0,0-.31c-.09-.88-.38-1.1-2.6-1.12l-2.16,0Z" fill="#134921"/><path d="M531.24,234a7.42,7.42,0,0,1,7.7-7.3c4.36,0,7.68,2.59,7.68,7a7.48,7.48,0,0,1-7.79,7.63A7.15,7.15,0,0,1,531.24,234Zm13.31.27c0-4.43-2.72-6.89-5.74-6.89s-5.52,1.89-5.52,6.05c0,4.31,2.4,7.17,6.09,7.17C540.86,240.64,544.55,239.9,544.55,234.31Z" fill="#134921"/><path d="M551.07,232.42c0-2.91,0-3.44-.05-4s-.2-.93-.88-1.06a4,4,0,0,0-.53,0c-.15,0-.24,0-.24-.13s.07-.16.26-.16c1,0,2.29.07,2.34.07s1.69-.07,2.31-.07a6.21,6.21,0,0,1,3.61.84,3.37,3.37,0,0,1,1.32,2.68,5.49,5.49,0,0,1-2.34,4.16c1.61,2,2.93,3.61,4,4.78a3.75,3.75,0,0,0,2.33,1.34c.16,0,.62,0,.69,0s.24.07.24.16-.09.15-.4.15h-1.54a5.08,5.08,0,0,1-2-.26c-.92-.4-1.58-1.39-2.73-2.86-.86-1.06-1.74-2.25-2.11-2.71a.3.3,0,0,0-.26-.13l-2.27,0c-.09,0-.11,0-.11.11v.3a41.3,41.3,0,0,0,.11,4.16c.07.53.13,1,.86,1.06.22,0,.46,0,.64,0s.28.07.28.13-.09.18-.31.18c-1.14,0-2.37-.07-2.46-.07-.35,0-1.32.07-1.92.07-.21,0-.3,0-.3-.18s.13-.13.26-.13a2.11,2.11,0,0,0,.49,0c.37-.07.5-.31.57-.84.11-.79.09-2.59.09-4.25Zm1.69,1.56c0,.11,0,.22.11.26a5.76,5.76,0,0,0,2,.29,2.64,2.64,0,0,0,1.47-.33,3.19,3.19,0,0,0,1.1-2.8c0-2.4-1.27-3.72-3.23-3.72a6.42,6.42,0,0,0-1.28.11.22.22,0,0,0-.13.2Z" fill="#134921"/><path d="M567.3,235.78c-.11,0-.17.07-.22.18l-1,2.75a5.48,5.48,0,0,0-.37,1.56c0,.4.24.57.73.57h.15c.2,0,.26.07.26.16s-.17.15-.33.15c-.48,0-1.49-.07-1.73-.07s-1.19.07-2.12.07c-.24,0-.35,0-.35-.15s.09-.16.27-.16a3.32,3.32,0,0,0,.43,0c1-.09,1.33-.81,1.7-1.74l4.4-11.59c.24-.64.31-.75.46-.75s.2.09.44.7,3.3,8.41,4.47,11.16c.72,1.74,1.36,2,1.67,2.13a2.13,2.13,0,0,0,.75.11c.15,0,.26,0,.26.16s-.08.15-.33.15-1.87,0-3.34,0c-.42,0-.55-.05-.55-.16a.18.18,0,0,1,.15-.15c.09-.05.22-.16.09-.49l-1.74-4.42a.2.2,0,0,0-.17-.11ZM571,235c.09,0,.09-.06.07-.13L569.37,230c-.11-.31-.13-.31-.24,0l-1.65,4.86c-.05.09,0,.13,0,.13Z" fill="#134921"/><path d="M581.69,235.76c0,2.53.09,3.81.46,4.16s.79.44,2.31.44c1,0,1.85,0,2.33-.62a2.78,2.78,0,0,0,.42-1.1c0-.17.07-.26.18-.26s.13.06.13.28a14.22,14.22,0,0,1-.26,2c-.14.44-.11.55-1.17.55-1.5,0-3.15-.11-5.35-.11-.72,0-1.16.07-1.93.07-.22,0-.35,0-.35-.18s.06-.13.24-.13a2.28,2.28,0,0,0,.52,0c.38-.07.51-.51.58-1a36.24,36.24,0,0,0,.08-4v-3.29c0-2.91,0-3.39,0-4s-.13-1-.88-1.1a4.61,4.61,0,0,0-.55,0c-.15,0-.24-.07-.24-.15s.11-.16.33-.16c.92,0,2.24.07,2.29.07.31,0,1.65-.07,2.26-.07.22,0,.29.07.29.16s-.11.15-.24.15-.38,0-.6,0c-.61.09-.74.44-.79,1.08s0,1.08,0,4Z" fill="#134921"/><g id="Layer_30" data-name="Layer 30"><path d="M163.44,23.66v80.13a7.64,7.64,0,0,1-5.68,7.4,7.55,7.55,0,0,1-2,.26H26.66A7.66,7.66,0,0,1,19,103.79V23.66A7.66,7.66,0,0,1,26.66,16H155.79a7.55,7.55,0,0,1,2,.26A7.64,7.64,0,0,1,163.44,23.66Z" fill="#e6e6e6"/><path d="M163.44,23.66v7.61H19V23.66A7.66,7.66,0,0,1,26.65,16H155.79A7.65,7.65,0,0,1,163.44,23.66Z" fill="#dcd7c6"/><circle cx="29.5" cy="23.64" r="4.77" fill="gray"/><circle cx="42.23" cy="23.64" r="4.77" fill="#103c1d"/><rect x="44.26" y="48.17" width="110.89" height="5.19" fill="#dcd7c6"/><rect x="44.26" y="59.54" width="110.89" height="5.19" fill="#dcd7c6"/><rect x="44.26" y="70.91" width="110.89" height="5.19" fill="#dcd7c6"/><rect x="44.26" y="82.27" width="110.89" height="5.19" fill="#dcd7c6"/><rect x="44.26" y="93.64" width="110.89" height="5.19" fill="#dcd7c6"/><path d="M178,142.85l-19.31,17.81a22.71,22.71,0,0,1-30.81,0l-19.31-17.81A23.26,23.26,0,0,1,101.12,124l1.13-23.12a40.06,40.06,0,0,1,.6-4.58,41.17,41.17,0,0,1,68.38-22.49,42.87,42.87,0,0,1,3.48,3.65,40.91,40.91,0,0,1,8.95,18.84,40.06,40.06,0,0,1,.61,4.58L185.39,124A23.23,23.23,0,0,1,178,142.85Z" fill="#fcd18b"/><path d="M157.33,137a13.92,13.92,0,0,1-.64,4.2,14.08,14.08,0,0,1-26.87,0,14.24,14.24,0,0,1-.64-4.2Z" fill="#f0ecd7"/><path d="M183.66,96.33a40.91,40.91,0,0,0-8.95-18.84,42.87,42.87,0,0,0-3.48-3.65c-.5-.46-1-.9-1.52-1.33l-.31-.26c-.43-.34-.85-.69-1.29-1l-.08-.06h0a41.11,41.11,0,0,0-49.54,0h0l0,0c-.57.44-1.12.88-1.67,1.34l-.16.13q-.78.68-1.53,1.38l-.18.17q-.76.72-1.47,1.47l-.14.14c-.51.54-1,1.1-1.49,1.68a40.89,40.89,0,0,0-9,18.83,34.59,34.59,0,0,0,15.63-9.2,34.66,34.66,0,0,0,49.55,0A34.64,34.64,0,0,0,183.66,96.33Z" fill="gray"/><circle cx="124.85" cy="115.36" r="4.72" fill="gray"/><circle cx="161.66" cy="115.36" r="4.72" fill="gray"/><polygon points="117.82 156.42 141.89 180.48 130.56 198.88 111.69 161.13 117.82 156.42" fill="#fff"/><polygon points="168.69 156.42 144.62 180.48 155.95 198.88 174.82 161.13 168.69 156.42" fill="#fff"/><polygon points="149.93 196.05 143.26 184.73 136.58 196.05 143.26 202.73 149.93 196.05" fill="#103c1d"/><polygon points="161.6 233.97 143.26 202.83 124.91 233.97 143.26 252.32 161.6 233.97" fill="#103c1d"/><rect x="195.75" y="122.5" width="66.56" height="81.49" fill="#e6e6e6"/><path d="M257.39,205.48H200.66a5.61,5.61,0,0,1-5.61-5.61V126.62a5.61,5.61,0,0,1,5.61-5.61h56.73a5.61,5.61,0,0,1,5.61,5.61v73.25A5.61,5.61,0,0,1,257.39,205.48Z" fill="none" stroke="gray" stroke-miterlimit="10" stroke-width="3"/><path d="M235.36,117.24H222.69a3.57,3.57,0,0,0-3.57,3.57v12h19.81v-12A3.57,3.57,0,0,0,235.36,117.24Z" fill="#103c1d"/><rect x="208.73" y="139.89" width="40.58" height="5.19" fill="#103c1d"/><rect x="208.73" y="151.25" width="40.58" height="5.19" fill="#103c1d"/><rect x="208.73" y="162.62" width="40.58" height="5.19" fill="#103c1d"/><rect x="208.73" y="173.99" width="40.58" height="5.19" fill="#103c1d"/><rect x="208.73" y="185.36" width="20.29" height="5.19" fill="#103c1d"/><path d="M226.34,29a26,26,0,0,0-16.53,46l-5.25,14.71L218.09,79.5h0A25.95,25.95,0,1,0,226.34,29Z" fill="#103c1d"/><path d="M222.41,59.12a10.89,10.89,0,0,1,.75-4.15,6.86,6.86,0,0,1,3.11-3.21c.48-.28,1.06-.6,1.75-1a14.39,14.39,0,0,0,2-1.29,7.39,7.39,0,0,0,1.67-1.77,4.09,4.09,0,0,0,.68-2.33,3.92,3.92,0,0,0-.37-1.75,4.3,4.3,0,0,0-1-1.27,4.17,4.17,0,0,0-1.44-.78,5.66,5.66,0,0,0-1.68-.26,4.74,4.74,0,0,0-1.88.36,6.08,6.08,0,0,0-1.53.89,7.16,7.16,0,0,0-1.23,1.23,13.8,13.8,0,0,0-.92,1.29l-4.1-2.82a9.15,9.15,0,0,1,1.63-2.6,9.89,9.89,0,0,1,2.31-1.91,10.37,10.37,0,0,1,2.8-1.17,12,12,0,0,1,3.11-.41,12.53,12.53,0,0,1,3.54.52,9,9,0,0,1,3.13,1.65,8.55,8.55,0,0,1,2.27,2.9,9.49,9.49,0,0,1,.87,4.22,9.34,9.34,0,0,1-.35,2.67,7.39,7.39,0,0,1-1,2.09A8.93,8.93,0,0,1,235,52a18.62,18.62,0,0,1-2,1.46c-.63.38-1.26.74-1.89,1.09a11.2,11.2,0,0,0-1.72,1.15,5.66,5.66,0,0,0-1.27,1.46,3.84,3.84,0,0,0-.5,2Zm.09,11V63.59h5.23V70.1Z" fill="#fff"/><path d="M95.78,168.53,101,153.82,87.5,163.92h0a26,26,0,1,0,8.27,4.6Z" fill="#dcd7c6"/><path d="M76.49,192.37V173.86H82v18.51Zm0,11v-6.21H82v6.21Z" fill="#fff"/></g></svg>