<?xml version="1.0"?>
<svg xmlns="http://www.w3.org/2000/svg" viewBox="0 0 512 512" width="512px" height="512px"><path d="m189.339844 414.984375v-53.289063h11.46875v53.253907c0 3.105469 1.445312 6.039062 3.910156 7.933593 2.464844 1.890626 5.675781 2.527344 8.675781 1.726563 15.363281-4.113281 29.074219-13.441406 38.601563-26.269531 9.734375-13.101563 14.664062-29.34375 13.878906-45.734375-1.101562-22.910157-13.496094-43.96875-32.78125-56.316407v-80.542968c20.390625-12.976563 32.816406-35.371094 32.816406-59.824219 0-32.140625-21.675781-60.335937-52.710937-68.570313-3-.792968-6.203125-.152343-8.664063 1.738282-2.460937 1.894531-3.902344 4.820312-3.902344 7.925781v53.292969h-11.464843v-53.257813c0-3.105469-1.445313-6.039062-3.910157-7.933593-2.464843-1.890626-5.671874-2.527344-8.675781-1.726563-15.363281 4.113281-29.074219 13.441406-38.605469 26.269531-9.730468 13.101563-14.660156 29.34375-13.875 45.734375 1.097657 22.886719 13.476563 43.933594 32.734376 56.285157v80.605468c-20.359376 12.980469-32.769532 35.367188-32.769532 59.792969 0 32.140625 21.675782 60.335937 52.710938 68.570313.847656.222656 1.707031.335937 2.5625.335937 2.183594 0 4.332031-.714844 6.101562-2.074219 2.457032-1.890625 3.898438-4.820312 3.898438-7.925781zm-20-63.289063v48.40625c-15.347656-8.960937-25.277344-25.589843-25.277344-44.023437 0-19.03125 10.5-36.34375 27.402344-45.175781 3.300781-1.722656 5.371094-5.136719 5.371094-8.863282v-92.101562c0-3.71875-2.0625-7.128906-5.355469-8.855469-16.042969-8.417969-26.542969-24.757812-27.402344-42.644531-.917969-19.164062 9.15625-36.988281 25.089844-46.429688v48.296876c0 5.523437 4.476562 10 10 10h31.464843c5.523438 0 10-4.476563 10-10v-48.40625c15.351563 8.960937 25.277344 25.585937 25.277344 44.019531 0 19.054687-10.515625 36.371093-27.4375 45.195312-3.308594 1.726563-5.378906 5.144531-5.378906 8.867188v92.054687c0 3.722656 2.066406 7.136719 5.363281 8.859375 16.066407 8.414063 26.582031 24.761719 27.441407 42.667969.917968 19.164062-9.15625 36.988281-25.089844 46.429688v-48.296876c0-5.523437-4.480469-10-10-10h-31.46875c-5.523438 0-10 4.476563-10 10zm0 0" fill="#134921"/><path d="m309.164062 135.039062c-.71875 2.277344-.59375 4.738282.347657 6.9375l4.964843 11.589844v105.875c-11.875.117188-21.503906 9.8125-21.503906 21.714844v96.324219c0 26.191406 21.3125 47.503906 47.503906 47.503906 26.195313 0 47.507813-21.3125 47.507813-47.503906v-96.324219c0-11.90625-9.628906-21.597656-21.507813-21.714844v-105.878906l4.96875-11.585938c.941407-2.195312 1.0625-4.65625.347657-6.9375l-12.894531-41.019531c-1.308594-4.167969-5.171876-7.003906-9.539063-7.003906h-17.761719c-4.371094 0-8.230468 2.835937-9.542968 7.003906zm58.816407 146.117188v96.324219c0 15.164062-12.335938 27.503906-27.503907 27.503906-15.167968 0-27.503906-12.339844-27.503906-27.503906v-96.324219c0-.949219.769532-1.722656 1.71875-1.722656h51.570313c.949219.003906 1.71875.773437 1.71875 1.722656zm-29.042969-174.140625h3.082031l9.582031 30.488281-4.316406 10.066406c-.53125 1.246094-.808594 2.585938-.808594 3.9375v107.925782h-12v-107.921875c0-1.355469-.273437-2.695313-.808593-3.9375l-4.3125-10.070313zm0 0" fill="#134921"/><path d="m82.050781 387.578125c-6.675781 0-13.113281 1.546875-18.917969 4.449219-28.246093-39.902344-43.132812-86.738282-43.132812-136.027344 0-130.132812 105.867188-236 236-236 18.734375 0 37.382812 2.199219 55.417969 6.542969 5.378906 1.292969 10.769531-2.015625 12.0625-7.382813 1.292969-5.371094-2.011719-10.773437-7.382813-12.0625-19.566406-4.710937-39.785156-7.097656-60.097656-7.097656-68.378906 0-132.667969 26.628906-181.019531 74.980469-48.351563 48.351562-74.980469 112.640625-74.980469 181.019531 0 54.050781 16.511719 105.382812 47.8125 148.984375-5.273438 7.207031-8.128906 15.863281-8.128906 24.964844 0 11.316406 4.40625 21.953125 12.410156 29.957031s18.640625 12.410156 29.957031 12.410156c11.316407 0 21.957031-4.40625 29.960938-12.410156 8-8.003906 12.410156-18.640625 12.410156-29.957031 0-11.316407-4.410156-21.957031-12.410156-29.960938-8.003907-8-18.644531-12.410156-29.960938-12.410156zm15.816407 58.1875c-4.222657 4.222656-9.839844 6.550781-15.816407 6.550781-5.972656 0-11.589843-2.328125-15.816406-6.550781-4.222656-4.226563-6.550781-9.84375-6.550781-15.816406 0-5.972657 2.328125-11.59375 6.550781-15.816407 4.226563-4.222656 9.84375-6.550781 15.816406-6.550781 5.976563 0 11.59375 2.324219 15.816407 6.550781 4.226562 4.226563 6.554687 9.84375 6.554687 15.816407 0 5.972656-2.328125 11.589843-6.554687 15.816406zm0 0" fill="#134921"/><path d="m464.1875 107.011719c5.273438-7.203125 8.128906-15.863281 8.128906-24.960938 0-11.316406-4.40625-21.957031-12.410156-29.957031-8.003906-8.003906-18.640625-12.410156-29.957031-12.410156-11.316407 0-21.957031 4.40625-29.960938 12.410156-8 8-12.410156 18.640625-12.410156 29.957031 0 11.316407 4.410156 21.957031 12.410156 29.960938 8.003907 8 18.644531 12.40625 29.960938 12.40625 6.675781 0 13.109375-1.542969 18.914062-4.445313 28.242188 39.914063 43.136719 86.769532 43.136719 136.027344 0 130.132812-105.867188 236-236 236-20.019531 0-39.898438-2.507812-59.09375-7.457031-5.351562-1.382813-10.800781 1.839843-12.179688 7.1875-1.378906 5.347656 1.839844 10.800781 7.1875 12.179687 20.820313 5.367188 42.382813 8.089844 64.085938 8.089844 68.378906 0 132.667969-26.628906 181.019531-74.980469 48.351563-48.351562 74.980469-112.640625 74.980469-181.019531 0-54.015625-16.515625-105.378906-47.8125-148.988281zm-50.054688-9.144531c-4.226562-4.222657-6.554687-9.839844-6.554687-15.816407 0-5.972656 2.328125-11.589843 6.554687-15.816406 4.222657-4.222656 9.839844-6.550781 15.816407-6.550781 5.972656 0 11.589843 2.328125 15.816406 6.550781 4.222656 4.226563 6.550781 9.84375 6.550781 15.816406 0 5.976563-2.328125 11.59375-6.550781 15.816407-4.226563 4.226562-9.84375 6.554687-15.816406 6.554687-5.976563 0-11.59375-2.328125-15.816407-6.554687zm0 0" fill="#134921"/><path d="m168.382812 475.199219-.277343-.109375c-5.121094-2.066406-10.945313.402344-13.019531 5.523437-2.066407 5.121094.402343 10.949219 5.523437 13.019531l.277344.109376c1.226562.496093 2.496093.730468 3.742187.730468 3.957032 0 7.699219-2.363281 9.273438-6.253906 2.074218-5.117188-.398438-10.949219-5.519532-13.019531zm0 0" fill="#134921"/><path d="m344.167969 37.019531c.027343.011719.105469.042969.148437.0625 1.230469.5 2.503906.734375 3.757813.734375 3.9375 0 7.667969-2.339844 9.253906-6.207031 2.097656-5.109375-.34375-10.949219-5.453125-13.046875-.035156-.011719-.082031-.03125-.113281-.046875-5.113281-2.097656-10.953125.347656-13.050781 5.457031-2.09375 5.109375.347656 10.953125 5.457031 13.046875zm0 0" fill="#134921"/></svg>
