<svg id="Layer_1" data-name="Layer 1" xmlns="http://www.w3.org/2000/svg" viewBox="0 0 56.67 56.68"><title>watch</title><path d="M38.54,8.32A27.84,27.84,0,1,0,66.38,36.16,27.83,27.83,0,0,0,38.54,8.32Z" transform="translate(-10.2 -7.82)" fill="none" stroke="#134921" stroke-miterlimit="10"/><g id="clock-clock"><rect x="8.69" y="28.05" width="5.3" height="1.17" fill="#134921"/><rect x="27.3" y="9.55" width="1.66" height="5.3" fill="#134921"/><rect x="27.46" y="43.13" width="1.34" height="5.3" fill="#134921"/><path d="M41.51,36.71a3.09,3.09,0,0,0-3.09-3.08,3.22,3.22,0,0,0-1.21.24l-6.25-8L29.45,27l6.33,8.14a3,3,0,0,0-.45,1.58,3.09,3.09,0,0,0,3.09,3.09,3,3,0,0,0,1.75-.55l9.28,5.19.93-1.66-9.05-5.05A3.41,3.41,0,0,0,41.51,36.71Zm-3.09,1.67a1.67,1.67,0,1,1,1.66-1.67A1.67,1.67,0,0,1,38.42,38.38Z" transform="translate(-10.2 -7.82)" fill="#134921"/><rect x="42.26" y="27.93" width="5.3" height="1.42" fill="#134921"/></g></svg>